<?xml version="1.0" encoding="UTF-8" standalone="no"?>
<!-- Created with Inkscape (http://www.inkscape.org/) -->

<svg
   width="48"
   height="48"
   viewBox="0 0 12.7 12.7"
   version="1.1"
   id="svg1"
   xml:space="preserve"
   inkscape:version="1.4 (86a8ad7, 2024-10-11)"
   sodipodi:docname="backup-restore.svg"
   xmlns:inkscape="http://www.inkscape.org/namespaces/inkscape"
   xmlns:sodipodi="http://sodipodi.sourceforge.net/DTD/sodipodi-0.dtd"
   xmlns="http://www.w3.org/2000/svg"
   xmlns:svg="http://www.w3.org/2000/svg"><sodipodi:namedview
     id="namedview1"
     pagecolor="#313131"
     bordercolor="#eeeeee"
     borderopacity="1"
     inkscape:showpageshadow="0"
     inkscape:pageopacity="0"
     inkscape:pagecheckerboard="0"
     inkscape:deskcolor="#505050"
     inkscape:document-units="px"
     inkscape:zoom="16.519978"
     inkscape:cx="27.148947"
     inkscape:cy="22.003661"
     inkscape:window-width="1904"
     inkscape:window-height="993"
     inkscape:window-x="1920"
     inkscape:window-y="0"
     inkscape:window-maximized="1"
     inkscape:current-layer="layer1" /><defs
     id="defs1" /><g
     inkscape:label="Layer 1"
     inkscape:groupmode="layer"
     id="layer1"><path
       style="display:inline;fill:#24fefb;fill-opacity:1;stroke-width:0.144765"
       d="m 12.66868,10.94503 c -0.0457,0.232395 -0.207495,0.443231 -0.422933,0.55113 -0.169441,0.08486 -0.127358,0.08197 -1.194058,0.08197 -1.0648369,0 -0.998885,0.0048 -1.0955329,-0.08004 -0.067593,-0.05935 -0.098381,-0.126281 -0.098486,-0.214124 -1.437e-4,-0.118732 0.063826,-0.215928 0.1767039,-0.268483 0.05187,-0.02415 0.07908,-0.0259 0.456566,-0.02936 l 0.40141,-0.0037 V 6.3508811 1.7193201 l -0.40141,-0.0044 c -0.441623,-0.0048 -0.446038,-0.0056 -0.5365012,-0.08501 -0.1581824,-0.138886 -0.122065,-0.375657 0.07326,-0.480235 0.04944,-0.02646 0.05233,-0.02656 0.987223,-0.03 1.020084,-0.0037 1.044308,-0.0025 1.19743,0.06528 0.165208,0.07306 0.315337,0.218531 0.391942,0.379775 0.08336,0.175455 0.07725,-0.209951 0.076,4.7920584 -6.22e-4,2.4942592 -0.0059,4.5589925 -0.01161,4.5882955 z m -10.5154305,-0.280029 0,-1.6572293 H 10.54916 l 0,1.6572293 z M 9.1589589,4.0059291 C 9.1197069,4.12712 9.0768447,4.1962568 8.975161,4.3023943 8.7922517,4.4933156 8.5990921,4.5781583 8.3490636,4.5773996 8.2139619,4.5769943 8.1108639,4.5518864 7.979112,4.4873206 7.8744789,4.4360442 7.8523335,4.4168617 7.3260335,3.9215934 L 7.1478969,3.7539608 7.1417738,7.0095474 C 7.1356506,8.0217823 7.1356506,8.0229797 7.1082069,8.0956087 7.0003354,8.3814959 6.7600775,8.5656967 6.4427766,8.6057814 6.0829827,8.651234 5.7204894,8.4344821 5.5955274,8.0991709 L 5.5671054,8.0228989 5.5634454,7.0138913 C 5.5614077,6.4464155 5.5551145,3.7643779 5.5491189,3.7665992 5.5432508,3.7687763 5.3864969,3.9132702 5.2007922,4.0877066 5.0150876,4.2621431 4.8428496,4.4186567 4.8180415,4.4355143 4.7472899,4.483591 4.6055488,4.54476 4.5249415,4.562003 4.4236652,4.5836672 4.2469862,4.5811941 4.1511085,4.5567728 4.1072938,4.54561 4.024557,4.5135356 3.9672569,4.4854949 3.881041,4.4433037 3.8429481,4.4142501 3.7463721,4.3170265 3.5758946,4.1454043 3.5137546,4.0049382 3.5137546,3.7911965 c 0,-0.1879433 0.064701,-0.3516554 0.1931545,-0.4887083 0.038704,-0.041294 0.1641316,-0.1623555 0.2787326,-0.2690253 0.1146011,-0.1066707 0.2580057,-0.2413617 0.318677,-0.299315 0.06067,-0.05796 0.2040758,-0.192914 0.3186769,-0.299912 0.114601,-0.106999 0.2580056,-0.241755 0.3186769,-0.299459 0.1527577,-0.145287 0.4488495,-0.423446 0.7098963,-0.666901 0.1954048,-0.182236 0.2318998,-0.210814 0.3309335,-0.259143 0.2232388,-0.10894 0.4445514,-0.118719 0.681251,-0.0301 0.1422608,0.05326 0.1126161,0.0273 1.1891704,1.041435 0.2397305,0.225834 0.5988671,0.5637585 0.7980801,0.7509455 0.3653185,0.3432636 0.4098713,0.3915729 0.468726,0.5082381 0.075859,0.1503806 0.091802,0.364367 0.039231,0.5266848 z M 2.8404357,11.351461 c -0.028167,0.09261 -0.1084855,0.180286 -0.1922479,0.209871 -0.070425,0.02487 -1.91583404,0.02473 -2.0147819,-1.56e-4 C 0.36447634,11.493533 0.15410382,11.301079 0.06086157,11.037398 L 0.02669088,10.940778 0.02328908,6.387376 C 0.02014248,2.1949699 0.02150318,1.8266859 0.04012784,1.7420479 0.103239,1.4549589 0.30144597,1.2399709 0.58435082,1.1517459 l 0.0919258,-0.02867 H 1.6506921 2.6251085 l 0.064965,0.03599 c 0.1845006,0.102214 0.2122079,0.335276 0.056146,0.472297 -0.089825,0.07887 -0.093109,0.07938 -0.5347848,0.08387 l -0.4014103,0.0041 v 4.6321639 4.6321812 h 0.3856297 c 0.3625197,0 0.3897788,0.0015 0.4548647,0.0259 0.1441011,0.05391 0.2302788,0.209076 0.189882,0.341879 z"
       id="path1"
       sodipodi:nodetypes="csscssccccccccccsccccccccscsscccsccccssscssssscssscccsccccccccccccccccccccsccc" /><path
       style="display:none;fill:#000000;stroke-width:0.144765"
       d="M 9.1589589,4.0059291 C 9.1197069,4.12712 9.0768447,4.1962568 8.975161,4.3023943 8.7922517,4.4933156 8.5990921,4.5781583 8.3490636,4.5773996 8.2139619,4.5769943 8.1108639,4.5518864 7.979112,4.4873206 7.8744789,4.4360442 7.8523335,4.4168617 7.3260335,3.9215934 L 7.1478969,3.7539608 7.1417738,4.7673128 C 7.1356506,5.7795477 7.1356506,5.7807451 7.1082069,5.8533741 7.0003354,6.1392613 6.7600775,6.3234621 6.4427766,6.3635468 6.0829827,6.4089994 5.7204894,6.1922475 5.5955274,5.8569363 L 5.5671054,5.7806643 5.5634454,4.7716567 C 5.5614077,4.2041809 5.5551145,3.7643779 5.5491189,3.7665992 5.5432508,3.7687763 5.3864969,3.9132702 5.2007922,4.0877066 5.0150876,4.2621431 4.8428496,4.4186567 4.8180415,4.4355143 4.7472899,4.483591 4.6055488,4.54476 4.5249415,4.562003 4.4236652,4.5836672 4.2469862,4.5811941 4.1511085,4.5567728 4.1072938,4.54561 4.024557,4.5135356 3.9672569,4.4854949 3.881041,4.4433037 3.8429481,4.4142501 3.7463721,4.3170265 3.5758946,4.1454043 3.5137546,4.0049382 3.5137546,3.7911965 c 0,-0.1879433 0.064701,-0.3516554 0.1931545,-0.4887083 0.038704,-0.041294 0.1641316,-0.1623555 0.2787326,-0.2690253 0.1146011,-0.1066707 0.2580057,-0.2413617 0.318677,-0.299315 0.06067,-0.05796 0.2040758,-0.192914 0.3186769,-0.299912 0.114601,-0.106999 0.2580056,-0.241755 0.3186769,-0.299459 0.1527577,-0.145287 0.4488495,-0.423446 0.7098963,-0.666901 0.1954048,-0.182236 0.2318998,-0.210814 0.3309335,-0.259143 0.2232388,-0.10894 0.4445514,-0.118719 0.681251,-0.0301 0.1422608,0.05326 0.1126161,0.0273 1.1891704,1.041435 0.2397305,0.225834 0.5988671,0.5637585 0.7980801,0.7509455 0.3653185,0.3432636 0.4098713,0.3915729 0.468726,0.5082381 0.075859,0.1503806 0.091802,0.364367 0.039231,0.5266848 z"
       id="path2"
       sodipodi:nodetypes="cscsscccsccccssscssssscssscccsccc" /></g></svg>
