<svg xmlns="http://www.w3.org/2000/svg" xmlns:svg="http://www.w3.org/2000/svg" id="svg1" width="48" height="48" version="1.1" viewBox="0 0 12.7 12.7" xml:space="preserve"><g id="layer1"><path style="display:inline;fill:#24fefb;fill-opacity:1;stroke-width:.144765" id="path1" d="m 12.66868,10.94503 c -0.0457,0.232395 -0.207495,0.443231 -0.422933,0.55113 -0.169441,0.08486 -0.127358,0.08197 -1.194058,0.08197 -1.0648369,0 -0.998885,0.0048 -1.0955329,-0.08004 -0.067593,-0.05935 -0.098381,-0.126281 -0.098486,-0.214124 -1.437e-4,-0.118732 0.063826,-0.215928 0.1767039,-0.268483 0.05187,-0.02415 0.07908,-0.0259 0.456566,-0.02936 l 0.40141,-0.0037 V 1.7193201 l -0.40141,-0.0044 c -0.441623,-0.0048 -0.446038,-0.0056 -0.5365012,-0.08501 -0.1581824,-0.138886 -0.122065,-0.375657 0.07326,-0.480235 0.04944,-0.02646 0.05233,-0.02656 0.987223,-0.03 1.020084,-0.0037 1.044308,-0.0025 1.19743,0.06528 0.165208,0.07306 0.315337,0.218531 0.391942,0.379775 0.08336,0.175455 0.07725,-0.209951 0.076,4.7920584 -6.22e-4,2.4942592 -0.0059,4.5589925 -0.01161,4.5882955 z m -10.5154305,-0.280029 0,-1.5451176 H 10.54916 l 0,1.5451176 z m 0.6871862,0.68646 c -0.028167,0.09261 -0.1084855,0.180286 -0.1922479,0.209871 -0.070425,0.02487 -1.91583404,0.02473 -2.0147819,-1.56e-4 C 0.36447634,11.493533 0.15410382,11.301079 0.06086157,11.037398 L 0.02669088,10.940778 0.02328908,6.387376 C 0.02014248,2.1949699 0.02150318,1.8266859 0.04012784,1.7420479 0.103239,1.4549589 0.30144597,1.2399709 0.58435082,1.1517459 l 0.0919258,-0.02867 H 1.6506921 2.6251085 l 0.064965,0.03599 c 0.1845006,0.102214 0.2122079,0.335276 0.056146,0.472297 -0.089825,0.07887 -0.093109,0.07938 -0.5347848,0.08387 l -0.4014103,0.0041 v 4.6321639 4.6321812 h 0.3856297 c 0.3625197,0 0.3897788,0.0015 0.4548647,0.0259 0.1441011,0.05391 0.2302788,0.209076 0.189882,0.341879 z"/><path style="display:inline;fill:#24fefb;fill-opacity:1;stroke-width:.144765" id="path2" d="M 3.5445139,5.7567341 C 3.5837659,5.6355432 3.6266281,5.5664064 3.7283118,5.4602689 3.9112211,5.2693476 4.1043807,5.1845049 4.3544092,5.1852636 c 0.1351017,4.053e-4 0.2381997,0.025513 0.3699516,0.090079 0.1046331,0.051276 0.1267775,0.07046 0.6530785,0.5657272 l 0.1781366,0.1676326 0.00612,-1.013352 c 0.00613,-1.0122349 0.00613,-3.2876988 0.03357,-3.3603278 0.1078715,-0.2858872 0.3481294,-0.470088 0.6654303,-0.5101727 0.3597939,-0.045453 0.7222872,0.1712993 0.8472492,0.5066105 l 0.028422,0.076272 0.00366,3.2832741 c 0.00204,0.5674758 0.00833,1.0072788 0.014327,1.0050575 0.00587,-0.00218 0.162622,-0.146671 0.3483267,-0.3211074 0.1857041,-0.1744365 0.3579421,-0.3309501 0.3827502,-0.3478077 0.070752,-0.048077 0.2124927,-0.1092457 0.2931,-0.1264887 0.1012763,-0.021664 0.2779553,-0.019191 0.373833,0.00523 0.043815,0.011163 0.1265515,0.043237 0.1838516,0.071278 0.086216,0.042191 0.1243088,0.071245 0.2208848,0.1684684 0.1704775,0.1716222 0.2326175,0.3120883 0.2326175,0.52583 0,0.1879433 -0.064701,0.3516554 -0.1931545,0.4887083 C 8.9578597,6.501469 8.8324321,6.6225305 8.7178311,6.7292003 8.60323,6.835871 8.4598254,6.970562 8.3991541,7.0285153 c -0.06067,0.05796 -0.2040758,0.192914 -0.3186769,0.299912 -0.114601,0.106999 -0.2580056,0.241755 -0.3186769,0.299459 -0.1527577,0.145287 -0.4488495,0.423446 -0.7098963,0.666901 -0.1954048,0.182236 -0.2318998,0.210814 -0.3309335,0.259143 -0.2232388,0.10894 -0.4445514,0.118719 -0.681251,0.0301 C 5.8974587,8.5307703 5.9271034,8.5567303 4.8505491,7.5425953 4.6108186,7.3167613 4.251682,6.9788368 4.052469,6.7916498 3.6871505,6.4483862 3.6425977,6.4000769 3.583743,6.2834117 3.507884,6.1330311 3.491941,5.9190447 3.544512,5.7567269 Z"/></g></svg>