<svg xmlns="http://www.w3.org/2000/svg" xmlns:svg="http://www.w3.org/2000/svg" id="svg8" width="48" height="48" version="1.1" viewBox="0 0 48 48"><metadata id="metadata5"/><g id="layer25"><path style="display:inline;opacity:1;fill:#f6d849;stroke-width:9.50233;stroke-dashoffset:1.9394;paint-order:markers stroke fill" id="path3" d="m 24.023782,0.27589433 c -13.119972,0 -23.75570017,10.63572867 -23.75570017,23.75569967 0,13.119972 10.63572817,23.755699 23.75570017,23.755699 13.119972,0 23.755699,-10.635727 23.755699,-23.755699 0,-13.119971 -10.635727,-23.75569967 -23.755699,-23.75569967 z m 0,4.31794987 c 9.839979,0 19.418684,9.5977718 19.418684,19.4377498 0,9.839979 -9.578705,19.438217 -19.418684,19.438214 -9.839979,0 -19.4670449,-9.598235 -19.4670449,-19.438214 0,-9.839978 9.6270659,-19.4377498 19.4670449,-19.4377498 z"/><path style="fill:#f6d849;stroke-width:.287259;stroke-linejoin:bevel;stroke-miterlimit:1.9" id="path4" d="M 21.132627,8.3535597 V 32.381042 h 5.375119 l 0.373196,-3.728794 V 8.3535597 Z m 0.0216,14.6129493 1.311788,9.401915 h -1.317001 z m -0.10576,11.748304 h 5.917376 v 5.578804 h -5.917375 z"/></g></svg>