<svg xmlns="http://www.w3.org/2000/svg" xmlns:svg="http://www.w3.org/2000/svg" id="svg8" width="48" height="48" version="1.1" viewBox="0 0 48 48"><metadata id="metadata5"/><g id="layer25"><path style="display:inline;opacity:1;fill:#fed849;fill-opacity:1;stroke-width:9.50005;stroke-dashoffset:1.9394;paint-order:markers stroke fill" id="path186" d="m 24.048829,0.18164062 c -13.116824,0 -23.75000088,10.63317738 -23.75000088,23.75000038 0,13.116824 10.63317688,23.750001 23.75000088,23.750001 13.116824,0 23.750001,-10.633177 23.750001,-23.750001 0,-13.116823 -10.633177,-23.75000038 -23.750001,-23.75000038 z m 0,4.31691408 c 9.837618,0 19.414026,9.5954693 19.414026,19.4330863 0,9.837618 -9.576408,19.433553 -19.414026,19.433551 -9.837618,0 -19.4623744,-9.595933 -19.4623744,-19.433551 0,-9.837617 9.6247564,-19.4330863 19.4623744,-19.4330863 z"/><path style="fill:#fed849;fill-opacity:1;stroke-width:.0501798;stroke-linejoin:bevel;stroke-miterlimit:1.9" id="path185" d="m 23.820571,4.5352805 c -3.296969,0.052013 -6.613555,1.1409017 -9.750015,3.221647 -3.965222,2.6305515 -7.0785898,6.5852515 -8.5278349,10.8331955 -1.1319313,3.31785 -1.2229247,6.550365 -0.2770708,9.818818 1.2696818,4.387457 4.2693022,8.496643 8.2754017,11.336199 2.855396,2.023926 6.076818,3.264456 9.182857,3.535909 3.906276,0.341388 8.081131,-0.89879 11.766683,-3.495464 1.492366,-1.051452 3.42386,-2.86396 4.52611,-4.247182 2.770233,-3.47638 4.272453,-7.279339 4.400129,-11.139554 0.139414,-4.215076 -1.491912,-8.55773 -4.647446,-12.373356 C 38.082462,11.194879 36.719417,9.8355345 35.870833,9.1348442 33.192615,6.9233945 30.159553,5.4339901 27.103582,4.830482 26.01633,4.6157657 24.919561,4.5179428 23.820571,4.5352805 Z M 21.11448,8.2529589 h 2.902272 2.901807 V 18.472042 28.691591 l -0.157133,1.586648 c -0.0866,0.872749 -0.171055,1.687852 -0.187811,1.811189 l -0.03068,0.224074 H 23.828944 21.114486 V 20.283231 Z M 21.06195,34.582603 h 2.981302 2.980838 v 2.822775 2.823241 h -2.98084 -2.981302 v -2.823241 z"/><path style="fill:#fed849;fill-opacity:1;stroke:none;stroke-width:.0501798;stroke-linejoin:bevel;stroke-miterlimit:1.9" id="path12" d="m 21.228018,27.894583 c 0.0043,-2.401476 0.01776,-4.306959 0.0298,-4.234407 0.01204,0.07255 0.288598,2.037395 0.614568,4.36632 l 0.592672,4.234407 h -0.622473 -0.622474 z"/><path style="fill:#fed849;fill-opacity:1;stroke:none;stroke-width:.00110882;stroke-linejoin:bevel;stroke-miterlimit:1.9" id="path13" d="m 21.176773,29.719233 c 0,-0.297445 3.58e-4,-0.790384 7.86e-4,-1.095416 l 7.86e-4,-0.554608 h 0.02429 0.02429 l -2.8e-5,0.119804 c -1.5e-5,0.06589 -7.85e-4,0.506228 -0.0018,0.978529 -9.29e-4,0.4723 -0.0018,0.911326 -0.0018,0.975613 l -2.7e-5,0.116887 h -0.02332 -0.02332 z"/><path style="fill:#fed849;fill-opacity:1;stroke:none;stroke-width:.00110882;stroke-linejoin:bevel;stroke-miterlimit:1.9" id="path14" d="m 21.114977,29.164625 v -1.095416 h 0.02157 0.02158 v 1.095416 1.095417 h -0.02158 -0.02157 z"/><path style="fill:#fed849;fill-opacity:1;stroke:none;stroke-width:.000884209;stroke-linejoin:bevel;stroke-miterlimit:1.9" id="path15" d="m 21.225025,29.184368 c 1e-6,-0.0071 1.47e-4,-0.01 3.33e-4,-0.0062 1.77e-4,0.0037 1.76e-4,0.0096 -4e-6,0.01302 -1.78e-4,0.0034 -3.32e-4,4.76e-4 -3.32e-4,-0.0068 z"/><path style="fill:#fed849;fill-opacity:1;stroke:none;stroke-width:.000884209;stroke-linejoin:bevel;stroke-miterlimit:1.9" id="path16" d="m 21.225962,29.185762 c 0,-0.008 1.42e-4,-0.01117 3.1e-4,-0.0072 1.74e-4,0.0039 1.74e-4,0.01045 0,0.01439 -1.76e-4,0.0039 -3.1e-4,7.14e-4 -3.1e-4,-0.0072 z"/><path style="fill:#fed849;fill-opacity:1;stroke:none;stroke-width:.000884209;stroke-linejoin:bevel;stroke-miterlimit:1.9" id="path17" d="m 21.177239,29.632205 c 0,-0.227987 2.86e-4,-0.62107 6.2e-4,-0.873516 l 6.18e-4,-0.458997 h 0.02416 0.02416 l -5.95e-4,0.145742 c -3.34e-4,0.08015 -9.96e-4,0.448869 -0.0016,0.819358 -5.24e-4,0.37049 -0.0012,0.697988 -0.0016,0.727777 l -5.48e-4,0.05416 h -0.02267 -0.02267 z"/><path style="fill:#fed849;fill-opacity:1;stroke:none;stroke-width:.000884209;stroke-linejoin:bevel;stroke-miterlimit:1.9" id="path18" d="m 21.177464,29.463994 c 1.33e-4,-0.320502 3.57e-4,-0.713583 4.76e-4,-0.873517 l 2.4e-4,-0.290785 h 0.02423 0.02423 l -5.24e-4,0.211756 c -9.96e-4,0.409766 -0.0015,0.646992 -0.002,1.041572 -2.61e-4,0.219123 -7.38e-4,0.419848 -9.96e-4,0.446057 l -5.47e-4,0.04765 h -0.02268 -0.02268 z"/><path style="fill:#fed849;fill-opacity:1;stroke:none;stroke-width:.000884209;stroke-linejoin:bevel;stroke-miterlimit:1.9" id="path19" d="m 21.224679,29.975833 c 1.3e-5,-0.03899 6.2e-4,-0.379252 0.0013,-0.756134 7.37e-4,-0.376882 0.0013,-0.738062 0.0013,-0.802625 l 2.1e-5,-0.117384 0.341399,2.33e-4 0.341401,2.35e-4 0.121568,0.868403 c 0.06687,0.477621 0.121849,0.870599 0.122195,0.873285 l 6.19e-4,0.0049 h -0.464819 -0.464991 z"/><path style="fill:#fed849;fill-opacity:1;stroke:none;stroke-width:.000884209;stroke-linejoin:bevel;stroke-miterlimit:1.9" id="path20" d="m 21.225995,29.202497 c 0,-0.01406 1.3e-4,-0.01983 2.86e-4,-0.01278 1.59e-4,0.007 1.59e-4,0.01854 0,0.02556 -1.58e-4,0.007 -2.86e-4,0.0012 -2.86e-4,-0.01279 z"/><path style="fill:#fed849;fill-opacity:1;stroke:none;stroke-width:.000884209;stroke-linejoin:bevel;stroke-miterlimit:1.9" id="path21" d="m 19.516674,29.173212 v -0.87352 h 0.79867 0.798671 v 0.87352 0.873516 h -0.798671 -0.79867 z"/><path style="fill:#fed849;fill-opacity:1;stroke:none;stroke-width:.000884209;stroke-linejoin:bevel;stroke-miterlimit:1.9" id="path22" d="m 21.115874,29.173212 v -0.87352 h 0.02093 0.02093 v 0.87352 0.873516 h -0.02093 -0.02093 z"/><path style="fill:#fed849;fill-opacity:1;stroke:none;stroke-width:.000884209;stroke-linejoin:bevel;stroke-miterlimit:1.9" id="path23" d="m 21.115874,29.173212 v -0.87352 h 0.02093 0.02093 v 0.87352 0.873516 h -0.02093 -0.02093 z"/><path style="fill:#fed849;fill-opacity:1;stroke:none;stroke-width:.000884209;stroke-linejoin:bevel;stroke-miterlimit:1.9" id="path24" d="m 21.115408,29.173212 c 0,-0.480693 1.06e-4,-0.677198 2.34e-4,-0.436683 1.3e-4,0.240515 1.3e-4,0.633806 0,0.87398 -1.28e-4,0.240176 -2.34e-4,0.04339 -2.34e-4,-0.437297 z"/><path style="fill:#fed849;fill-opacity:1;stroke:none;stroke-width:.000884209;stroke-linejoin:bevel;stroke-miterlimit:1.9" id="path25" d="m 21.114945,29.173212 v -0.87352 h 0.02139 0.02139 v 0.87352 0.873516 h -0.02139 -0.02139 z"/><path style="fill:#fed849;fill-opacity:1;stroke:none;stroke-width:.000884209;stroke-linejoin:bevel;stroke-miterlimit:1.9" id="path26" d="m 21.114478,29.173212 c 0,-0.480693 1.06e-4,-0.677198 2.34e-4,-0.436683 1.3e-4,0.240515 1.3e-4,0.633806 0,0.87398 -1.28e-4,0.240176 -2.34e-4,0.04339 -2.34e-4,-0.437297 z"/><path style="fill:#fed849;fill-opacity:1;stroke:none;stroke-width:.000884209;stroke-linejoin:bevel;stroke-miterlimit:1.9" id="path27" d="m 21.114471,29.173676 c 0,-0.101513 1.09e-4,-0.143035 2.38e-4,-0.09229 1.34e-4,0.05076 1.34e-4,0.133805 0,0.184559 -1.32e-4,0.05076 -2.38e-4,0.0093 -2.38e-4,-0.09228 z"/><path style="fill:#fed849;fill-opacity:1;stroke:none;stroke-width:.000884209;stroke-linejoin:bevel;stroke-miterlimit:1.9" id="path28" d="m 19.516674,29.173212 v -0.87352 h 0.79867 0.798671 v 0.87352 0.873516 h -0.798671 -0.79867 z"/><path style="fill:#fed849;fill-opacity:1;stroke:none;stroke-width:.000884209;stroke-linejoin:bevel;stroke-miterlimit:1.9" id="path29" d="m 19.516674,29.173212 v -0.87352 h 0.79867 0.798671 v 0.87352 0.873516 h -0.798671 -0.79867 z"/><path style="fill:#fed849;fill-opacity:1;stroke:none;stroke-width:.000884209;stroke-linejoin:bevel;stroke-miterlimit:1.9" id="path30" d="m 21.114945,29.173212 v -0.87352 h 0.02139 0.02139 v 0.87352 0.873516 h -0.02139 -0.02139 z"/><path style="fill:#fed849;fill-opacity:1;stroke:none;stroke-width:.000884209;stroke-linejoin:bevel;stroke-miterlimit:1.9" id="path31" d="m 21.114945,29.173212 v -0.87352 h 0.02139 0.02139 v 0.87352 0.873516 h -0.02139 -0.02139 z"/><path style="fill:#fed849;fill-opacity:1;stroke:none;stroke-width:.000884209;stroke-linejoin:bevel;stroke-miterlimit:1.9" id="path32" d="m 21.114945,29.173212 v -0.87352 h 0.02139 0.02139 v 0.87352 0.873516 h -0.02139 -0.02139 z"/><path style="fill:#fed849;fill-opacity:1;stroke:none;stroke-width:.000884209;stroke-linejoin:bevel;stroke-miterlimit:1.9" id="path33" d="m 21.114945,29.173212 v -0.87352 h 0.02139 0.02139 v 0.87352 0.873516 h -0.02139 -0.02139 z"/><path style="fill:#fed849;fill-opacity:1;stroke:none;stroke-width:.000884209;stroke-linejoin:bevel;stroke-miterlimit:1.9" id="path34" d="m 21.114945,29.173212 v -0.87352 h 0.02139 0.02139 v 0.87352 0.873516 h -0.02139 -0.02139 z"/><path style="fill:#fed849;fill-opacity:1;stroke:none;stroke-width:.000884209;stroke-linejoin:bevel;stroke-miterlimit:1.9" id="path35" d="m 19.516674,29.173212 v -0.87352 h 0.79867 0.798671 v 0.87352 0.873516 h -0.798671 -0.79867 z"/><path style="fill:#fed849;fill-opacity:1;stroke:none;stroke-width:.000884209;stroke-linejoin:bevel;stroke-miterlimit:1.9" id="path36" d="m 19.516674,29.173212 v -0.87352 h 0.79867 0.798671 v 0.87352 0.873516 h -0.798671 -0.79867 z"/><path style="fill:#fed849;fill-opacity:1;stroke:none;stroke-width:.000884209;stroke-linejoin:bevel;stroke-miterlimit:1.9" id="path37" d="m 21.114945,29.173212 v -0.87352 h 0.02139 0.02139 v 0.87352 0.873516 h -0.02139 -0.02139 z"/><path style="fill:#fed849;fill-opacity:1;stroke:none;stroke-width:.000884209;stroke-linejoin:bevel;stroke-miterlimit:1.9" id="path38" d="m 21.114945,29.173212 v -0.87352 h 0.02139 0.02139 v 0.87352 0.873516 h -0.02139 -0.02139 z"/><path style="fill:#fed849;fill-opacity:1;stroke:none;stroke-width:.000884209;stroke-linejoin:bevel;stroke-miterlimit:1.9" id="path39" d="m 21.114457,29.173676 c 0,-0.03809 1.16e-4,-0.05369 2.62e-4,-0.03463 1.39e-4,0.01903 1.39e-4,0.05022 0,0.06927 -1.4e-4,0.01903 -2.62e-4,0.0034 -2.62e-4,-0.03463 z"/><path style="fill:#fed849;fill-opacity:1;stroke:none;stroke-width:.000884209;stroke-linejoin:bevel;stroke-miterlimit:1.9" id="path40" d="m 21.114945,29.173212 v -0.87352 h 0.02139 0.02139 v 0.87352 0.873516 h -0.02139 -0.02139 z"/><path style="fill:#fed849;fill-opacity:1;stroke:none;stroke-width:.000884209;stroke-linejoin:bevel;stroke-miterlimit:1.9" id="path41" d="m 21.114945,29.173212 v -0.87352 h 0.02139 0.02139 v 0.87352 0.873516 h -0.02139 -0.02139 z"/><path style="fill:#fed849;fill-opacity:1;stroke:none;stroke-width:.000884209;stroke-linejoin:bevel;stroke-miterlimit:1.9" id="path42" d="m 21.114403,29.195526 c 1e-6,-0.0097 1.38e-4,-0.01357 3.09e-4,-0.0086 1.67e-4,0.0051 1.66e-4,0.01297 -2e-6,0.01767 -1.67e-4,0.0048 -3.09e-4,7.14e-4 -3.09e-4,-0.0091 z"/><path style="fill:#fed849;fill-opacity:1;stroke:none;stroke-width:.000884209;stroke-linejoin:bevel;stroke-miterlimit:1.9" id="path43" d="m 21.114945,29.173212 v -0.87352 h 0.02139 0.02139 v 0.87352 0.873516 h -0.02139 -0.02139 z"/><path style="fill:#fed849;fill-opacity:1;stroke:none;stroke-width:.000884209;stroke-linejoin:bevel;stroke-miterlimit:1.9" id="path44" d="m 19.516674,29.173212 v -0.87352 h 0.82052 0.82052 v 0.87352 0.873516 h -0.02138 -0.02139 l -2.34e-4,-0.420954 -2.34e-4,-0.420951 -2.32e-4,0.420951 -2.31e-4,0.420954 h -0.798665 -0.798671 z"/><path style="fill:#fed849;fill-opacity:1;stroke:none;stroke-width:.000884209;stroke-linejoin:bevel;stroke-miterlimit:1.9" id="path45" d="m 19.516674,29.173212 v -0.87352 h 0.82052 0.82052 v 0.87352 0.873516 h -0.02138 -0.02139 l -2.34e-4,-0.375395 -2.35e-4,-0.375394 -2.31e-4,0.375394 -2.31e-4,0.375395 h -0.798665 -0.798671 z"/><path style="fill:#fed849;fill-opacity:1;stroke:none;stroke-width:.000884209;stroke-linejoin:bevel;stroke-miterlimit:1.9" id="path46" d="m 19.516674,29.173212 v -0.87352 h 0.82052 0.82052 v 0.87352 0.873516 h -0.02138 -0.02139 l -2.35e-4,-0.271725 -2.36e-4,-0.271725 -2.3e-4,0.271725 -2.31e-4,0.271725 h -0.798666 -0.79867 z m 1.597999,0.32101 c -2.23e-4,-0.0012 -4.05e-4,-4.75e-4 -4.29e-4,0.0017 -10e-6,0.0022 1.72e-4,0.003 4.05e-4,0.0022 2.32e-4,-9.51e-4 2.38e-4,-0.0026 1.9e-5,-0.0037 z m 0,-0.02326 c -2.23e-4,-0.0012 -4.05e-4,-4.75e-4 -4.29e-4,0.0017 -10e-6,0.0022 1.72e-4,0.003 4.05e-4,0.0022 2.32e-4,-9.52e-4 2.38e-4,-0.0026 1.9e-5,-0.0037 z"/><path style="fill:#fed849;fill-opacity:1;stroke:none;stroke-width:.000884209;stroke-linejoin:bevel;stroke-miterlimit:1.9" id="path47" d="m 19.516674,29.173212 v -0.87352 h 0.82052 0.82052 v 0.87352 0.873516 h -0.02137 -0.02138 l -2.37e-4,-0.190835 -2.37e-4,-0.190836 -2.3e-4,0.190836 -2.3e-4,0.190835 h -0.798672 -0.79867 z m 1.597957,0.471623 c -2.62e-4,-7.14e-4 -4.76e-4,-1.18e-4 -4.76e-4,0.0012 0,0.0012 2.1e-4,0.0019 4.76e-4,0.0012 2.62e-4,-7.14e-4 2.62e-4,-0.0017 0,-0.0024 z"/><path style="fill:#fed849;fill-opacity:1;stroke:none;stroke-width:.000884209;stroke-linejoin:bevel;stroke-miterlimit:1.9" id="path48" d="m 21.225022,29.699691 c 3.1e-4,-0.190871 7.86e-4,-0.417535 9.96e-4,-0.503701 2.62e-4,-0.08617 7.38e-4,-0.323085 9.96e-4,-0.526483 l 5.95e-4,-0.369817 0.341288,2.33e-4 0.34129,2.35e-4 0.01093,0.0781 c 0.006,0.04296 0.03395,0.242531 0.06207,0.4435 0.02813,0.20097 0.07585,0.541963 0.106056,0.757762 0.0302,0.215799 0.0572,0.408695 0.06,0.428664 0.0028,0.01997 0.0051,0.0368 0.0051,0.03742 0,9.52e-4 -0.102439,0.0012 -0.464984,0.0012 h -0.464986 z"/><path style="fill:#fed849;fill-opacity:1;stroke:none;stroke-width:.000884209;stroke-linejoin:bevel;stroke-miterlimit:1.9" id="path49" d="m 21.177461,29.448653 c 1.35e-4,-0.328939 3.57e-4,-0.722024 4.76e-4,-0.873517 l 2.36e-4,-0.275444 h 0.02431 0.02431 l -6.19e-4,0.17689 c -3.33e-4,0.09729 -8.34e-4,0.365583 -0.0011,0.596213 -2.62e-4,0.230631 -6.9e-4,0.426019 -9.04e-4,0.434202 -2.3e-4,0.0082 -5.24e-4,0.123868 -6.43e-4,0.257081 -1.22e-4,0.133211 -3.56e-4,0.251305 -5.23e-4,0.262428 l -2.86e-4,0.02023 h -0.02276 -0.02276 z"/><path style="fill:#fed849;fill-opacity:1;stroke:none;stroke-width:.000884209;stroke-linejoin:bevel;stroke-miterlimit:1.9" id="path50" d="m 21.17745,29.437497 c 1.2e-4,-0.335078 3.33e-4,-0.72816 4.99e-4,-0.873519 l 2.62e-4,-0.264286 h 0.02429 0.0243 l -6.19e-4,0.200599 c -3.34e-4,0.110327 -8.34e-4,0.3826 -0.0011,0.605047 -2.62e-4,0.222446 -6.9e-4,0.412606 -9.04e-4,0.422579 -2.31e-4,0.01 -5.24e-4,0.122728 -6.43e-4,0.250571 -1.2e-4,0.127844 -3.56e-4,0.240496 -5.23e-4,0.250341 l -3.09e-4,0.0179 h -0.02275 -0.02275 z"/><path style="fill:#fed849;fill-opacity:1;stroke:none;stroke-width:.000884209;stroke-linejoin:bevel;stroke-miterlimit:1.9" id="path51" d="m 21.177459,29.410535 c 1.36e-4,-0.349908 3.57e-4,-0.742991 4.99e-4,-0.87352 l 2.38e-4,-0.237323 h 0.02431 0.02431 l -6.18e-4,0.223842 c -3.35e-4,0.123114 -8.34e-4,0.401034 -0.0011,0.617598 -2.86e-4,0.216566 -6.91e-4,0.398779 -9.04e-4,0.404915 -2.26e-4,0.0062 -5e-4,0.115127 -6.2e-4,0.242205 -1.14e-4,0.127076 -3.56e-4,0.237218 -5.23e-4,0.244761 l -3.34e-4,0.01372 h -0.02275 -0.02275 z"/><path style="fill:#fed849;fill-opacity:1;stroke:none;stroke-width:.000884209;stroke-linejoin:bevel;stroke-miterlimit:1.9" id="path52" d="m 21.177461,29.391474 c 1.35e-4,-0.360389 3.57e-4,-0.753474 4.75e-4,-0.873517 l 2.37e-4,-0.218265 h 0.02425 0.02425 l -5.48e-4,0.335881 c -3.09e-4,0.184733 -7.62e-4,0.390476 -9.96e-4,0.457211 -2.62e-4,0.06674 -6.91e-4,0.297691 -9.52e-4,0.513232 -2.62e-4,0.215544 -7.38e-4,0.402881 -9.96e-4,0.416305 l -5.47e-4,0.02441 h -0.02269 -0.02269 z"/><path style="fill:#fed849;fill-opacity:1;stroke:none;stroke-width:.000884209;stroke-linejoin:bevel;stroke-miterlimit:1.9" id="path53" d="m 21.224932,29.162517 c 4.2e-5,-0.01048 3.8e-4,-0.02135 7.37e-4,-0.02417 3.82e-4,-0.003 6.19e-4,0.0027 5.72e-4,0.01395 -4.2e-5,0.01048 -3.81e-4,0.02138 -7.37e-4,0.02417 -3.83e-4,0.003 -6.2e-4,-0.0027 -5.72e-4,-0.01395 z"/><path style="fill:#fed849;fill-opacity:1;stroke:none;stroke-width:.000884209;stroke-linejoin:bevel;stroke-miterlimit:1.9" id="path54" d="m 21.177464,29.33894 c 1.33e-4,-0.38928 3.57e-4,-0.782364 4.75e-4,-0.873517 l 2.4e-4,-0.165731 h 0.02416 0.02416 l -2.6e-5,0.172602 c -1.4e-5,0.09494 1.94e-4,0.172826 4.52e-4,0.173095 4.04e-4,4.75e-4 7.14e-4,-0.200136 5e-4,-0.313388 l -6.7e-5,-0.03231 0.341467,2.33e-4 0.341468,2.35e-4 0.0021,0.01439 c 0.0011,0.008 0.0023,0.01631 0.0026,0.0186 2.62e-4,0.0024 0.0036,0.02615 0.0075,0.05299 0.0038,0.02685 0.0072,0.05091 0.0076,0.05346 3.32e-4,0.0026 0.0013,0.01011 0.0024,0.01673 9.53e-4,0.0066 0.002,0.01419 0.0023,0.01673 3.33e-4,0.0026 0.0022,0.01616 0.0042,0.03021 0.002,0.01407 0.0066,0.0467 0.01021,0.07252 0.0036,0.02582 0.0075,0.05281 0.0085,0.05996 9.96e-4,0.0071 0.0021,0.01468 0.0023,0.01673 2.39e-4,0.0022 0.0017,0.0125 0.0032,0.02325 0.0016,0.01074 0.003,0.02122 0.0033,0.02326 2.37e-4,0.0022 0.01321,0.09472 0.02883,0.205943 0.0156,0.111223 0.02859,0.204107 0.02884,0.206408 2.38e-4,0.0024 6.42e-4,0.0053 9.04e-4,0.0065 5.95e-4,0.0031 0.0052,0.03544 0.0056,0.03978 1.97e-4,0.0019 5.95e-4,0.0048 8.57e-4,0.0062 2.86e-4,0.0014 0.0034,0.02391 0.007,0.04974 0.0036,0.02582 0.0068,0.04838 0.007,0.05013 0.0012,0.0081 0.03589,0.256304 0.03625,0.259318 2.24e-4,0.0019 0.0017,0.01221 0.0032,0.02295 0.0016,0.01074 0.003,0.02122 0.0033,0.02326 2.38e-4,0.0022 0.0018,0.0125 0.0033,0.02325 0.0016,0.01074 0.003,0.02122 0.0033,0.02326 2.38e-4,0.0022 0.0047,0.03342 0.0098,0.06972 0.0052,0.03631 0.0095,0.06789 0.0098,0.07019 2.38e-4,0.0024 6.44e-4,0.0053 9.06e-4,0.0065 2.37e-4,0.0012 0.0018,0.01151 0.0033,0.02278 0.0016,0.01127 0.003,0.0217 0.0032,0.02326 4.52e-4,0.0032 0.0068,0.04885 0.0075,0.05299 5.48e-4,0.0039 0.0055,0.03938 0.0094,0.06695 0.0019,0.01279 0.0034,0.0245 0.0036,0.02604 2.11e-4,0.0014 0.0028,0.01952 0.0056,0.03998 0.0029,0.02045 0.0055,0.03887 0.0057,0.04091 2.38e-4,0.0022 6.66e-4,0.0055 9.52e-4,0.0077 l 5e-4,0.0039 -0.465128,10e-6 -0.465129,9e-6 6.2e-4,-0.308454 c 7.61e-4,-0.368802 8.08e-4,-0.551693 1.46e-4,-0.552346 -2.62e-4,-2.38e-4 -4.52e-4,0.04028 -4.28e-4,0.09009 3e-5,0.04981 -1.79e-4,0.177182 -4.76e-4,0.283038 -2.86e-4,0.105854 -5.24e-4,0.254175 -5.24e-4,0.3296 -6e-6,0.07543 -2.86e-4,0.141849 -5.96e-4,0.147602 l -5.94e-4,0.01048 h -0.02264 -0.02266 z m 0.04908,-0.436727 c 1.8e-5,-0.129536 -1.9e-4,-0.235743 -4.52e-4,-0.236012 -4.29e-4,-4.75e-4 -6.66e-4,0.161154 -5.47e-4,0.352668 1.8e-5,0.02965 3.8e-5,0.06874 4.1e-5,0.08686 4e-6,0.01811 2.16e-4,0.03272 4.78e-4,0.03247 2.61e-4,-2.38e-4 4.76e-4,-0.106443 5e-4,-0.235981 z m -3.1e-4,-0.240589 c -2.35e-4,-9.52e-4 -4.51e-4,-4.76e-4 -4.51e-4,0.0012 -2e-5,0.0014 1.73e-4,0.0024 4.28e-4,0.0017 2.62e-4,-7.14e-4 2.62e-4,-0.0019 3.5e-5,-0.0028 z m -2.8e-5,-0.0052 c -2.61e-4,-7.15e-4 -4.76e-4,-1.16e-4 -4.76e-4,0.0012 0,0.0012 2.11e-4,0.0019 4.76e-4,0.0012 2.62e-4,-7.13e-4 2.62e-4,-0.0017 0,-0.0024 z"/><path style="fill:#fed849;fill-opacity:1;stroke:none;stroke-width:.000884209;stroke-linejoin:bevel;stroke-miterlimit:1.9" id="path55" d="m 21.177466,29.349634 c 1.32e-4,-0.383403 3.57e-4,-0.776486 4.75e-4,-0.873519 l 2.39e-4,-0.176423 h 0.02417 0.02416 l 2.37e-4,0.165731 2.38e-4,0.165732 2.3e-4,-0.165732 2.29e-4,-0.165733 0.341445,2.33e-4 0.341446,2.35e-4 0.0058,0.04138 c 0.0032,0.02276 0.0086,0.06083 0.01186,0.08461 0.0033,0.02378 0.01674,0.11959 0.0298,0.212916 0.01306,0.09332 0.02624,0.187465 0.02928,0.209199 0.0031,0.02172 0.01727,0.123404 0.03161,0.225933 0.01434,0.102534 0.02898,0.207129 0.03254,0.232442 0.0035,0.02532 0.01653,0.11799 0.02884,0.205946 0.0437,0.312481 0.04754,0.339873 0.05392,0.385388 0.01779,0.126812 0.02045,0.145967 0.02045,0.147309 0,0.0014 -0.04408,0.0014 -0.464979,0.0014 h -0.464977 l 6.66e-4,-0.427462 c 3.81e-4,-0.235105 4.52e-4,-0.427251 1.96e-4,-0.426997 -2.62e-4,2.39e-4 -7.38e-4,0.186442 -9.96e-4,0.413746 -3.09e-4,0.227305 -8.31e-4,0.419455 -0.0011,0.426998 l -5.46e-4,0.01371 h -0.02269 -0.02269 z m 0.04882,-0.557396 c -1.32e-4,-0.06251 -2.38e-4,-0.01138 -2.38e-4,0.113664 0,0.125029 1.08e-4,0.176178 2.38e-4,0.113665 1.32e-4,-0.06251 1.32e-4,-0.164813 0,-0.227329 z"/><path style="fill:#fed849;fill-opacity:1;stroke:none;stroke-width:.000884209;stroke-linejoin:bevel;stroke-miterlimit:1.9" id="path56" d="m 21.177463,29.326853 c 1.33e-4,-0.395928 3.57e-4,-0.789011 4.75e-4,-0.873516 l 2.39e-4,-0.153645 h 0.02416 0.02416 l 2.38e-4,0.132725 2.38e-4,0.132726 2.29e-4,-0.132726 2.29e-4,-0.132725 h 0.341254 c 0.272171,0 0.341335,2.35e-4 0.341653,0.0012 2.21e-4,7.13e-4 0.0074,0.05095 0.01582,0.111804 0.0085,0.06085 0.01748,0.125286 0.02,0.143184 0.0064,0.04571 0.01752,0.124947 0.02642,0.188741 0.0056,0.03984 0.03558,0.2543 0.04236,0.302641 0.0035,0.02532 0.02238,0.159827 0.04183,0.298922 0.01946,0.139092 0.03828,0.273607 0.04184,0.29892 0.02762,0.196774 0.05579,0.398751 0.05579,0.40007 0,0.0014 -0.02685,0.0017 -0.464885,0.0017 H 21.224629 V 29.8431 c 0,-0.112077 -2.07e-4,-0.203567 -4.52e-4,-0.203315 -2.61e-4,2.38e-4 -5.23e-4,0.08934 -5.96e-4,0.197964 -7.3e-5,0.108626 -3.32e-4,0.200119 -5.47e-4,0.203313 l -4.04e-4,0.0058 h -0.02271 -0.02271 z m 0.0469,0.30729 c -2.34e-4,-9.52e-4 -4.29e-4,-1.64e-4 -4.29e-4,0.0017 0,0.0019 1.92e-4,0.0025 4.29e-4,0.0017 2.34e-4,-9.52e-4 2.34e-4,-0.0024 0,-0.0033 z m 9.29e-4,-0.0088 c -2.86e-4,-7.14e-4 -5.24e-4,-4.77e-4 -5.72e-4,4.76e-4 -4e-5,9.52e-4 1.79e-4,0.0014 5e-4,0.0012 3.1e-4,-2.38e-4 3.33e-4,-0.0012 7.4e-5,-0.0017 z m 6.1e-5,-0.309206 c -1.32e-4,-0.05561 -2.37e-4,-0.01011 -2.37e-4,0.10111 0,0.111222 1.08e-4,0.156722 2.37e-4,0.10111 1.33e-4,-0.05561 1.33e-4,-0.146614 0,-0.202226 z m 9.3e-4,-0.477436 c -1.36e-4,-0.03644 -2.39e-4,-0.0066 -2.39e-4,0.06625 0,0.07286 1.1e-4,0.102677 2.39e-4,0.06625 1.33e-4,-0.03644 1.33e-4,-0.09606 0,-0.132492 z"/><path style="fill:#fed849;fill-opacity:1;stroke:none;stroke-width:.000884209;stroke-linejoin:bevel;stroke-miterlimit:1.9" id="path57" d="m 21.177453,29.298962 c 1.38e-4,-0.411273 3.58e-4,-0.804356 5e-4,-0.87352 l 2.38e-4,-0.12575 h 0.02415 0.02416 l 2.39e-4,0.102038 2.38e-4,0.102048 2.28e-4,-0.102048 2.27e-4,-0.102038 h 0.341255 c 0.272165,0 0.341338,2.35e-4 0.341664,0.0012 2.27e-4,7.13e-4 0.0055,0.03714 0.01157,0.08113 0.0097,0.06946 0.01863,0.133368 0.04377,0.312866 0.03523,0.251638 0.146415,1.04612 0.166472,1.189639 0.01021,0.07312 0.0194,0.138743 0.02043,0.145814 9.96e-4,0.0071 0.0019,0.01367 0.0019,0.01464 0,0.0017 -0.0071,0.0019 -0.464883,0.0019 h -0.464937 l -2.19e-4,-0.189904 -2.18e-4,-0.189908 -5e-4,0.189674 c -2.86e-4,0.10432 -5.96e-4,0.189776 -7.14e-4,0.189905 -1.14e-4,1.28e-4 -0.01047,2.33e-4 -0.02301,2.33e-4 h -0.0228 z m 0.0479,0.05764 c -1.35e-4,-0.02979 -2.38e-4,-0.0055 -2.38e-4,0.05416 0,0.05957 1.12e-4,0.08395 2.38e-4,0.05416 1.37e-4,-0.02979 1.37e-4,-0.07853 0,-0.108318 z m 9.29e-4,-0.479694 c -1.42e-4,-0.01704 -2.62e-4,-0.0034 -2.62e-4,0.03038 0,0.03375 1.16e-4,0.04769 2.62e-4,0.03098 1.42e-4,-0.0167 1.42e-4,-0.04432 0,-0.06137 z m -6.2e-5,-0.03441 c -2.86e-4,-7.14e-4 -5.23e-4,-4.76e-4 -5.72e-4,4.75e-4 -4e-5,9.53e-4 1.8e-4,0.0015 5.01e-4,0.0012 3.09e-4,-2.37e-4 3.33e-4,-0.0012 7.3e-5,-0.0017 z"/><path style="fill:#fed849;fill-opacity:1;stroke:none;stroke-width:.000884209;stroke-linejoin:bevel;stroke-miterlimit:1.9" id="path58" d="m 21.177461,29.29013 c 1.31e-4,-0.416132 3.57e-4,-0.809214 4.76e-4,-0.87352 l 2.38e-4,-0.116918 h 0.02416 0.02416 l 2.38e-4,0.07601 2.38e-4,0.07601 2.27e-4,-0.07601 2.26e-4,-0.07601 0.341458,2.33e-4 0.341456,2.35e-4 0.0039,0.02743 c 0.0022,0.01509 0.0092,0.06487 0.01555,0.110642 0.01537,0.10995 0.04456,0.318698 0.0521,0.372373 0.0057,0.04075 0.05799,0.414315 0.127446,0.910708 0.01763,0.126053 0.03457,0.247179 0.03764,0.269168 0.0031,0.02199 0.006,0.04277 0.0065,0.0462 5e-4,0.0034 9.29e-4,0.0071 9.29e-4,0.0082 v 0.0019 h -0.464904 -0.464884 v -0.161935 c 0,-0.08907 -2.07e-4,-0.161728 -4.52e-4,-0.161476 -2.61e-4,2.38e-4 -5.23e-4,0.07093 -5.72e-4,0.157054 -6.6e-5,0.08613 -3.09e-4,0.15879 -5.71e-4,0.161475 l -4.28e-4,0.0049 h -0.0227 -0.0227 z m 0.04689,0.428215 c -2.85e-4,-7.13e-4 -5.22e-4,-4.75e-4 -5.71e-4,4.76e-4 -3.9e-5,9.52e-4 1.8e-4,0.0014 5.01e-4,0.0012 3.09e-4,-2.38e-4 3.32e-4,-0.0012 7.3e-5,-0.0017 z m 9.3e-4,-0.268704 c -2.86e-4,-7.14e-4 -5.24e-4,-4.76e-4 -5.71e-4,4.77e-4 -4.1e-5,9.52e-4 1.79e-4,0.0014 4.99e-4,0.0012 3.09e-4,-2.38e-4 3.33e-4,-0.0012 7.3e-5,-0.0017 z m 6e-5,-0.05811 c -1.51e-4,-0.0096 -2.85e-4,-0.0019 -2.85e-4,0.0169 -10e-7,0.01892 1.23e-4,0.02679 2.85e-4,0.01749 1.53e-4,-0.0093 1.53e-4,-0.02478 0,-0.0344 z m -6e-5,-0.01999 c -2.86e-4,-7.14e-4 -5.24e-4,-4.77e-4 -5.71e-4,4.76e-4 -4.1e-5,9.52e-4 1.79e-4,0.0014 4.99e-4,0.0012 3.09e-4,-2.38e-4 3.33e-4,-0.0012 7.3e-5,-0.0017 z m 9.28e-4,-0.464885 c -2.86e-4,-7.15e-4 -5.24e-4,-4.77e-4 -5.72e-4,4.75e-4 -4e-5,9.52e-4 1.8e-4,0.0014 5e-4,0.0012 3.1e-4,-2.38e-4 3.34e-4,-0.0012 7.4e-5,-0.0017 z m 0,-0.0047 c -2.86e-4,-7.14e-4 -5.24e-4,-4.76e-4 -5.72e-4,4.75e-4 -4e-5,9.54e-4 1.8e-4,0.0015 5e-4,0.0012 3.1e-4,-2.38e-4 3.34e-4,-0.0012 7.4e-5,-0.0017 z"/><path style="fill:#fed849;fill-opacity:1;stroke:none;stroke-width:.000884209;stroke-linejoin:bevel;stroke-miterlimit:1.9" id="path59" d="m 21.177464,29.277111 c 1.33e-4,-0.423289 3.57e-4,-0.816372 4.75e-4,-0.873515 l 2.4e-4,-0.103904 h 0.02416 0.02416 l 2.38e-4,0.05509 2.38e-4,0.05508 2.25e-4,-0.05508 2.24e-4,-0.05509 0.341436,2.33e-4 0.341437,2.35e-4 6.89e-4,0.0042 c 3.8e-4,0.0024 0.0097,0.06841 0.02068,0.146904 0.02073,0.148054 0.121567,0.8686 0.167007,1.193357 0.01431,0.102275 0.03021,0.215871 0.03533,0.252433 0.0162,0.115695 0.01941,0.138863 0.02005,0.144348 l 6.19e-4,0.0054 h -0.465027 -0.465012 l -2.2e-4,-0.153181 -2.2e-4,-0.153177 -5e-4,0.152947 c -2.86e-4,0.08412 -5.95e-4,0.153049 -7.14e-4,0.153178 -1.17e-4,1.29e-4 -0.01047,2.33e-4 -0.023,2.33e-4 h -0.02279 z"/><path style="fill:#fed849;fill-opacity:1;stroke:none;stroke-width:.000884209;stroke-linejoin:bevel;stroke-miterlimit:1.9" id="path60" d="m 21.177462,29.265025 c 1.29e-4,-0.429936 3.34e-4,-0.82302 4.76e-4,-0.873517 l 2.39e-4,-0.09182 h 0.02415 0.02416 l 2.62e-4,0.03742 2.62e-4,0.03742 2.2e-4,-0.03742 2.22e-4,-0.03742 h 0.341689 c 0.272731,0 0.341692,2.35e-4 0.341695,0.0012 3e-6,7.13e-4 0.0021,0.01602 0.0047,0.03417 0.0026,0.01816 0.05401,0.385925 0.114376,0.817265 0.06036,0.431344 0.113099,0.808124 0.117179,0.837291 0.0041,0.02916 0.0075,0.05396 0.0075,0.05508 v 0.0022 H 21.68966 21.224775 l -2.18e-4,-0.131331 -2.18e-4,-0.13133 -5.01e-4,0.131097 c -2.85e-4,0.07211 -5.94e-4,0.131202 -7.13e-4,0.131331 -1.15e-4,1.28e-4 -0.01046,2.33e-4 -0.023,2.33e-4 h -0.02279 z m 0.0469,0.516543 c -2.85e-4,-7.13e-4 -5.22e-4,-4.76e-4 -5.71e-4,4.76e-4 -3.9e-5,9.53e-4 1.8e-4,0.0015 5.01e-4,0.0012 3.09e-4,-2.38e-4 3.32e-4,-0.0012 7.3e-5,-0.0017 z"/><path style="fill:#fed849;fill-opacity:1;stroke:none;stroke-width:.00125046;stroke-linejoin:bevel;stroke-miterlimit:1.9" id="path61" d="m 21.17778,27.613684 c 0,-0.250466 4.04e-4,-0.593949 8.81e-4,-0.763295 l 8.8e-4,-0.307904 h 0.02564 0.02564 l -8.81e-4,0.283687 c -4.76e-4,0.15603 -0.0012,0.49759 -0.0016,0.759022 -4.05e-4,0.261433 -9.96e-4,0.477255 -0.0013,0.479608 l -6.43e-4,0.0042 h -0.02426 -0.02426 z"/><path style="fill:#fed849;fill-opacity:1;stroke:none;stroke-width:.00125046;stroke-linejoin:bevel;stroke-miterlimit:1.9" id="path62" d="m 21.114665,27.305779 v -0.763294 h 0.0217 0.02169 v 0.763294 0.763295 h -0.02169 -0.0217 z"/><path style="fill:#fed849;fill-opacity:1;stroke:none;stroke-width:.00125046;stroke-linejoin:bevel;stroke-miterlimit:1.9" id="path63" d="m 21.179095,25.806147 v -0.736339 h 0.02968 0.02968 l -7.85e-4,0.0641 c -0.0012,0.10635 -0.006,1.087389 -0.006,1.258801 -7e-6,0.0648 -4.04e-4,0.125 -8.8e-4,0.133789 l -8.57e-4,0.016 h -0.02544 -0.02544 z"/><path style="fill:#fed849;fill-opacity:1;stroke:none;stroke-width:.00125046;stroke-linejoin:bevel;stroke-miterlimit:1.9" id="path64" d="m 21.114665,25.806147 v -0.736339 h 0.0217 0.02169 v 0.736339 0.736338 h -0.02169 -0.0217 z"/><path style="fill:#fed849;fill-opacity:1;stroke:none;stroke-width:.00125046;stroke-linejoin:bevel;stroke-miterlimit:1.9" id="path65" d="m 21.598023,26.064195 c -4.04e-4,-0.0019 -0.03421,-0.242072 -0.07511,-0.533519 -0.152693,-1.087723 -0.260738,-1.851677 -0.264415,-1.869575 -4.27e-4,-0.0021 -0.0012,-0.0032 -0.0019,-0.0027 -0.0059,0.006 -0.01207,0.447892 -0.01785,1.282148 l -9.04e-4,0.129189 h -0.0296 -0.0296 l 8.81e-4,-0.400603 c 4.76e-4,-0.220333 8.81e-4,-0.551685 8.81e-4,-0.73634 V 23.59707 h 0.05062 c 0.03225,0 0.05062,4.77e-4 0.05062,0.0012 0,0.002 0.343116,2.461601 0.34397,2.465772 l 7.38e-4,0.0036 h -0.01381 -0.01381 z"/><path style="fill:#fed849;fill-opacity:1;stroke:none;stroke-width:.00125046;stroke-linejoin:bevel;stroke-miterlimit:1.9" id="path66" d="m 21.114665,24.333468 v -0.736339 h 0.0217 0.02169 v 0.736339 0.73634 h -0.02169 -0.0217 z"/><path style="fill:#fed849;fill-opacity:1;stroke:none;stroke-width:.00125046;stroke-linejoin:bevel;stroke-miterlimit:1.9" id="path67" d="m 21.180562,23.237837 c 8.5e-5,-0.197612 3.82e-4,-0.358408 6.44e-4,-0.357323 2.61e-4,0.0011 0.02269,0.161436 0.04981,0.356336 0.02713,0.194899 0.04963,0.355694 0.05,0.357321 l 6.9e-4,0.003 h -0.05065 -0.05065 z"/><path style="fill:#fed849;fill-opacity:1;stroke:none;stroke-width:.00125046;stroke-linejoin:bevel;stroke-miterlimit:1.9" id="path68" d="m 21.114665,22.860791 v -0.736339 h 0.0217 0.02169 v 0.736339 0.736338 h -0.02169 -0.0217 z"/><path style="fill:#fed849;fill-opacity:1;stroke:none;stroke-width:.00125046;stroke-linejoin:bevel;stroke-miterlimit:1.9" id="path69" d="m 21.114665,21.335517 v -0.788934 h 0.0217 0.02169 v 0.788934 0.788935 h -0.02169 -0.0217 z"/><path style="fill:#fed849;fill-opacity:1;stroke:none;stroke-width:.00125046;stroke-linejoin:bevel;stroke-miterlimit:1.9" id="path70" d="m 21.114665,19.757649 v -0.788934 h 0.0217 0.02169 v 0.788934 0.788934 h -0.02169 -0.0217 z"/><path style="fill:#fed849;fill-opacity:1;stroke:none;stroke-width:.00125046;stroke-linejoin:bevel;stroke-miterlimit:1.9" id="path71" d="M 21.114665,17.969396 V 16.97008 h 0.0217 0.02169 v 0.999316 0.999319 h -0.02169 -0.0217 z"/><path style="fill:#fed849;fill-opacity:1;stroke:none;stroke-width:.00125046;stroke-linejoin:bevel;stroke-miterlimit:1.9" id="path72" d="m 21.114665,16.023358 v -0.946721 h 0.0217 0.02169 v 0.946721 0.946722 h -0.02169 -0.0217 z"/><path style="fill:#fed849;fill-opacity:1;stroke:none;stroke-width:.00176842;stroke-linejoin:bevel;stroke-miterlimit:1.9" id="path73" d="M 21.115874,10.261723 V 8.5146888 h 0.02046 0.02046 v 1.7470342 1.747035 h -0.02046 -0.02046 z"/><path style="fill:#fed849;fill-opacity:1;stroke:none;stroke-width:.00176842;stroke-linejoin:bevel;stroke-miterlimit:1.9" id="path74" d="m 21.115874,12.910634 v -0.901876 h 0.02046 0.02046 v 0.901876 0.901874 h -0.02046 -0.02046 z"/><path style="fill:#fed849;fill-opacity:1;stroke:none;stroke-width:.00176842;stroke-linejoin:bevel;stroke-miterlimit:1.9" id="path75" d="M 21.115874,8.3845212 V 8.2543536 l 1.041806,4.522e-4 1.041806,4.523e-4 -1.021351,4.76e-4 -1.02135,4.761e-4 v 0.1292362 0.1292358 h -0.02046 -0.02046 z"/><path style="fill:#fed849;fill-opacity:1;stroke:none;stroke-width:.00176842;stroke-linejoin:bevel;stroke-miterlimit:1.9" id="path76" d="m 17.638542,5.829916 c 0,-0.011654 7.13e-4,-0.017018 0.0024,-0.017663 0.0012,-4.998e-4 0.03161,-0.012849 0.06741,-0.027418 0.466616,-0.1899322 1.002835,-0.380881 1.497816,-0.5333901 1.291645,-0.3979701 2.582622,-0.6385334 3.867836,-0.7207402 0.03937,-0.00252 0.08355,-0.00516 0.09817,-0.00586 l 0.02658,-0.00129 -5.47e-4,0.016552 -5.48e-4,0.016552 -0.05486,0.00318 c -1.178603,0.068304 -2.38395,0.2750645 -3.562872,0.6111612 -0.627044,0.1787631 -1.276712,0.4034456 -1.874413,0.6482515 -0.03425,0.014034 -0.06334,0.025938 -0.06461,0.026454 -0.0018,7.141e-4 -0.0024,-0.00315 -0.0024,-0.015795 z"/><path style="fill:#fed849;fill-opacity:1;stroke:none;stroke-width:.00250093;stroke-linejoin:bevel;stroke-miterlimit:1.9" id="path77" d="m 27.018526,4.813088 c -0.39393,-0.077572 -0.892252,-0.15124 -1.331986,-0.1969118 -0.391137,-0.040626 -0.732816,-0.063259 -1.182087,-0.07831 -0.135207,-0.00452 -0.731359,-0.00456 -0.870457,-3.65e-5 -0.165196,0.00536 -0.390641,0.014919 -0.420107,0.017804 l -0.01512,0.00147 v -0.01684 -0.016839 l 0.03221,-0.00171 c 0.622254,-0.033146 1.237326,-0.028454 1.866489,0.014239 0.620719,0.04212 1.286229,0.128072 1.902386,0.2456969 0.04181,0.00798 0.07701,0.01451 0.07824,0.01451 0.0012,0 0.0022,0.0065 0.0022,0.014465 0,0.00795 -9.53e-4,0.014326 -0.0019,0.014159 -0.0012,-1.675e-4 -0.02801,-0.00544 -0.05983,-0.011696 z"/><path style="fill:#fed849;fill-opacity:1;stroke:none;stroke-width:.00500185;stroke-linejoin:bevel;stroke-miterlimit:1.9" id="path78" d="M 36.260894,9.4664906 C 35.888568,9.1337709 35.349575,8.702032 34.843441,8.3310943 33.551264,7.384079 32.200894,6.6032784 30.801466,5.9939738 29.628451,5.4832479 28.37236,5.0831912 27.20787,4.8494349 27.086585,4.825088 27.080325,4.8232493 27.080325,4.8119688 c 0,-0.00652 0.0022,-0.011863 0.0047,-0.011863 0.0099,0 0.273698,0.054683 0.421359,0.087356 1.627714,0.3601803 3.25231,0.9714998 4.817759,1.8128755 0.521806,0.2804527 1.076476,0.6102779 1.543681,0.9179253 0.06365,0.041907 0.14293,0.094061 0.176195,0.1158984 0.167353,0.1098569 0.492979,0.336616 0.710043,0.4944568 0.493647,0.3589619 0.937772,0.7101831 1.414822,1.1188627 0.181834,0.1557729 0.169467,0.1435269 0.167422,0.1657973 l -0.0017,0.01901 z"/><path style="fill:#fed849;fill-opacity:1;stroke:none;stroke-width:.0100037;stroke-linejoin:bevel;stroke-miterlimit:1.9" id="path79" d="M 14.304845,14.340113 V 7.6096582 L 14.475781,7.5010086 C 15.915425,6.5859495 17.512462,5.8289419 19.016742,5.3485622 19.960157,5.0472889 20.774131,4.8587044 21.8418,4.694041 21.87651,4.688691 21.89336,4.68374 21.87923,4.683036 21.81269,4.679746 21.129823,4.797809 20.721972,4.8831145 19.784644,5.079164 18.683197,5.4157432 17.803401,5.7749693 c -0.141208,0.057655 -0.186621,0.070299 -0.158032,0.043999 0.02878,-0.026471 0.772558,-0.3032814 1.177441,-0.438204 1.365946,-0.4551855 2.820746,-0.7495906 4.128758,-0.8355285 0.09546,-0.00627 0.188949,-0.012669 0.207753,-0.014217 0.02049,-0.00169 0.03419,0.00207 0.03419,0.00935 0,0.00808 -0.03979,0.014525 -0.11834,0.01917 -0.295258,0.017466 -0.955172,0.082841 -1.117658,0.1107239 -0.104367,0.017909 -0.0063,0.010695 0.194604,-0.014321 0.447342,-0.055695 0.977152,-0.096245 1.45164,-0.1111027 l 0.278757,-0.00873 -0.322752,0.0045 c -0.177515,0.00248 -0.330173,0.00735 -0.339242,0.010837 -0.01031,0.00396 -0.01648,5.951e-4 -0.01648,-0.00894 0,-0.012317 0.02897,-0.016574 0.149897,-0.022005 0.992941,-0.044614 2.032164,0.011086 3.03214,0.1625205 0.241522,0.036575 0.680996,0.1134519 0.687873,0.1203283 0.01428,0.014294 -0.01712,0.012506 -0.115262,-0.00655 -0.765538,-0.1487041 -1.915802,-0.267025 -2.533342,-0.26059 -0.145566,0.00152 -0.134385,0.00257 0.09884,0.00932 1.71567,0.049656 3.418234,0.3844969 5.170149,1.0168088 2.043805,0.7376609 4.053768,1.880685 5.895973,3.3529125 0.613599,0.4903693 1.146119,0.9781449 1.919999,1.7586759 0.687611,0.693526 1.045133,1.088938 1.510895,1.671023 1.998296,2.49737 3.384466,5.28523 4.001165,8.047132 0.03533,0.158222 0.136454,0.654271 0.136454,0.669353 0,0.0052 -3.534106,0.0092 -8.115508,0.0092 H 26.927797 V 14.659213 8.2478045 h -2.90854 -2.908538 v 6.4114085 6.411408 H 17.70778 14.304843 Z"/><path style="fill:#fed849;fill-opacity:1;stroke:none;stroke-width:.0100037;stroke-linejoin:bevel;stroke-miterlimit:1.9" id="path80"/><path style="fill:#fed849;fill-opacity:1;stroke:none;stroke-width:.000884209;stroke-linejoin:bevel;stroke-miterlimit:1.9" id="path81" d="m 38.530847,11.745406 c -0.223511,-0.254885 -0.527694,-0.581425 -0.833412,-0.894675 -0.132171,-0.135424 -0.392418,-0.396544 -0.501324,-0.503004 l -0.03662,-0.0358 0.03382,-2.38e-4 0.03382,-2.38e-4 0.03499,0.03419 c 0.08879,0.08673 0.284055,0.282556 0.380408,0.381479 0.303548,0.311648 0.594217,0.627658 0.879372,0.956033 l 0.02808,0.03234 v 0.02554 c 0,0.01404 -1.3e-4,0.02554 -2.39e-4,0.02554 -1.55e-4,0 -0.0087,-0.0095 -0.01883,-0.02115 z"/><path style="fill:#fed849;fill-opacity:1;stroke:none;stroke-width:.000884209;stroke-linejoin:bevel;stroke-miterlimit:1.9" id="path82" d="m 37.138108,10.291197 c -0.0488,-0.04827 -0.185535,-0.18027 -0.276618,-0.267034 C 36.569857,9.7463569 36.296521,9.4973004 36.05651,9.290687 36.0349,9.27208 36.0174,9.256657 36.01765,9.256414 c 9.51e-4,-8.807e-4 0.127795,0.1084485 0.197654,0.1702849 0.02959,0.0262 0.112026,0.09954 0.116444,0.1036059 0.0014,0.00128 0.0027,0.00216 0.0029,0.00195 4.76e-4,-4.76e-4 0.0027,-0.024043 0.0027,-0.028776 5.5e-5,-0.010873 -0.01127,-0.021786 -0.113671,-0.1096485 -0.109829,-0.094228 -0.194536,-0.1661065 -0.273352,-0.2319559 -0.05095,-0.042572 -0.04648,-0.038649 -0.04409,-0.038649 0.0019,0 0.01,0.00654 0.07848,0.064058 0.390269,0.3276432 0.766385,0.6657977 1.137572,1.0227626 0.03834,0.03688 0.05559,0.05358 0.08529,0.08259 l 0.01928,0.01883 -0.03415,-1.7e-5 -0.03415,-1.8e-5 z"/><path style="fill:#fed849;fill-opacity:1;stroke:none;stroke-width:.000884209;stroke-linejoin:bevel;stroke-miterlimit:1.9" id="path83" d="m 21.114945,30.660373 v -0.399801 h 0.02139 0.02139 v 0.399801 0.399802 h -0.02139 -0.02139 z"/><path style="fill:#fed849;fill-opacity:1;stroke:none;stroke-width:.000884209;stroke-linejoin:bevel;stroke-miterlimit:1.9" id="path84" d="m 21.17631,30.660373 v -0.399801 h 0.02348 0.02347 l -2.03e-4,0.130867 c -1.11e-4,0.07198 -4.76e-4,0.251886 -8.09e-4,0.399801 l -6.19e-4,0.268935 h -0.02267 -0.02267 z"/><path style="fill:#fed849;fill-opacity:1;stroke:none;stroke-width:.000884209;stroke-linejoin:bevel;stroke-miterlimit:1.9" id="path85" d="m 21.114945,31.618036 v -0.557861 h 0.02139 0.02139 v 0.557861 0.557861 h -0.02139 -0.02139 z"/><path style="fill:#fed849;fill-opacity:1;stroke:none;stroke-width:.000884209;stroke-linejoin:bevel;stroke-miterlimit:1.9" id="path86" d="m 21.175381,31.856676 c 0,-0.175572 2.85e-4,-0.42661 6.18e-4,-0.557862 l 6.19e-4,-0.238639 h 0.02276 0.02276 l -5.95e-4,0.226164 c -3.33e-4,0.124393 -8.56e-4,0.375431 -0.0012,0.557862 l -5.96e-4,0.331696 h -0.02218 -0.02218 z"/><path style="fill:#fed849;fill-opacity:1;stroke:none;stroke-width:.000884209;stroke-linejoin:bevel;stroke-miterlimit:1.9" id="path87" d="m 21.114945,32.244699 v -0.0688 h 0.02139 0.02139 v 0.05161 0.0516 h 0.70244 0.702439 v 0.01721 0.01721 H 21.83878 21.114955 Z"/><path style="fill:#fed849;fill-opacity:1;stroke:none;stroke-width:.000884209;stroke-linejoin:bevel;stroke-miterlimit:1.9" id="path88" d="M 21.175381,32.22099 V 32.1759 h 0.02231 0.02231 v 0.04276 0.04276 h 0.62248 0.622479 v -0.0022 c 0,-0.0012 -0.02468,-0.178551 -0.05486,-0.394107 -0.03017,-0.215559 -0.05486,-0.392602 -0.05486,-0.393432 0,-0.0014 0.0016,-0.0014 0.01233,-0.0014 h 0.01233 l 0.05517,0.395847 c 0.03034,0.217717 0.05538,0.396789 0.05564,0.397942 l 4.77e-4,0.0022 h -0.657913 -0.657911 z"/><path id="path89" d="m 26.613595,31.470204 -4.76e-4,0.0042 c -2.37e-4,0.0025 -0.01829,0.182676 -0.03998,0.400265 -0.02172,0.217589 -0.03974,0.397372 -0.03998,0.399802 l -4.76e-4,0.0047 h -0.869332 -0.869333 -1.115722 -1.115722 v 0.01721 0.01721 h 1.115722 1.115722 0.873982 0.874447 l 0.01439,-0.108783 c 0.0082,-0.0597 0.01602,-0.116067 0.01721,-0.125518 0.008,-0.06186 0.02811,-0.248652 0.05532,-0.509046 l 0.01069,-0.09995 h -0.01347 z" style="fill:#fed849;fill-opacity:1;stroke:none;stroke-width:.000884209;stroke-linejoin:bevel;stroke-miterlimit:1.9"/><path style="fill:#fed849;fill-opacity:1;stroke:none;stroke-width:.000884209;stroke-linejoin:bevel;stroke-miterlimit:1.9" id="path90" d="m 26.613987,31.465786 c 2.39e-4,-0.0025 0.02859,-0.284951 0.06283,-0.627825 0.03425,-0.342875 0.06252,-0.625396 0.06283,-0.627827 l 4.77e-4,-0.0045 h 0.01385 c 0.0077,0 0.01384,4.75e-4 0.01384,7.13e-4 0,0.0066 -0.08138,0.813429 -0.112993,1.120183 -0.008,0.0768 -0.01437,0.140492 -0.01437,0.141559 0,0.0019 -4.76e-4,0.0019 -0.01357,0.0019 h -0.01358 z"/><path style="fill:#fed849;fill-opacity:1;stroke:none;stroke-width:.000884209;stroke-linejoin:bevel;stroke-miterlimit:1.9" id="path91" d="m 26.740436,30.2013 c 2.37e-4,-0.0025 0.03193,-0.318421 0.07026,-0.702205 0.03833,-0.383787 0.06995,-0.699779 0.07026,-0.702208 l 4.75e-4,-0.0045 h 0.01348 0.01347 l -4.76e-4,0.0045 c -2.38e-4,0.0025 -0.03172,0.31863 -0.06979,0.702671 -0.03807,0.384042 -0.06947,0.700034 -0.06977,0.702207 l -4.75e-4,0.0039 H 26.7539 26.73992 Z"/><path style="fill:#fed849;fill-opacity:1;stroke:none;stroke-width:.000884209;stroke-linejoin:bevel;stroke-miterlimit:1.9" id="path92" d="m 26.881758,28.788053 c 2.38e-4,-0.0025 0.0058,-0.0568 0.01216,-0.120828 l 0.01161,-0.116412 v -0.36265 -0.362652 h 0.0065 0.0065 v 0.431849 0.431848 l -0.0052,0.05137 c -0.0028,0.02826 -0.0052,0.05149 -0.0052,0.05164 0,1.47e-4 -0.0061,2.39e-4 -0.01357,2.39e-4 h -0.01357 z"/><path style="fill:#fed849;fill-opacity:1;stroke:none;stroke-width:.000884209;stroke-linejoin:bevel;stroke-miterlimit:1.9" id="path93" d="m 26.905542,27.156079 v -0.669434 h 0.0065 0.0065 v 0.669434 0.669432 h -0.0065 -0.0065 z"/><path style="fill:#fed849;fill-opacity:1;stroke:none;stroke-width:.000884209;stroke-linejoin:bevel;stroke-miterlimit:1.9" id="path94" d="m 26.905542,25.891594 v -0.595052 h 0.0065 0.0065 v 0.595052 0.595051 h -0.0065 -0.0065 z"/><path style="fill:#fed849;fill-opacity:1;stroke:none;stroke-width:.000884209;stroke-linejoin:bevel;stroke-miterlimit:1.9" id="path95" d="m 26.905542,24.70149 v -0.595051 h 0.0065 0.0065 v 0.595051 0.595052 h -0.0065 -0.0065 z"/><path style="fill:#fed849;fill-opacity:1;stroke:none;stroke-width:.000884209;stroke-linejoin:bevel;stroke-miterlimit:1.9" id="path96" d="m 26.905542,23.474196 v -0.632244 h 0.0065 0.0065 v 0.632244 0.632243 h -0.0065 -0.0065 z"/><path style="fill:#fed849;fill-opacity:1;stroke:none;stroke-width:.000884209;stroke-linejoin:bevel;stroke-miterlimit:1.9" id="path97" d="m 26.905542,22.209711 v -0.632242 h 0.0065 0.0065 v 0.632242 0.632241 h -0.0065 -0.0065 z"/><path style="fill:#fed849;fill-opacity:1;stroke:none;stroke-width:.000884209;stroke-linejoin:bevel;stroke-miterlimit:1.9" id="path98" d="m 26.905542,20.908035 v -0.669433 h 0.0065 0.0065 v 0.669433 0.669434 h -0.0065 -0.0065 z"/><path style="fill:#fed849;fill-opacity:1;stroke:none;stroke-width:.000884209;stroke-linejoin:bevel;stroke-miterlimit:1.9" id="path99" d="m 26.905542,19.606359 v -0.632243 h 0.0065 0.0065 v 0.632243 0.632243 h -0.0065 -0.0065 z"/><path style="fill:#fed849;fill-opacity:1;stroke:none;stroke-width:.000884209;stroke-linejoin:bevel;stroke-miterlimit:1.9" id="path100" d="m 26.905542,18.416256 v -0.557861 h 0.0065 0.0065 v 0.557861 0.55786 h -0.0065 -0.0065 z"/><path style="fill:#fed849;fill-opacity:1;stroke:none;stroke-width:.000884209;stroke-linejoin:bevel;stroke-miterlimit:1.9" id="path101" d="M 26.905542,17.226153 V 16.59391 h 0.0065 0.0065 v 0.632243 0.632242 h -0.0065 -0.0065 z"/><path style="fill:#fed849;fill-opacity:1;stroke:none;stroke-width:.000884209;stroke-linejoin:bevel;stroke-miterlimit:1.9" id="path102" d="m 26.905542,15.961667 v -0.632241 h 0.0065 0.0065 v 0.632241 0.632243 h -0.0065 -0.0065 z"/><path style="fill:#fed849;fill-opacity:1;stroke:none;stroke-width:.000884209;stroke-linejoin:bevel;stroke-miterlimit:1.9" id="path103" d="m 26.905542,14.697183 v -0.632242 h 0.0065 0.0065 v 0.632242 0.632243 h -0.0065 -0.0065 z"/><path style="fill:#fed849;fill-opacity:1;stroke:none;stroke-width:.000884209;stroke-linejoin:bevel;stroke-miterlimit:1.9" id="path104" d="m 26.905542,13.50708 v -0.557861 h 0.0065 0.0065 v 0.557861 0.557861 h -0.0065 -0.0065 z"/><path style="fill:#fed849;fill-opacity:1;stroke:none;stroke-width:.000884209;stroke-linejoin:bevel;stroke-miterlimit:1.9" id="path105" d="m 26.905542,12.354168 v -0.595054 h 0.0065 0.0065 v 0.595054 0.595051 h -0.0065 -0.0065 z"/><path style="fill:#fed849;fill-opacity:1;stroke:none;stroke-width:.000884209;stroke-linejoin:bevel;stroke-miterlimit:1.9" id="path106" d="m 26.905542,11.164063 v -0.595052 h 0.0065 0.0065 v 0.595052 0.595051 h -0.0065 -0.0065 z"/><path style="fill:#fed849;fill-opacity:1;stroke:none;stroke-width:.000884209;stroke-linejoin:bevel;stroke-miterlimit:1.9" id="path107" d="M 26.905542,10.085533 V 9.6020529 h 0.0065 0.0065 v 0.4834801 0.483478 h -0.0065 -0.0065 z"/><path style="fill:#fed849;fill-opacity:1;stroke:none;stroke-width:.000884209;stroke-linejoin:bevel;stroke-miterlimit:1.9" id="path108" d="M 26.905542,9.0813825 V 8.5607123 h 0.0065 0.0065 v 0.5206702 0.5206704 h -0.0065 -0.0065 z"/><path style="fill:#fed849;fill-opacity:1;stroke:none;stroke-width:.000884209;stroke-linejoin:bevel;stroke-miterlimit:1.9" id="path109" d="M 26.905542,8.4086953 V 8.2566782 h -0.883745 c -0.883126,0 -0.883745,-1.5e-6 -0.883745,-0.00185 0,-0.00185 7.14e-4,-0.00185 0.890252,-0.00185 h 0.890255 v 0.1538766 0.1538768 h -0.0065 -0.0065 z"/><path style="fill:#fed849;fill-opacity:1;stroke:none;stroke-width:.000884209;stroke-linejoin:bevel;stroke-miterlimit:1.9" id="path110" d="m 23.352897,8.2548185 c 0,-0.00185 5.71e-4,-0.00185 0.897459,-0.00169 0.493603,9.46e-5 0.895264,3.332e-4 0.892578,5.236e-4 -0.0063,4.522e-4 -0.0063,0.00191 0,0.00236 0.0027,1.878e-4 -0.398975,4.284e-4 -0.892578,5.236e-4 -0.896896,1.718e-4 -0.897459,1.71e-4 -0.897459,-0.00169 z"/><path style="fill:#fed849;fill-opacity:1;stroke:none;stroke-width:.000884209;stroke-linejoin:bevel;stroke-miterlimit:1.9" id="path111" d="m 22.612337,8.2557484 0.532757,-4.76e-4 -0.454656,-3.571e-4 c -0.250062,-2.028e-4 -0.705485,-6.427e-4 -1.012053,-9.758e-4 -0.459206,-4.999e-4 -0.359952,-5.952e-4 0.563439,-6.189e-4 0.616461,-9.1e-6 1.118639,1.371e-4 1.115955,3.332e-4 -0.0027,1.878e-4 -0.0049,7.14e-4 -0.0049,0.00117 0,4.522e-4 0.0022,9.759e-4 0.0049,0.00117 0.0027,1.878e-4 -0.283813,3.095e-4 -0.63666,2.857e-4 l -0.64154,-5.93e-5 z"/><path style="fill:#fed849;fill-opacity:1;stroke:none;stroke-width:.000884209;stroke-linejoin:bevel;stroke-miterlimit:1.9" id="path112" d="m 21.151507,8.2541215 c 0.01985,-1.402e-4 0.05207,-1.4e-4 0.0716,0 0.01952,1.402e-4 0.0033,2.619e-4 -0.03609,2.619e-4 -0.03937,0 -0.05534,-1.148e-4 -0.03549,-2.619e-4 z"/><path style="fill:#fed849;fill-opacity:1;stroke:none;stroke-width:.000884209;stroke-linejoin:bevel;stroke-miterlimit:1.9" id="path113" d="M 21.115874,8.3845212 V 8.2548185 l 0.548797,2.318e-4 0.548795,2.316e-4 -0.528341,2.339e-4 -0.52834,2.34e-4 V 8.384987 8.5142239 h -0.02046 -0.02046 z"/><path style="fill:#fed849;fill-opacity:1;stroke:none;stroke-width:.000884209;stroke-linejoin:bevel;stroke-miterlimit:1.9" id="path114" d="M 21.115874,8.3845212 V 8.2548185 l 0.548797,2.318e-4 0.548795,2.316e-4 -0.528341,2.339e-4 -0.52834,2.34e-4 V 8.384987 8.5142239 h -0.02046 -0.02046 z"/><path style="fill:#fed849;fill-opacity:1;stroke:none;stroke-width:.000884209;stroke-linejoin:bevel;stroke-miterlimit:1.9" id="path115" d="M 21.115874,8.3845212 V 8.2548185 l 0.549262,2.318e-4 0.54926,2.316e-4 -0.528806,2.339e-4 -0.528805,2.34e-4 V 8.384987 8.5142239 h -0.02046 -0.02046 z"/><path style="fill:#fed849;fill-opacity:1;stroke:none;stroke-width:.000884209;stroke-linejoin:bevel;stroke-miterlimit:1.9" id="path116" d="m 21.115176,8.7599152 -2.31e-4,-0.5069563 0.15132,2.298e-4 0.151319,2.295e-4 -0.150853,2.38e-4 -0.150855,2.379e-4 -2.34e-4,0.5064886 -2.34e-4,0.5064882 z"/><path style="fill:#fed849;fill-opacity:1;stroke:none;stroke-width:.000884209;stroke-linejoin:bevel;stroke-miterlimit:1.9" id="path117" d="m 21.115873,8.4079978 c -2e-6,-0.058424 -2.85e-4,-0.1172354 -6.19e-4,-0.1306912 l -6.19e-4,-0.024465 0.01108,5.713e-4 c 0.0061,3.093e-4 0.253535,8.807e-4 0.549875,0.00122 l 0.538801,6.428e-4 -0.528805,2.284e-4 -0.528807,2.285e-4 v 0.1292377 0.1292378 h -0.02046 -0.02046 z"/><path style="fill:#fed849;fill-opacity:1;stroke:none;stroke-width:.000884209;stroke-linejoin:bevel;stroke-miterlimit:1.9" id="path118" d="m 21.115864,8.4186902 c -5e-6,-0.052544 -2.85e-4,-0.1113965 -6.18e-4,-0.1307843 l -5.96e-4,-0.035251 0.01666,7.618e-4 c 0.0092,4.046e-4 0.256599,0.00103 0.549871,0.00136 l 0.533222,5.951e-4 -0.528805,1.899e-4 -0.528806,1.902e-4 v 0.1292376 0.1292379 h -0.02046 -0.02046 z"/><path style="fill:#fed849;fill-opacity:1;stroke:none;stroke-width:.000884209;stroke-linejoin:bevel;stroke-miterlimit:1.9" id="path119" d="m 21.115871,8.4307771 c -2e-6,-0.045896 -2.85e-4,-0.1047477 -6.18e-4,-0.130782 l -6.19e-4,-0.047335 0.01899,7.617e-4 c 0.01044,4.046e-4 0.257884,0.00103 0.549879,0.00136 l 0.530897,6.19e-4 -0.528805,1.816e-4 -0.528806,1.817e-4 v 0.1292338 0.1292379 h -0.02046 -0.02046 z"/><path style="fill:#fed849;fill-opacity:1;stroke:none;stroke-width:.000884209;stroke-linejoin:bevel;stroke-miterlimit:1.9" id="path120" d="m 21.115871,8.4447237 c -2e-6,-0.038225 -2.85e-4,-0.097065 -6.18e-4,-0.1307543 l -6.2e-4,-0.061253 0.02874,7.14e-4 c 0.01581,4.047e-4 0.263254,9.96e-4 0.549877,0.00136 l 0.521136,6.188e-4 -0.528806,1.698e-4 -0.528806,1.697e-4 v 0.1292376 0.1292378 h -0.02046 -0.02046 z"/><path style="fill:#fed849;fill-opacity:1;stroke:none;stroke-width:.000884209;stroke-linejoin:bevel;stroke-miterlimit:1.9" id="path121" d="m 21.115874,8.4554161 c -1e-6,-0.032343 -2.85e-4,-0.091179 -6.18e-4,-0.1307453 l -6.2e-4,-0.071937 0.04734,7.142e-4 c 0.02604,3.808e-4 0.273483,9.961e-4 0.549881,0.00133 l 0.502539,6.427e-4 -0.528805,1.663e-4 -0.528806,1.663e-4 v 0.1292354 0.1292379 h -0.02046 -0.02046 z"/><path style="fill:#fed849;fill-opacity:1;stroke:none;stroke-width:.000884209;stroke-linejoin:bevel;stroke-miterlimit:1.9" id="path122" d="m 21.115873,8.4679678 c 0,-0.025441 -2.85e-4,-0.084293 -6.18e-4,-0.1307827 l -6.19e-4,-0.084527 0.03989,6.189e-4 c 0.02194,3.332e-4 0.269182,8.806e-4 0.549414,0.00122 0.280232,3.333e-4 0.509687,7.38e-4 0.5099,9.283e-4 2.15e-4,1.86e-4 -0.23754,3.333e-4 -0.528339,3.333e-4 h -0.52873 v 0.1292377 0.1292378 h -0.02046 -0.02046 z"/><path style="fill:#fed849;fill-opacity:1;stroke:none;stroke-width:.000884209;stroke-linejoin:bevel;stroke-miterlimit:1.9" id="path123" d="m 21.115872,8.4786602 c -2e-6,-0.019561 -2.85e-4,-0.078341 -6.18e-4,-0.1306248 l -6.2e-4,-0.095061 0.09429,5.712e-4 c 0.05185,3.094e-4 0.299307,8.568e-4 0.549879,0.00124 l 0.455586,6.665e-4 -0.528805,1.577e-4 -0.528806,1.576e-4 v 0.1292375 0.1292379 h -0.02046 -0.02046 z"/><path style="fill:#fed849;fill-opacity:1;stroke:none;stroke-width:.000884209;stroke-linejoin:bevel;stroke-miterlimit:1.9" id="path124" d="M 19.708206,8.392889 V 7.5193719 h 1.390003 1.390004 v 0.3663285 0.3663289 h -0.687254 c -0.37799,0 -0.68708,1.529e-4 -0.686867,3.332e-4 0.0011,9.961e-4 0.165634,0.00156 0.608148,0.00211 0.270174,3.331e-4 0.4914,7.615e-4 0.491614,9.282e-4 2.12e-4,1.849e-4 -0.237541,3.332e-4 -0.528341,3.332e-4 h -0.528728 v 0.1292376 0.1292379 h -0.02046 -0.02046 l -3e-6,-0.02859 c -4e-6,-0.052263 -0.0012,-0.2303438 -0.0016,-0.2307374 -1.85e-4,-2.13e-4 -3.34e-4,0.2272895 -3.34e-4,0.5055614 V 9.2663961 H 20.41108 19.708175 Z"/><path style="fill:#fed849;fill-opacity:1;stroke:none;stroke-width:.000884209;stroke-linejoin:bevel;stroke-miterlimit:1.9" id="path125" d="m 21.161667,8.2522623 c 0.01369,-1.448e-4 0.03606,-1.448e-4 0.04974,0 0.01369,1.45e-4 0.0025,2.619e-4 -0.02487,2.619e-4 -0.02736,0 -0.03855,-1.186e-4 -0.02487,-2.619e-4 z"/><path style="fill:#fed849;fill-opacity:1;stroke:none;stroke-width:.00353685;stroke-linejoin:bevel;stroke-miterlimit:1.9" id="path126" d="m 11.689884,9.5578274 v -0.022906 l 0.108783,-0.094286 c 1.626472,-1.4097166 3.41971,-2.5587757 5.29875,-3.3952985 0.143585,-0.063923 0.47547,-0.2059324 0.534854,-0.2288586 0.0037,-0.00142 0.0047,0.00211 0.0037,0.014294 l -0.0011,0.016179 -0.03906,0.016264 c -0.789446,0.3288195 -1.549718,0.7039452 -2.303964,1.1368006 -1.24042,0.7118654 -2.402908,1.5385532 -3.49035,2.4821149 -0.04806,0.041708 -0.09284,0.080958 -0.09948,0.087218 l -0.01208,0.011382 z"/><path style="fill:#fed849;fill-opacity:1;stroke:none;stroke-width:.000884209;stroke-linejoin:bevel;stroke-miterlimit:1.9" id="path127" d="m 10.331556,10.828649 c 0.0059,-0.006 0.02465,-0.02536 0.04176,-0.043 0.106648,-0.109972 0.30934,-0.313585 0.411434,-0.413305 0.295602,-0.288732 0.567538,-0.5414236 0.866735,-0.8054008 0.03506,-0.030934 0.04298,-0.037632 0.03942,-0.033345 -7.38e-4,9.045e-4 -9.76e-4,0.00813 -8.1e-4,0.024395 l 2.39e-4,0.023117 -0.04882,0.043211 C 11.223462,9.994404 10.822054,10.376968 10.4325,10.776583 l -0.06141,0.06299 h -0.02511 -0.02511 z"/><path style="fill:#fed849;fill-opacity:1;stroke:none;stroke-width:.000884209;stroke-linejoin:bevel;stroke-miterlimit:1.9" id="path128" d="m 9.3152557,11.954849 c 0,-9.96e-4 0.108241,-0.128027 0.175179,-0.205496 0.2600981,-0.301021 0.5590883,-0.628753 0.8170673,-0.895615 l 0.01373,-0.0142 0.02486,2.38e-4 0.02486,2.38e-4 -0.02786,0.02883 c -0.185733,0.192159 -0.4025903,0.426027 -0.5922912,0.63875 -0.1248874,0.140045 -0.2690459,0.305766 -0.3653353,0.419983 l -0.023245,0.02757 -0.023476,6.3e-5 c -0.012913,3.5e-5 -0.023476,-1.38e-4 -0.023476,-3.8e-4 z"/><path style="fill:#fed849;fill-opacity:1;stroke:none;stroke-width:.000884209;stroke-linejoin:bevel;stroke-miterlimit:1.9" id="path129" d="m 8.4343275,13.068522 c 9.045e-4,-0.0013 0.021301,-0.02889 0.045336,-0.06113 0.256448,-0.344094 0.532437,-0.692501 0.8103945,-1.023041 l 0.024434,-0.02905 h 0.02368 0.023681 l -0.00964,0.01139 c -0.273525,0.323058 -0.5634937,0.687756 -0.8257554,1.038555 l -0.04917,0.06577 h -0.022298 -0.022298 z"/><path style="fill:#fed849;fill-opacity:1;stroke:none;stroke-width:.000884209;stroke-linejoin:bevel;stroke-miterlimit:1.9" id="path130" d="M 7.616274,14.252986 C 7.8815917,13.841184 8.1496132,13.45291 8.4300888,13.07404 l 0.00224,-0.003 h 0.022638 0.022639 l -0.00685,0.0091 c -0.054053,0.07151 -0.2047827,0.279871 -0.2987935,0.41305 -0.1702796,0.24122 -0.3742945,0.543456 -0.5066135,0.750519 l -0.011118,0.01739 -0.021596,3.6e-5 -0.021596,3.5e-5 z"/><path style="fill:#fed849;fill-opacity:1;stroke:none;stroke-width:.000884209;stroke-linejoin:bevel;stroke-miterlimit:1.9" id="path131" d="m 6.9071056,15.439835 c 0.1924747,-0.346295 0.3649148,-0.63907 0.5647315,-0.958823 0.051911,-0.08307 0.1361721,-0.216005 0.138653,-0.218745 8.093e-4,-9.05e-4 0.00604,-0.0011 0.022146,-9.29e-4 l 0.021079,2.61e-4 -0.00987,0.01534 c -0.2111706,0.328376 -0.4257508,0.684058 -0.6178567,1.024139 -0.026502,0.04692 -0.065962,0.11738 -0.078481,0.140148 l -0.00549,0.01 -0.020625,1.4e-5 -0.020625,1.6e-5 z"/><path style="fill:#fed849;fill-opacity:1;stroke:none;stroke-width:.000884209;stroke-linejoin:bevel;stroke-miterlimit:1.9" id="path132" d="m 6.2939627,16.639504 c 0.0011,-0.0035 0.061852,-0.131179 0.095548,-0.200865 0.1170301,-0.242031 0.2382142,-0.480386 0.3663507,-0.720571 0.037385,-0.07008 0.089678,-0.166526 0.1293038,-0.238485 l 0.015359,-0.0279 0.020517,-2.62e-4 c 0.011284,-1.37e-4 0.020517,-1.09e-4 0.020517,6.3e-5 0,1.71e-4 -0.00737,0.01368 -0.01638,0.03 -0.2043505,0.370395 -0.3952566,0.742893 -0.5717785,1.115659 l -0.020693,0.0437 -0.019668,2.62e-4 c -0.019309,2.38e-4 -0.019656,2.18e-4 -0.019076,-0.0017 z"/><path style="fill:#fed849;fill-opacity:1;stroke:none;stroke-width:.000884209;stroke-linejoin:bevel;stroke-miterlimit:1.9" id="path133" d="m 5.7250029,17.978122 c 0.00122,-0.0039 0.041955,-0.109702 0.061347,-0.159243 0.1515355,-0.387156 0.313088,-0.763399 0.4955391,-1.154074 l 0.010963,-0.02347 H 6.312661 6.33247 l -0.00469,0.01 c -0.2063447,0.439783 -0.3900369,0.871126 -0.5579967,1.310276 l -0.00693,0.01813 -0.019246,2.62e-4 -0.019246,2.62e-4 z"/><path style="fill:#fed849;fill-opacity:1;stroke:none;stroke-width:.000884209;stroke-linejoin:bevel;stroke-miterlimit:1.9" id="path134" d="m 5.2731044,19.315109 c 7.141e-4,-0.0022 0.007,-0.0232 0.013977,-0.04672 0.1181985,-0.398696 0.2677371,-0.841217 0.4216901,-1.247883 l 0.015185,-0.04011 0.019443,-1.46e-4 c 0.01838,-1.36e-4 0.019408,-5.2e-5 0.018773,0.0016 -0.00659,0.01641 -0.048435,0.128043 -0.072254,0.19274 -0.1118274,0.303751 -0.2164466,0.612789 -0.3139686,0.927444 -0.024209,0.07811 -0.065209,0.213915 -0.065209,0.215995 0,8.07e-4 -0.00503,0.0011 -0.019468,0.0011 h -0.019468 z"/><path style="fill:#fed849;fill-opacity:1;stroke:none;stroke-width:.000884209;stroke-linejoin:bevel;stroke-miterlimit:1.9" id="path135" d="m 4.9341877,20.656944 c 0,-5.47e-4 4.046e-4,-0.0028 9.283e-4,-0.0049 4.998e-4,-0.0022 0.00555,-0.02566 0.011211,-0.05224 0.08666,-0.407243 0.1945763,-0.833011 0.317968,-1.25449 l 0.00769,-0.02627 h 0.018917 c 0.010404,0 0.018917,2.84e-4 0.018917,6.18e-4 0,3.33e-4 -0.00353,0.01258 -0.00785,0.02719 -0.1235323,0.418467 -0.2424886,0.886314 -0.3269598,1.285914 -0.00255,0.01203 -0.00485,0.02261 -0.00512,0.02351 -4.521e-4,0.0015 -0.00214,0.0017 -0.018097,0.0017 -0.011751,0 -0.017603,-3.33e-4 -0.017603,-9.76e-4 z"/><path style="fill:#fed849;fill-opacity:1;stroke:none;stroke-width:.000884209;stroke-linejoin:bevel;stroke-miterlimit:1.9" id="path136" d="m 4.7091839,21.996072 c 0,-0.0012 0.011786,-0.09205 0.016792,-0.129446 0.052411,-0.391547 0.1203127,-0.788349 0.2019812,-1.18034 l 0.00582,-0.0279 0.017874,-2.62e-4 c 0.00983,-1.39e-4 0.017875,-3e-5 0.017875,2.39e-4 0,2.62e-4 -8.094e-4,0.0041 -0.0018,0.0087 -0.00378,0.01699 -0.022738,0.108944 -0.033514,0.162466 -0.075474,0.374876 -0.1374735,0.749497 -0.1859502,1.123574 -0.00308,0.02375 -0.0056,0.04331 -0.0056,0.04347 0,1.55e-4 -0.00753,2.85e-4 -0.016736,2.85e-4 -0.0092,0 -0.016735,-3.33e-4 -0.016735,-7.15e-4 z"/><path style="fill:#fed849;fill-opacity:1;stroke:none;stroke-width:.000884209;stroke-linejoin:bevel;stroke-miterlimit:1.9" id="path137" d="m 4.6296012,23.391678 c 0.00615,-0.176171 0.018618,-0.400607 0.032668,-0.587846 0.026995,-0.359787 0.064116,-0.700413 0.1157473,-1.062116 0.00612,-0.04288 0.011128,-0.07812 0.011128,-0.07833 0,-2.07e-4 0.4232073,-3.81e-4 0.9404605,-3.81e-4 h 0.940461 v 0.873517 0.873517 H 5.6495127 4.6289603 Z"/><path style="fill:#fed849;fill-opacity:1;stroke:none;stroke-width:.000884209;stroke-linejoin:bevel;stroke-miterlimit:1.9" id="path138" d="m 4.5961103,23.400512 c 2.856e-4,-0.0053 7.616e-4,-0.01622 0.00106,-0.02441 0.012227,-0.360278 0.0438,-0.784654 0.08699,-1.169184 0.00744,-0.06625 0.023247,-0.199329 0.024601,-0.207105 l 5.236e-4,-0.003 h 0.016776 0.016776 l -5.475e-4,0.0035 c -0.00106,0.0066 -0.01067,0.08525 -0.016757,0.136908 -0.049246,0.418083 -0.081063,0.830706 -0.096843,1.255884 l -6.189e-4,0.01697 h -0.016231 -0.016233 z"/><path style="fill:#fed849;fill-opacity:1;stroke:none;stroke-width:.000884209;stroke-linejoin:bevel;stroke-miterlimit:1.9" id="path139" d="m 4.6013308,24.596157 c 0,-0.0022 -6.188e-4,-0.01862 -0.00138,-0.0365 -0.00727,-0.171856 -0.011379,-0.344738 -0.012418,-0.52226 -0.00122,-0.208357 0.00108,-0.402382 0.00683,-0.579944 7.615e-4,-0.02327 0.00138,-0.04346 0.00138,-0.04486 l 1.4e-6,-0.0026 h 0.016341 0.016341 l -5.474e-4,0.0082 c -3.094e-4,0.0045 -0.00117,0.02947 -0.00191,0.05555 -7.378e-4,0.02608 -0.00156,0.05473 -0.00185,0.06369 -0.00238,0.07589 -0.00421,0.190885 -0.00502,0.312866 -0.00159,0.243355 0.00233,0.484926 0.011553,0.711274 7.617e-4,0.0184 0.00136,0.03462 0.00136,0.03603 l 3.1e-6,0.0026 h -0.015339 -0.01534 z"/><path style="fill:#fed849;fill-opacity:1;stroke:none;stroke-width:.000884209;stroke-linejoin:bevel;stroke-miterlimit:1.9" id="path140" d="m 4.7373046,26.080104 c -5.711e-4,-0.0042 -0.00377,-0.02775 -0.0071,-0.0523 -0.054437,-0.40101 -0.09313,-0.798167 -0.1167616,-1.198471 -0.00336,-0.05701 -0.00781,-0.141486 -0.00974,-0.185488 -7.855e-4,-0.01763 -0.00162,-0.03469 -0.00185,-0.03789 l -4.522e-4,-0.0058 h 0.015226 0.015226 l 5.236e-4,0.0067 c 2.857e-4,0.0037 7.618e-4,0.01259 0.00103,0.01976 0.00535,0.137717 0.019139,0.362339 0.033039,0.538337 0.023238,0.294231 0.058604,0.620713 0.097171,0.897009 0.00176,0.01266 0.00322,0.02366 0.00322,0.02441 0,0.0012 -0.00226,0.0014 -0.014241,0.0014 h -0.014243 z"/><path style="fill:#fed849;fill-opacity:1;stroke:none;stroke-width:.000884209;stroke-linejoin:bevel;stroke-miterlimit:1.9" id="path141" d="M 4.9933682,27.47708 C 4.9083438,27.102189 4.8384934,26.738988 4.7798226,26.366705 4.764758,26.271122 4.7381301,26.090108 4.7390097,26.08927 c 2.159e-4,-2.04e-4 0.00663,-4.76e-4 0.014251,-7.14e-4 l 0.013859,-2.38e-4 0.00766,0.05346 c 0.055566,0.388004 0.1243217,0.769525 0.2078564,1.153376 0.013292,0.06107 0.044777,0.201452 0.045931,0.204782 3.094e-4,9.52e-4 -0.00302,0.0012 -0.014681,0.0012 h -0.015083 z"/><path style="fill:#fed849;fill-opacity:1;stroke:none;stroke-width:.000884209;stroke-linejoin:bevel;stroke-miterlimit:1.9" id="path142" d="M 5.372296,28.872663 C 5.2423454,28.460665 5.1302484,28.055702 5.0327639,27.646066 c -0.017458,-0.07336 -0.033683,-0.143317 -0.033313,-0.143626 1.566e-4,-1.32e-4 0.00684,-4.76e-4 0.014857,-7.15e-4 l 0.014571,-4.76e-4 0.0025,0.01085 c 0.081497,0.353896 0.1874483,0.750013 0.2980952,1.114476 0.027464,0.09046 0.068005,0.220498 0.086312,0.276841 l 0.00355,0.01092 h -0.016958 -0.016956 z"/><path style="fill:#fed849;fill-opacity:1;stroke:none;stroke-width:.000884209;stroke-linejoin:bevel;stroke-miterlimit:1.9" id="path143" d="M 5.8904837,30.304971 C 5.819485,30.1301 5.7666268,29.995673 5.7096065,29.844967 c -0.1014761,-0.268201 -0.1972661,-0.54029 -0.28576,-0.811688 -0.017516,-0.05372 -0.037791,-0.116773 -0.037791,-0.117528 0,-2.37e-4 0.00756,-4.75e-4 0.016805,-2.37e-4 l 0.016805,2.37e-4 0.016259,0.05021 c 0.1396388,0.431189 0.308451,0.891856 0.4832697,1.318782 0.00951,0.0232 0.017285,0.04236 0.017285,0.04254 0,1.8e-4 -0.00829,2.38e-4 -0.01842,2.38e-4 h -0.01842 z"/><path style="fill:#fed849;fill-opacity:1;stroke:none;stroke-width:.000884209;stroke-linejoin:bevel;stroke-miterlimit:1.9" id="path144" d="M 6.5043109,31.658247 C 6.2901798,31.228841 6.1016717,30.815732 5.924869,30.388417 5.911964,30.357217 5.901108,30.330767 5.900747,30.329607 l -6.665e-4,-0.0022 0.018425,2.6e-5 0.018425,2.3e-5 0.011541,0.0281 c 0.070035,0.170533 0.1659309,0.392133 0.2527644,0.584103 0.1094721,0.242022 0.2133303,0.460199 0.3350084,0.703761 0.026548,0.05314 0.048269,0.09676 0.048269,0.09693 0,1.69e-4 -0.00879,2.38e-4 -0.019534,2.38e-4 h -0.019534 z"/><path style="fill:#fed849;fill-opacity:1;stroke:none;stroke-width:.000884209;stroke-linejoin:bevel;stroke-miterlimit:1.9" id="path145" d="m 7.328964,33.150528 c -0.00122,-0.0019 -0.014322,-0.02357 -0.02915,-0.04812 -0.2069442,-0.342562 -0.4135631,-0.708484 -0.5971868,-1.057613 -0.010353,-0.01968 -0.021034,-0.03998 -0.023731,-0.04509 -0.034168,-0.06478 -0.1324906,-0.256486 -0.1324906,-0.258319 0,-2.38e-4 0.00869,-7.14e-4 0.019292,-7.14e-4 l 0.019292,1.2e-5 0.013388,0.02626 c 0.2207509,0.43293 0.4349499,0.820684 0.6834905,1.237279 0.024182,0.04054 0.078939,0.131373 0.086589,0.143648 0.00128,0.0022 0.00263,0.0042 0.003,0.0049 5.474e-4,9.52e-4 -0.00367,0.0012 -0.019811,0.0012 h -0.020498 z"/><path style="fill:#fed849;fill-opacity:1;stroke:none;stroke-width:.000884209;stroke-linejoin:bevel;stroke-miterlimit:1.9" id="path146" d="M 8.2650098,34.563273 C 8.2547035,34.549183 8.1683779,34.428005 8.1426558,34.391533 7.8609005,33.992032 7.6010369,33.596456 7.3480204,33.181905 l -0.01674,-0.02743 0.020149,-4.75e-4 c 0.011082,-2.38e-4 0.020203,-4.77e-4 0.020272,-4.77e-4 6.83e-5,0 0.011122,0.018 0.024562,0.03998 0.2778725,0.454587 0.5867255,0.91899 0.9007233,1.354367 0.00726,0.01011 0.013191,0.01854 0.013191,0.01883 0,2.38e-4 -0.00952,4.75e-4 -0.021153,4.75e-4 l -0.021154,-3.5e-5 z"/><path style="fill:#fed849;fill-opacity:1;stroke:none;stroke-width:.000884209;stroke-linejoin:bevel;stroke-miterlimit:1.9" id="path147" d="M 9.334953,35.932279 C 8.9804662,35.513213 8.6436266,35.084162 8.3235265,34.643967 c -0.032224,-0.04432 -0.053459,-0.0737 -0.054588,-0.07554 -5.713e-4,-9.53e-4 0.0038,-0.0012 0.020644,-0.0012 h 0.021356 l 0.013278,0.01838 c 0.3286672,0.454498 0.6950322,0.9214 1.0579361,1.348252 0.019712,0.02318 0.036609,0.04317 0.037547,0.0444 l 0.00171,0.0022 H 9.3985869 9.375758 Z"/><path style="fill:#fed849;fill-opacity:1;stroke:none;stroke-width:.000884209;stroke-linejoin:bevel;stroke-miterlimit:1.9" id="path148" d="m 10.547105,37.254989 c -0.08559,-0.08661 -0.110398,-0.111878 -0.164516,-0.167593 -0.301971,-0.310876 -0.5891792,-0.623788 -0.8727315,-0.95083 -0.04604,-0.0531 -0.1332368,-0.15489 -0.1332368,-0.155532 0,-2.38e-4 0.010147,-4.77e-4 0.022547,-4.77e-4 l 0.022547,1.6e-5 0.037655,0.0439 c 0.2475031,0.288564 0.5055042,0.574215 0.7698483,0.852353 0.126771,0.133383 0.23779,0.247318 0.400676,0.411198 l 0.0312,0.03138 h -0.02517 -0.02517 z"/><path style="fill:#fed849;fill-opacity:1;stroke:none;stroke-width:.000884209;stroke-linejoin:bevel;stroke-miterlimit:1.9" id="path149" d="m 12.145006,38.719413 c -0.471085,-0.392974 -0.91043,-0.788919 -1.32911,-1.197812 -0.02554,-0.02494 -0.195438,-0.192449 -0.200315,-0.197493 l -0.0037,-0.0038 h 0.02544 0.02544 l 0.05171,0.05138 c 0.186949,0.185741 0.407018,0.395568 0.616318,0.587629 0.274776,0.252144 0.559313,0.500705 0.838383,0.732375 0.02608,0.02165 0.04782,0.03972 0.0483,0.04015 4.76e-4,4.76e-4 -0.01201,7.15e-4 -0.0279,7.15e-4 l -0.02878,-1.3e-5 z"/><path style="fill:#fed849;fill-opacity:1;stroke:none;stroke-width:.000884209;stroke-linejoin:bevel;stroke-miterlimit:1.9" id="path150" d="m 13.511766,39.770044 c -0.0031,-0.0022 -0.03046,-0.02168 -0.06088,-0.04338 -0.413407,-0.294981 -0.823177,-0.609423 -1.218944,-0.935372 -0.02899,-0.02388 -0.0681,-0.0562 -0.07058,-0.05834 -2.13e-4,-1.85e-4 0.01255,-2.38e-4 0.02837,-2.38e-4 h 0.02875 l 0.01533,0.01268 c 0.190716,0.157865 0.434567,0.351604 0.649434,0.515979 0.216475,0.165605 0.471014,0.352932 0.671293,0.494034 0.01329,0.0094 0.02457,0.0174 0.02506,0.01783 5e-4,4.77e-4 -0.0129,7.16e-4 -0.03068,7.16e-4 h -0.03157 z"/><path style="fill:#fed849;fill-opacity:1;stroke:none;stroke-width:.000884209;stroke-linejoin:bevel;stroke-miterlimit:1.9" id="path151" d="m 15.192786,40.848651 c -0.57255,-0.331269 -1.123624,-0.684316 -1.656556,-1.061276 l -0.01831,-0.01295 0.03151,-2.37e-4 0.03151,-2.38e-4 0.0096,0.0068 c 0.166143,0.118206 0.4431,0.305781 0.657628,0.445393 0.312696,0.203494 0.660705,0.416911 0.965324,0.591985 l 0.01046,0.006 6e-6,0.02116 c 4e-6,0.01164 -9.6e-5,0.02114 -2.25e-4,0.02114 -1.27e-4,-9e-6 -0.01403,-0.0081 -0.03092,-0.01778 z"/><path style="fill:#fed849;fill-opacity:1;stroke:none;stroke-width:.000884209;stroke-linejoin:bevel;stroke-miterlimit:1.9" id="path152" d="m 16.838011,41.702603 c -0.01151,-0.0054 -0.04184,-0.01954 -0.06741,-0.03146 -0.509673,-0.23763 -1.043337,-0.514966 -1.531793,-0.796037 l -0.01441,-0.0083 -2.38e-4,-0.02111 c -1.36e-4,-0.01161 -8.9e-5,-0.02111 1.07e-4,-0.02111 1.96e-4,0 0.01538,0.0087 0.03372,0.01917 0.469317,0.269435 0.957877,0.524607 1.446613,0.755561 0.03766,0.01781 0.128153,0.06009 0.144812,0.06766 l 0.01093,0.005 v 0.02028 c 0,0.01116 -3.11e-4,0.02025 -6.92e-4,0.02021 -3.8e-4,-4.2e-5 -0.0101,-0.0045 -0.02161,-0.0099 z"/><path style="fill:#fed849;fill-opacity:1;stroke:none;stroke-width:.000884209;stroke-linejoin:bevel;stroke-miterlimit:1.9" id="path153" d="m 18.324246,42.316335 c -0.01175,-0.0043 -0.03854,-0.01418 -0.0595,-0.0219 -0.451812,-0.16614 -0.898881,-0.350747 -1.368823,-0.565221 l -0.03554,-0.01621 -2.7e-5,-0.02023 c -1.6e-5,-0.01112 1.89e-4,-0.02023 4.51e-4,-0.02023 2.62e-4,0 0.0084,0.0036 0.0179,0.0081 0.423944,0.195129 0.836701,0.368133 1.267556,0.531283 0.07171,0.02715 0.19915,0.07435 0.200767,0.07435 5.71e-4,0 9.27e-4,0.0071 9.27e-4,0.01906 0,0.01466 -2.62e-4,0.01903 -0.0011,0.01901 -6.43e-4,-2.8e-5 -0.01079,-0.0036 -0.02254,-0.008 z"/><path style="fill:#fed849;fill-opacity:1;stroke:none;stroke-width:.000884209;stroke-linejoin:bevel;stroke-miterlimit:1.9" id="path154" d="m 19.805367,42.786311 c -0.514864,-0.140812 -0.940934,-0.275385 -1.433471,-0.452753 l -0.02395,-0.0087 v -0.0189 c 0,-0.01041 2.12e-4,-0.01891 4.77e-4,-0.01891 2.62e-4,0 0.01144,0.004 0.02487,0.0089 0.227066,0.08295 0.505824,0.177716 0.748692,0.254527 0.226699,0.0717 0.484416,0.147681 0.684775,0.20189 0.01253,0.0034 0.02415,0.0066 0.0258,0.0071 l 0.003,9.51e-4 v 0.01666 c 0,0.01528 -1.34e-4,0.01666 -0.0017,0.01659 -9.04e-4,-4.6e-5 -0.01376,-0.0034 -0.0286,-0.0075 z"/><path style="fill:#fed849;fill-opacity:1;stroke:none;stroke-width:.000884209;stroke-linejoin:bevel;stroke-miterlimit:1.9" id="path155" d="m 21.379,43.134042 c -0.0085,-0.0014 -0.04254,-0.0076 -0.07577,-0.01336 -0.468465,-0.08248 -0.940923,-0.186651 -1.407205,-0.310272 -0.02327,-0.0062 -0.04639,-0.01228 -0.05137,-0.01362 l -0.0091,-0.0024 V 42.7773 c 0,-0.01585 1.19e-4,-0.01704 0.0017,-0.01656 0.0088,0.0028 0.142955,0.03833 0.208965,0.0554 0.430072,0.111251 0.889078,0.21106 1.303999,0.283552 0.02071,0.0036 0.03985,0.007 0.04254,0.0076 l 0.0049,9.52e-4 v 0.01435 c 0,0.01307 -1.43e-4,0.01432 -0.0017,0.01426 -9.05e-4,-4.9e-5 -0.0086,-0.0012 -0.01697,-0.0028 z"/><path style="fill:#fed849;fill-opacity:1;stroke:none;stroke-width:.000884209;stroke-linejoin:bevel;stroke-miterlimit:1.9" id="path156" d="m 23.229238,43.342777 c -0.124195,-0.0071 -0.18736,-0.0111 -0.272421,-0.01714 -0.450756,-0.03207 -0.908082,-0.08447 -1.358858,-0.15569 -0.07678,-0.01214 -0.195151,-0.03157 -0.198737,-0.03266 -0.0015,-4.76e-4 -0.0017,-0.0019 -0.0017,-0.0149 v -0.01442 l 0.0026,4.76e-4 c 0.0015,2.37e-4 0.01846,0.0032 0.03789,0.0065 0.574868,0.09797 1.143432,0.163805 1.694503,0.196187 0.03043,0.0019 0.06787,0.0039 0.08322,0.0047 0.01535,7.14e-4 0.03093,0.0017 0.03463,0.0019 l 0.0067,4.76e-4 v 0.01292 0.01292 l -0.003,-1.2e-4 c -0.0017,-6.8e-5 -0.01285,-7.15e-4 -0.02487,-0.0014 z"/><path id="path157" d="m 26.67868,43.106251 -0.0028,4.77e-4 c -0.0079,0.0017 -0.136624,0.0228 -0.183164,0.03021 -0.444515,0.07087 -0.904873,0.12485 -1.330964,0.156201 -0.0215,0.0017 -0.04017,0.003 -0.04183,0.0033 l -0.0033,4.76e-4 v 0.01532 0.01533 l 0.0052,-4.76e-4 c 0.0029,-2.37e-4 0.02316,-0.0019 0.04463,-0.0033 0.397845,-0.0284 0.831362,-0.07731 1.245425,-0.140396 0.07986,-0.01216 0.229245,-0.03604 0.258476,-0.04138 l 0.0084,-0.0014 v -0.01721 z m -1.562012,0.205946 c 0,-0.01509 4.4e-5,-0.01534 -0.0019,-0.01534 -0.0012,0 -0.01692,0.0012 -0.03486,0.0024 -0.26588,0.01893 -0.527223,0.02998 -0.833537,0.03579 -0.08096,0.0014 -0.398793,0.0014 -0.478832,0 -0.187093,-0.0036 -0.360676,-0.0091 -0.488128,-0.01581 -0.0095,-4.75e-4 -0.01859,-9.51e-4 -0.01998,-9.51e-4 h -0.0024 v 0.01303 0.01254 l 0.0098,9.52e-4 c 0.03719,0.0022 0.168424,0.0079 0.250109,0.01069 0.11968,0.0042 0.272419,0.0079 0.389572,0.0089 v -4.76e-4 c 0.01227,2.38e-4 0.07,2.38e-4 0.128308,4.76e-4 0.338758,7.14e-4 0.686349,-0.01045 1.031113,-0.03348 0.02665,-0.0019 0.04927,-0.0033 0.04974,-0.0033 7.15e-4,0 9.53e-4,-0.0046 9.53e-4,-0.01533 z" style="fill:#fed849;fill-opacity:1;stroke:none;stroke-width:.000884209;stroke-linejoin:bevel;stroke-miterlimit:1.9"/><path style="fill:#fed849;fill-opacity:1;stroke:none;stroke-width:.000884209;stroke-linejoin:bevel;stroke-miterlimit:1.9" id="path158" d="m 26.67868,43.123489 c 0,-0.01708 1.4e-5,-0.01721 0.0022,-0.01766 0.0012,-2.38e-4 0.0096,-0.0017 0.01883,-0.0033 0.394667,-0.06729 0.832998,-0.159983 1.24798,-0.263898 l 0.06996,-0.01752 v 0.01831 0.01831 l -0.05835,0.01457 c -0.417195,0.104127 -0.858126,0.196948 -1.248447,0.262811 -0.01535,0.0026 -0.02884,0.005 -0.02998,0.0052 l -0.0022,4.76e-4 z"/><path style="fill:#fed849;fill-opacity:1;stroke:none;stroke-width:.000884209;stroke-linejoin:bevel;stroke-miterlimit:1.9" id="path159" d="m 28.018474,42.839007 c 0,-0.0164 1.5e-4,-0.01811 0.0017,-0.01856 9.52e-4,-2.38e-4 0.02526,-0.0066 0.05416,-0.01407 0.599229,-0.154856 1.195007,-0.342393 1.787944,-0.562802 0.0289,-0.01074 0.06079,-0.02266 0.0709,-0.02647 l 0.01838,-0.0069 -1.2e-5,0.01918 -9e-6,0.01918 -0.04299,0.01602 c -0.539506,0.201152 -1.053293,0.367299 -1.583152,0.511953 -0.09743,0.0266 -0.302498,0.08055 -0.30617,0.08055 -4.75e-4,0 -7.13e-4,-0.0082 -7.13e-4,-0.01807 z"/><path style="fill:#fed849;fill-opacity:1;stroke:none;stroke-width:.000884209;stroke-linejoin:bevel;stroke-miterlimit:1.9" id="path160" d="m 29.952606,42.228891 2.38e-4,-0.01918 0.01581,-0.006 c 0.523938,-0.198616 1.035907,-0.418528 1.546671,-0.664357 0.153131,-0.0737 0.402941,-0.198344 0.507438,-0.253186 l 0.01141,-0.006 -2.39e-4,0.01974 -2.38e-4,0.01972 -0.03672,0.01891 c -0.601885,0.30981 -1.222629,0.590094 -1.842801,0.832078 -0.05205,0.0203 -0.125095,0.04843 -0.165499,0.06372 -0.01354,0.0052 -0.02726,0.01031 -0.03047,0.01154 l -0.0059,0.0022 z"/><path style="fill:#fed849;fill-opacity:1;stroke:none;stroke-width:.000884209;stroke-linejoin:bevel;stroke-miterlimit:1.9" id="path161"/><path style="fill:#fed849;fill-opacity:1;stroke:none;stroke-width:.000884209;stroke-linejoin:bevel;stroke-miterlimit:1.9" id="path162" d="m 32.034356,41.299751 2.38e-4,-0.01966 0.02603,-0.01352 c 0.576798,-0.299764 1.144482,-0.62961 1.694928,-0.984825 l 0.03623,-0.02338 0.03072,1.8e-5 0.03072,2e-5 -0.01581,0.01035 c -0.06088,0.03988 -0.191306,0.123362 -0.278001,0.177917 -0.489992,0.308343 -1.002458,0.601889 -1.506939,0.863193 l -0.01838,0.0095 z"/><path style="fill:#fed849;fill-opacity:1;stroke:none;stroke-width:.000884209;stroke-linejoin:bevel;stroke-miterlimit:1.9" id="path163" d="m 33.792412,40.258027 c 2.15e-4,-1.91e-4 0.0186,-0.01219 0.04084,-0.02665 0.288734,-0.187798 0.604476,-0.40451 0.846554,-0.581044 0.117591,-0.08574 0.244045,-0.180605 0.36465,-0.273528 0.02114,-0.01629 0.03863,-0.0296 0.03888,-0.0296 2.38e-4,0 4.75e-4,0.01057 4.75e-4,0.02347 l -1.6e-5,0.02347 -0.05414,0.04058 c -0.379672,0.284565 -0.76116,0.552205 -1.14464,0.803042 l -0.0315,0.02059 h -0.03073 c -0.0169,0 -0.03054,-1.54e-4 -0.03034,-2.38e-4 z"/><path style="fill:#fed849;fill-opacity:1;stroke:none;stroke-width:.000884209;stroke-linejoin:bevel;stroke-miterlimit:1.9" id="path164" d="m 35.083785,39.370155 v -0.02376 l 0.02672,-0.02073 c 0.275238,-0.213374 0.596963,-0.47741 0.902109,-0.740343 0.14521,-0.125124 0.342403,-0.298867 0.450472,-0.396903 l 0.01395,-0.01264 0.04183,-4e-5 0.04181,-4e-5 -0.0028,0.0027 c -0.0056,0.0053 -0.09644,0.0863 -0.147351,0.131276 -0.416558,0.367948 -0.87566,0.743696 -1.301209,1.064957 -0.01279,0.0096 -0.02378,0.01794 -0.0244,0.01845 -9.52e-4,7.14e-4 -0.0012,-0.004 -0.0012,-0.02287 z"/><path style="fill:#fed849;fill-opacity:1;stroke:none;stroke-width:.000884209;stroke-linejoin:bevel;stroke-miterlimit:1.9" id="path165" d="m 36.477583,38.175367 c 0.0015,-0.0012 0.08433,-0.0762 0.100801,-0.09121 0.253275,-0.230756 0.487402,-0.451433 0.728475,-0.686624 0.07695,-0.07507 0.240571,-0.237147 0.289506,-0.286769 l 0.05009,-0.0508 h 0.03486 0.03486 l -0.004,0.0045 c -0.02159,0.02376 -0.178554,0.18349 -0.277947,0.282877 -0.280496,0.280479 -0.556676,0.542854 -0.847839,0.805458 l -0.02547,0.02297 h -0.04186 c -0.02302,0 -0.0417,-1.44e-4 -0.04148,-2.37e-4 z"/><path style="fill:#fed849;fill-opacity:1;stroke:none;stroke-width:.000884209;stroke-linejoin:bevel;stroke-miterlimit:1.9" id="path166" d="m 37.667218,37.039282 c 0.435488,-0.440833 0.835702,-0.87865 1.169482,-1.27936 l 0.03234,-0.03882 h 0.02054 0.02054 l -0.0019,0.0022 c -9.51e-4,0.0012 -0.01188,0.01423 -0.02406,0.02905 -0.196034,0.238204 -0.432064,0.511744 -0.647022,0.749858 -0.163445,0.181049 -0.308721,0.33714 -0.479617,0.515325 l -0.0408,0.04253 h -0.03497 -0.03497 z"/><path style="fill:#fed849;fill-opacity:1;stroke:none;stroke-width:.000884209;stroke-linejoin:bevel;stroke-miterlimit:1.9" id="path167" d="m 38.886728,35.699486 c 0.04383,-0.05302 0.109699,-0.134691 0.168193,-0.208502 0.282456,-0.356412 0.543319,-0.704819 0.803172,-1.072719 l 0.02545,-0.03603 h 0.02216 c 0.01219,0 0.02216,2.04e-4 0.02216,4.76e-4 0,0.0012 -0.101471,0.143945 -0.160257,0.225479 -0.256487,0.355698 -0.528035,0.709282 -0.80902,1.053427 -0.0169,0.02071 -0.03471,0.04255 -0.03954,0.04852 l -0.0088,0.01086 -0.02069,6.2e-5 -0.02069,6.2e-5 z"/><path style="fill:#fed849;fill-opacity:1;stroke:none;stroke-width:.000884209;stroke-linejoin:bevel;stroke-miterlimit:1.9" id="path168" d="m 39.884176,34.381725 c 0,-2.38e-4 0.01206,-0.01776 0.0268,-0.03882 0.291517,-0.416674 0.568963,-0.843167 0.825869,-1.269541 l 0.01807,-0.02997 0.02069,-10e-6 c 0.01137,-5e-6 0.02069,2e-4 0.02069,4.76e-4 0,7.14e-4 -0.01033,0.01798 -0.04465,0.07484 -0.254124,0.421202 -0.505161,0.807722 -0.788204,1.21358 l -0.03485,0.04997 h -0.02221 c -0.01221,0 -0.02221,-2.32e-4 -0.02221,-4.77e-4 z"/><path style="fill:#fed849;fill-opacity:1;stroke:none;stroke-width:.000884209;stroke-linejoin:bevel;stroke-miterlimit:1.9" id="path169" d="m 40.75537,33.04302 c 0,-1.89e-4 0.0095,-0.01619 0.02102,-0.03557 0.242057,-0.405393 0.470829,-0.818776 0.671416,-1.213231 0.01612,-0.03169 0.03297,-0.06476 0.03743,-0.07345 l 0.0082,-0.01581 0.01873,-2.38e-4 0.01874,-2.38e-4 -0.01151,0.02256 c -0.0063,0.0124 -0.02295,0.04515 -0.03687,0.07277 -0.156932,0.310836 -0.348208,0.663759 -0.534402,0.986021 -0.04098,0.07092 -0.123552,0.211603 -0.147215,0.250804 l -0.004,0.0067 h -0.02069 c -0.01138,0 -0.02069,-1.57e-4 -0.02069,-2.37e-4 z"/><path style="fill:#fed849;fill-opacity:1;stroke:none;stroke-width:.000884209;stroke-linejoin:bevel;stroke-miterlimit:1.9" id="path170" d="m 41.538201,31.615013 c 0.203995,-0.410733 0.380718,-0.798391 0.551118,-1.208931 l 0.01659,-0.03998 0.01695,-2.38e-4 c 0.0093,-1.41e-4 0.01694,-9.3e-5 0.01694,1.04e-4 0,1.96e-4 -0.0022,0.0056 -0.0048,0.01188 -0.183107,0.443736 -0.359356,0.831999 -0.579974,1.277632 l -0.02428,0.04905 h -0.01852 -0.01852 z"/><path style="fill:#fed849;fill-opacity:1;stroke:none;stroke-width:.000884209;stroke-linejoin:bevel;stroke-miterlimit:1.9" id="path171" d="m 42.106322,30.365326 c 0,-1.95e-4 0.0074,-0.01831 0.01636,-0.04024 0.164132,-0.400153 0.319876,-0.823488 0.457292,-1.242999 l 0.01798,-0.05486 0.01675,-2.38e-4 0.01675,-2.39e-4 -0.0052,0.01607 c -0.01843,0.05777 -0.07858,0.236912 -0.110745,0.329857 -0.108711,0.314108 -0.233376,0.644901 -0.358815,0.952083 l -0.01651,0.04044 -0.01697,2.39e-4 c -0.0093,1.4e-4 -0.01697,9.5e-5 -0.01697,-10e-5 z"/><path style="fill:#fed849;fill-opacity:1;stroke:none;stroke-width:.00353685;stroke-linejoin:bevel;stroke-miterlimit:1.9" id="path172" d="m 42.608272,28.999539 c 0.0047,-0.01495 0.02209,-0.07029 0.03874,-0.12302 0.206376,-0.654013 0.384972,-1.373387 0.508391,-2.047776 0.154518,-0.844316 0.239877,-1.653915 0.265707,-2.520082 0.0072,-0.242588 0.0035,-0.88284 -0.0058,-0.990202 l -0.0019,-0.02324 h 0.01649 0.01651 l 0.0022,0.03068 c 0.0012,0.01688 0.0038,0.08842 0.0059,0.15899 0.02043,0.71883 -0.0087,1.431175 -0.08758,2.145907 -0.119766,1.084685 -0.347068,2.155827 -0.687661,3.240512 -0.05322,0.16948 -0.04632,0.152927 -0.06431,0.154269 l -0.01512,0.0012 z"/><path style="fill:#fed849;fill-opacity:1;stroke:none;stroke-width:.00353685;stroke-linejoin:bevel;stroke-miterlimit:1.9" id="path173" d="m 43.410343,23.19573 c -0.04976,-1.096734 -0.222807,-2.230379 -0.508224,-3.3295 -0.01939,-0.07466 -0.03525,-0.137003 -0.03525,-0.138535 2e-6,-0.0016 0.0058,-0.0028 0.01276,-0.0028 0.01526,0 0.01,-0.01525 0.05763,0.169217 0.245762,0.952904 0.409018,1.932962 0.479817,2.880421 0.01264,0.168985 0.0299,0.460162 0.02996,0.504865 l 1.6e-5,0.01581 h -0.01609 -0.01609 z"/><path style="fill:#fed849;fill-opacity:1;stroke:none;stroke-width:.00353685;stroke-linejoin:bevel;stroke-miterlimit:1.9" id="path174" d="m 42.85224,19.67743 c -0.01959,-0.0745 -0.09051,-0.323391 -0.124757,-0.437864 -0.488074,-1.631398 -1.223403,-3.234245 -2.194145,-4.782728 -0.02692,-0.04296 -0.05022,-0.08018 -0.05176,-0.08274 -0.0022,-0.0035 0.0022,-0.0047 0.01697,-0.0047 h 0.01976 l 0.01466,0.02324 c 0.465264,0.73733 0.90276,1.541906 1.267466,2.330929 0.441392,0.954928 0.802751,1.940017 1.068214,2.912033 0.01145,0.04192 0.02161,0.0789 0.02258,0.08214 0.0014,0.0047 -0.0014,0.006 -0.0124,0.0065 l -0.01415,5.48e-4 z"/><path style="fill:#fed849;fill-opacity:1;stroke:none;stroke-width:.00353685;stroke-linejoin:bevel;stroke-miterlimit:1.9" id="path175" d="M 40.457106,14.336824 C 40.317107,14.112502 40.032651,13.689462 39.832593,13.408059 39.4373,12.852037 38.947412,12.222138 38.594706,11.816374 l -0.04195,-0.04827 v -0.02145 c 0,-0.0118 7.14e-4,-0.02148 0.0019,-0.02148 0.0024,0 0.128094,0.147009 0.229186,0.267774 0.608295,0.726696 1.171859,1.49478 1.676576,2.285017 0.03086,0.0483 0.05609,0.08864 0.05609,0.08965 0,9.96e-4 -0.0088,0.0018 -0.01952,0.0018 l -0.01952,-7.3e-5 z"/><path style="fill:#fed849;fill-opacity:1;stroke:none;stroke-width:.00250093;stroke-linejoin:bevel;stroke-miterlimit:1.9" id="path176" d="m 22.354608,31.46635 c 0,-0.0022 -0.04619,-0.333676 -0.102636,-0.736996 -0.05645,-0.403318 -0.175385,-1.252978 -0.264294,-1.888132 -0.08891,-0.63515 -0.161652,-1.156144 -0.161652,-1.157761 0,-0.0017 0.0049,-0.0029 0.01178,-0.0029 0.01011,0 0.01198,9.52e-4 0.01313,0.0059 0.0016,0.0068 0.527346,3.776557 0.527346,3.780799 0,0.0017 -0.0053,0.0028 -0.01183,0.0028 -0.0084,0 -0.01183,-0.0012 -0.01183,-0.0037 z"/><path style="fill:#fed849;fill-opacity:1;stroke:none;stroke-width:.00250093;stroke-linejoin:bevel;stroke-miterlimit:1.9" id="path177" d="m 21.824837,27.677237 c -5.71e-4,-0.0019 -0.0296,-0.208016 -0.06455,-0.45824 -0.03495,-0.250224 -0.08533,-0.610342 -0.111979,-0.80026 -0.02664,-0.189922 -0.04844,-0.346426 -0.04844,-0.34779 0,-0.0014 0.0059,-0.0025 0.01315,-0.0025 0.0072,0 0.01315,0.0012 0.01315,0.0027 0,0.0014 0.05029,0.363085 0.111767,0.803575 0.06147,0.44049 0.111766,0.801993 0.111766,0.803341 0,0.0038 -0.02367,0.003 -0.02485,-9.51e-4 z"/><rect style="fill:#fed849;fill-opacity:1;stroke:none;stroke-width:.226357;stroke-linejoin:bevel;stroke-miterlimit:1.9" id="rect178" width=".163" height="2.43" x="21.021" y="22.956"/><rect style="fill:#fed849;fill-opacity:1;stroke:none;stroke-width:.226357;stroke-linejoin:bevel;stroke-miterlimit:1.9" id="rect179" width=".179" height="1.675" x="21.092" y="23.627"/><rect style="fill:#fed849;fill-opacity:1;stroke:none;stroke-width:.226357;stroke-linejoin:bevel;stroke-miterlimit:1.9" id="rect180" width="1.094" height="3.135" x="20.448" y="25.462"/><rect style="fill:#fed849;fill-opacity:1;stroke:none;stroke-width:.226357;stroke-linejoin:bevel;stroke-miterlimit:1.9" id="rect181" width=".652" height=".842" x="20.658" y="24.936"/><rect style="fill:#fed849;fill-opacity:1;stroke:none;stroke-width:.226357;stroke-linejoin:bevel;stroke-miterlimit:1.9" id="rect182" width=".968" height="2.966" x="20.532" y="29.88"/><rect style="fill:#fed849;fill-opacity:1;stroke:none;stroke-width:.226357;stroke-linejoin:bevel;stroke-miterlimit:1.9" id="rect183" width="2.293" height="1.031" x="20.132" y="31.921"/></g></svg>