<svg xmlns="http://www.w3.org/2000/svg" xmlns:svg="http://www.w3.org/2000/svg" id="svg1" width="48" height="48" version="1.1" viewBox="0 0 12.7 12.7" xml:space="preserve"><g id="layer1"><path style="fill:#f64a46;fill-opacity:1;stroke:none;stroke-width:.249522" id="path4" d="m 1.7215525,9.0336798 -0.027688,-1.542996 1.2893676,0.5632379 1.2355177,0.596947 1.0264278,0.4746798 1.0448487,0.435723 3.2546981,-1.4975728 1.3038836,-0.5682549 0.06616,1.3920111 -4.6346087,3.8063391 z m 5.9420582,1.6909892 -2.8057761,0.02125 1.4347613,1.094692 z M 5.4220491,8.3675874 3.2234957,6.576007 1.7215525,5.3335261 1.6914169,3.7945322 4.9661682,5.291536 6.2653154,5.8120314 8.6148663,4.787622 10.831256,3.7952576 10.914764,5.2106188 10.271074,5.7642683 8.4864044,7.2532031 6.842348,8.6177371 6.2867327,9.0469853 Z M 7.6798099,6.988057 4.8409727,6.9948324 5.1215556,7.2732746 6.2545981,8.1633783 Z M 5.4681578,4.615812 3.2234957,2.7932366 1.6885427,1.5291048 1.6283063,0.06309275 6.3061751,2.1322284 10.826396,0.03028296 10.881754,1.4877556 9.9904914,2.2334266 8.1089365,3.7829267 6.7051337,4.9353156 6.2760072,5.2788631 Z M 6.9409539,3.8809614 7.5544037,3.3686859 7.6250021,3.2424742 4.8904873,3.1705885 6.285338,4.3575162 Z"/></g></svg>