<?xml version="1.0" encoding="UTF-8" standalone="no"?>
<!-- Created with Inkscape (http://www.inkscape.org/) -->

<svg
   width="48"
   height="48"
   viewBox="0 0 12.7 12.7"
   version="1.1"
   id="svg1"
   xml:space="preserve"
   inkscape:version="1.4 (86a8ad7, 2024-10-11)"
   sodipodi:docname="nexus.svg"
   xmlns:inkscape="http://www.inkscape.org/namespaces/inkscape"
   xmlns:sodipodi="http://sodipodi.sourceforge.net/DTD/sodipodi-0.dtd"
   xmlns="http://www.w3.org/2000/svg"
   xmlns:svg="http://www.w3.org/2000/svg"><sodipodi:namedview
     id="namedview1"
     pagecolor="#313131"
     bordercolor="#eeeeee"
     borderopacity="1"
     inkscape:showpageshadow="0"
     inkscape:pageopacity="0"
     inkscape:pagecheckerboard="0"
     inkscape:deskcolor="#505050"
     inkscape:document-units="px"
     inkscape:zoom="16"
     inkscape:cx="29.46875"
     inkscape:cy="24.15625"
     inkscape:window-width="1920"
     inkscape:window-height="1009"
     inkscape:window-x="4472"
     inkscape:window-y="-8"
     inkscape:window-maximized="1"
     inkscape:current-layer="layer1" /><defs
     id="defs1" /><g
     inkscape:label="Layer 1"
     inkscape:groupmode="layer"
     id="layer1"
     style="display:inline"><path
       style="display:inline;fill:none;fill-opacity:0.19457;stroke:#24fefb;stroke-width:0.290688;stroke-linejoin:bevel;stroke-miterlimit:1.9;stroke-dasharray:none;stroke-opacity:0.847619"
       id="path1"
       sodipodi:type="arc"
       sodipodi:cx="6.3597074"
       sodipodi:cy="6.3569722"
       sodipodi:rx="6.1277528"
       sodipodi:ry="5.8530169"
       sodipodi:start="0.00033750949"
       sodipodi:end="0"
       sodipodi:open="true"
       sodipodi:arc-type="arc"
       d="M 12.48746,6.3589477 A 6.1277528,5.8530169 0 0 1 6.3581562,12.209989 6.1277528,5.8530169 0 0 1 0.23195466,6.3559845 6.1277528,5.8530169 0 0 1 6.3602244,0.50395539 6.1277528,5.8530169 0 0 1 12.48746,6.3569722" /><path
       style="display:inline;fill:none;fill-opacity:0.19457;stroke:#24fefb;stroke-width:0.276759;stroke-linejoin:bevel;stroke-miterlimit:1.9;stroke-dasharray:none;stroke-opacity:0.853968"
       id="path1-2"
       sodipodi:type="arc"
       sodipodi:cx="-3.073719"
       sodipodi:cy="-8.1678429"
       sodipodi:rx="5.795579"
       sodipodi:ry="5.5188069"
       sodipodi:start="0.00033750949"
       sodipodi:end="0"
       sodipodi:open="true"
       sodipodi:arc-type="arc"
       d="M 2.7218596,-8.1659802 A 5.795579,5.5188069 0 0 1 -3.0751861,-2.6490361 5.795579,5.5188069 0 0 1 -8.8692979,-8.1687742 5.795579,5.5188069 0 0 1 -3.07323,-13.68665 5.795579,5.5188069 0 0 1 2.7218599,-8.1678429"
       transform="rotate(155.45285)" /><ellipse
       style="display:inline;fill:none;fill-opacity:0.19457;stroke:#24fefb;stroke-width:0.193794;stroke-linejoin:bevel;stroke-miterlimit:1.9;stroke-dasharray:none;stroke-opacity:0.699095"
       id="path2"
       cx="1.0138289"
       cy="6.3309093"
       rx="2.9953997"
       ry="2.5348022"
       transform="matrix(0.80197248,-0.59736098,0.60189997,0.79857149,0,0)" /><ellipse
       style="display:inline;fill:none;fill-opacity:0.19457;stroke:#24fefb;stroke-width:0.193793;stroke-linejoin:bevel;stroke-miterlimit:1.9;stroke-dasharray:none;stroke-opacity:0.850679"
       id="path3"
       cx="0.52961075"
       cy="7.5547724"
       rx="5.1252403"
       ry="4.4252534"
       transform="matrix(0.7355049,-0.6775194,0.67588712,0.73700515,0,0)" /><ellipse
       style="display:inline;fill:none;fill-opacity:0.19457;stroke:#24fefb;stroke-width:0.145346;stroke-linejoin:bevel;stroke-miterlimit:1.9;stroke-dasharray:none;stroke-opacity:0.748869"
       id="path4"
       cx="2.2317746"
       cy="8.7381859"
       rx="0.86847979"
       ry="5.830585"
       transform="matrix(0.84581237,-0.53348049,0.53690052,0.84364556,0,0)" /><ellipse
       style="fill:none;fill-opacity:0.19457;stroke:#24fefb;stroke-width:0.0971255;stroke-linejoin:bevel;stroke-miterlimit:1.9;stroke-dasharray:none;stroke-opacity:0.746606"
       id="path6"
       cx="6.2176247"
       cy="6.1927953"
       rx="2.4562278"
       ry="5.7630339"
       transform="matrix(0.99980504,0.01974565,0.07728851,0.99700877,0,0)" /><path
       style="fill:none;fill-opacity:0.19457;stroke:#24fefb;stroke-width:0.145345;stroke-linejoin:bevel;stroke-miterlimit:1.9;stroke-dasharray:none;stroke-opacity:0.748869"
       id="path7"
       sodipodi:type="arc"
       sodipodi:cx="8.9148483"
       sodipodi:cy="2.4702384"
       sodipodi:rx="3.3379152"
       sodipodi:ry="5.9189372"
       sodipodi:start="0.00033750949"
       sodipodi:end="6.2831853"
       sodipodi:open="true"
       sodipodi:arc-type="arc"
       d="M 12.252763,2.4722361 A 3.3379152,5.9189372 0 0 1 8.9140034,8.3891755 3.3379152,5.9189372 0 0 1 5.5769332,2.4692396 3.3379152,5.9189372 0 0 1 8.91513,-3.4486987 3.3379152,5.9189372 0 0 1 12.252764,2.4702384"
       transform="rotate(28.555625)" /><path
       style="fill:none;fill-opacity:0.19457;stroke:#24fefb;stroke-width:0.0978633;stroke-linejoin:bevel;stroke-miterlimit:1.9;stroke-dasharray:none;stroke-opacity:0.746606"
       id="path8"
       sodipodi:type="arc"
       sodipodi:cx="8.1195555"
       sodipodi:cy="-2.8849721"
       sodipodi:rx="2.6599715"
       sodipodi:ry="5.9697394"
       sodipodi:start="0.00033750949"
       sodipodi:end="6.2831853"
       sodipodi:open="true"
       sodipodi:arc-type="arc"
       d="M 10.779527,-2.8829573 A 2.6599715,5.9697394 0 0 1 8.1188822,3.0847672 2.6599715,5.9697394 0 0 1 5.459584,-2.8859795 a 2.6599715,5.9697394 0 0 1 2.6601959,-5.968732 2.6599715,5.9697394 0 0 1 2.6597471,5.9697394"
       transform="matrix(0.45978345,0.88803107,-0.89077086,0.45445271,0,0)" /><path
       style="fill:none;fill-opacity:0.19457;stroke:#24fefb;stroke-width:0.145345;stroke-linejoin:bevel;stroke-miterlimit:1.9;stroke-dasharray:none;stroke-opacity:0.748869"
       id="path9"
       sodipodi:type="arc"
       sodipodi:cx="6.0319862"
       sodipodi:cy="-6.5167084"
       sodipodi:rx="2.341469"
       sodipodi:ry="6.1497941"
       sodipodi:start="0.00033750949"
       sodipodi:end="6.2831853"
       sodipodi:open="true"
       sodipodi:arc-type="arc"
       d="M 8.3734552,-6.5146328 A 2.341469,6.1497941 0 0 1 6.0313935,-0.36691447 2.341469,6.1497941 0 0 1 3.6905172,-6.5177462 2.341469,6.1497941 0 0 1 6.0321838,-12.666502 2.341469,6.1497941 0 0 1 8.3734553,-6.5167084"
       transform="rotate(90.90721)" /><path
       style="fill:none;fill-opacity:0.19457;stroke:#24fefb;stroke-width:0.0968964;stroke-linejoin:bevel;stroke-miterlimit:1.9;stroke-dasharray:none;stroke-opacity:0.746606"
       id="path10"
       sodipodi:type="arc"
       sodipodi:cx="1.6809883"
       sodipodi:cy="-8.8885403"
       sodipodi:rx="0.71970028"
       sodipodi:ry="5.9666147"
       sodipodi:start="0.00033750949"
       sodipodi:end="6.2831853"
       sodipodi:open="true"
       sodipodi:arc-type="arc"
       d="M 2.4006885,-8.8865265 A 0.71970028,5.9666147 0 0 1 1.6808061,-2.9219257 0.71970028,5.9666147 0 0 1 0.96128805,-8.8895471 0.71970028,5.9666147 0 0 1 1.681049,-14.855155 0.71970028,5.9666147 0 0 1 2.4006886,-8.8885403"
       transform="rotate(122.22635)" /><path
       style="fill:#24fefb;fill-opacity:1;stroke:none;stroke-width:0.143481;stroke-linejoin:bevel;stroke-miterlimit:1.9;stroke-dasharray:none;stroke-opacity:0.847619"
       id="path11"
       sodipodi:type="arc"
       sodipodi:cx="4.2945924"
       sodipodi:cy="3.9352989"
       sodipodi:rx="0.15543808"
       sodipodi:ry="0.15543808"
       sodipodi:start="0.00033750949"
       sodipodi:end="6.2831853"
       sodipodi:open="true"
       sodipodi:arc-type="arc"
       d="M 4.4500305,3.9353514 A 0.15543808,0.15543808 0 0 1 4.294553,4.090737 0.15543808,0.15543808 0 0 1 4.1391543,3.9352727 0.15543808,0.15543808 0 0 1 4.2946055,3.7798608 0.15543808,0.15543808 0 0 1 4.4500305,3.9352989" /></g></svg>
