<svg xmlns="http://www.w3.org/2000/svg" xmlns:svg="http://www.w3.org/2000/svg" id="svg2" width="48" height="48" version="1.1" viewBox="0 0 48 48"><path id="path1" fill="none" d="M 0,0 H 24 V 24 H 0 Z"/><path id="path2" d="M 37.333586,0.01811909 H 5.4198972 c -2.9520162,0 -5.31894808,2.39352661 -5.31894808,5.31894811 V 42.569704 c 0,2.925421 2.36693188,5.318948 5.31894808,5.318948 H 42.652534 c 2.925421,0 5.318948,-2.393527 5.318948,-5.318948 V 10.656015 Z M 24.036216,42.569704 c -4.414727,0 -7.978423,-3.563695 -7.978423,-7.978422 0,-4.414727 3.563696,-7.978423 7.978423,-7.978423 4.414726,0 7.978422,3.563696 7.978422,7.978423 0,4.414727 -3.563696,7.978422 -7.978422,7.978422 z M 32.014638,15.974963 H 5.4198972 V 5.3370672 H 32.014638 Z" style="fill:#fd4a46;fill-opacity:1;stroke:none;stroke-width:2.65947"/></svg>