<svg xmlns="http://www.w3.org/2000/svg" xmlns:svg="http://www.w3.org/2000/svg" id="svg8" width="48" height="48" version="1.1" viewBox="0 0 48 48"><metadata id="metadata5"/><g id="layer25"><path style="display:inline;opacity:1;fill:#fafafa;fill-opacity:1;fill-rule:nonzero;stroke:none;stroke-width:9.575;stroke-linecap:butt;stroke-linejoin:miter;stroke-miterlimit:4;stroke-dasharray:none;stroke-dashoffset:1.9394;stroke-opacity:1;paint-order:markers stroke fill" id="path3872-6" d="M 23.9375,2.7e-7 C 10.717183,2.7e-7 3e-7,10.717184 3e-7,23.9375 3e-7,37.157817 10.717183,47.875 23.9375,47.875 37.157817,47.875 47.875,37.157817 47.875,23.9375 47.875,10.717184 37.157817,2.7e-7 23.9375,2.7e-7 Z m 0,5.98437463 c 9.915238,0 17.953125,8.0378881 17.953125,17.9531251 0,9.915238 -8.037887,17.953125 -17.953125,17.953125 -9.915238,0 -17.9531247,-8.037887 -17.9531247,-17.953125 0,-9.915237 8.0378867,-17.9531251 17.9531247,-17.9531251 z"/><path style="display:inline;opacity:1;fill:#007e7e;fill-opacity:0;fill-rule:nonzero;stroke:none;stroke-width:4;stroke-linecap:butt;stroke-linejoin:miter;stroke-miterlimit:4;stroke-dasharray:none;stroke-dashoffset:1.9394;stroke-opacity:1;paint-order:markers stroke fill" id="path3872" d="m 10,2 c -4.418278,0 -8,3.581722 -8,8 0,4.418278 3.581722,8 8,8 4.418278,0 8,-3.581722 8,-8 0,-4.418278 -3.581722,-8 -8,-8 z"/></g></svg>