<svg xmlns="http://www.w3.org/2000/svg" xmlns:svg="http://www.w3.org/2000/svg" id="svg8" width="48" height="48" version="1.1" viewBox="0 0 48 48"><metadata id="metadata5"/><g id="layer25"><path style="display:inline;opacity:1;fill:#f6d849;fill-opacity:1;fill-rule:nonzero;stroke:none;stroke-width:9.53986;stroke-linecap:butt;stroke-linejoin:miter;stroke-miterlimit:4;stroke-dasharray:none;stroke-dashoffset:1.9394;stroke-opacity:1;paint-order:markers stroke fill" id="path3872-6" d="m 23.960475,0.11871914 c -13.171789,0 -23.84963306,10.67784486 -23.84963306,23.84963386 0,13.17179 10.67784406,23.849635 23.84963306,23.849635 13.17179,0 23.849635,-10.677845 23.849635,-23.849635 0,-13.171789 -10.677845,-23.84963386 -23.849635,-23.84963386 z m 0,4.33488476 c 9.878843,0 19.495258,9.6359081 19.495258,19.5147491 0,9.878843 -9.616415,19.514747 -19.495258,19.514747 -9.878842,0 -19.5439853,-9.635904 -19.5439853,-19.514747 0,-9.878841 9.6651433,-19.5147491 19.5439853,-19.5147491 z"/><path style="display:inline;opacity:1;fill:#007e7e;fill-opacity:0;fill-rule:nonzero;stroke:none;stroke-width:4;stroke-linecap:butt;stroke-linejoin:miter;stroke-miterlimit:4;stroke-dasharray:none;stroke-dashoffset:1.9394;stroke-opacity:1;paint-order:markers stroke fill" id="path3872" d="m 10,2 c -4.418278,0 -8,3.581722 -8,8 0,4.418278 3.581722,8 8,8 4.418278,0 8,-3.581722 8,-8 0,-4.418278 -3.581722,-8 -8,-8 z"/></g></svg>