<svg xmlns="http://www.w3.org/2000/svg" xmlns:svg="http://www.w3.org/2000/svg" id="svg1" width="48" height="48" version="1.1" viewBox="0 0 12.7 12.7" xml:space="preserve"><g id="layer1"><path style="fill:#24fefb;fill-opacity:1;stroke:none;stroke-width:.271279" id="path1" d="m 6.2166985,12.593425 -1.2701803,-0.660959 0.3624591,-0.618314 1.1478309,0.556382 1.157387,-0.564947 0.3978498,0.623189 -1.2292129,0.661463 c -0.2390897,0.127007 -0.4096765,0.08275 -0.5661336,0.0032 z M 2.8645149,8.4583144 2.7909156,4.3371665 6.4385722,2.2728826 10.082168,4.2580262 10.144807,8.3158136 6.4232808,10.43443 Z M 6.8462562,6.8130954 8.7813157,6.7677387 8.7706367,5.8329147 6.8691435,5.8464429 6.8464172,3.8297583 H 6.056717 v 2.023411 l -2.023145,0.03136 0.007,0.9036997 h 1.9568998 l 0.027921,2.0658486 H 6.837382 Z M 0.67352179,9.2997827 V 3.2685818 L 1.9996945,2.359523 2.3961452,2.9840092 1.4985266,3.6821998 1.4774873,8.8900214 2.4737885,9.6061737 2.0688848,10.285141 Z M 10.707185,9.6640276 11.78273,8.8112409 11.749516,3.7539575 10.677971,3.068666 l 0.401157,-0.6844988 1.336245,0.8779437 0.02499,4.4251035 -0.0086,1.5973292 -1.314543,0.9592514 z M 4.7737921,0.81946097 6.4602291,0.02568723 8.0529717,0.77561785 7.6556212,1.4131259 6.4446758,0.89202139 5.1397493,1.4558524 Z"/></g></svg>