<?xml version="1.0" encoding="UTF-8" standalone="no"?>
<!-- Created with Inkscape (http://www.inkscape.org/) -->

<svg
   width="48"
   height="48"
   viewBox="0 0 12.7 12.7"
   version="1.1"
   id="svg1"
   xml:space="preserve"
   inkscape:version="1.4 (86a8ad7, 2024-10-11)"
   sodipodi:docname="archives.svg"
   xmlns:inkscape="http://www.inkscape.org/namespaces/inkscape"
   xmlns:sodipodi="http://sodipodi.sourceforge.net/DTD/sodipodi-0.dtd"
   xmlns="http://www.w3.org/2000/svg"
   xmlns:svg="http://www.w3.org/2000/svg"><sodipodi:namedview
     id="namedview1"
     pagecolor="#313131"
     bordercolor="#eeeeee"
     borderopacity="1"
     inkscape:showpageshadow="0"
     inkscape:pageopacity="0"
     inkscape:pagecheckerboard="0"
     inkscape:deskcolor="#505050"
     inkscape:document-units="px"
     inkscape:zoom="16.519978"
     inkscape:cx="30.47825"
     inkscape:cy="24.122309"
     inkscape:window-width="1920"
     inkscape:window-height="1009"
     inkscape:window-x="4472"
     inkscape:window-y="-8"
     inkscape:window-maximized="1"
     inkscape:current-layer="layer1" /><defs
     id="defs1" /><g
     inkscape:label="Layer 1"
     inkscape:groupmode="layer"
     id="layer1"><path
       style="fill:#24fefb;fill-opacity:1;stroke:none;stroke-width:0.271279"
       d="m 6.2166985,12.593425 -1.2701803,-0.660959 0.3624591,-0.618314 1.1478309,0.556382 1.157387,-0.564947 0.3978498,0.623189 -1.2292129,0.661463 c -0.2390897,0.127007 -0.4096765,0.08275 -0.5661336,0.0032 z M 2.8645149,8.4583144 2.7909156,4.3371665 6.4385722,2.2728826 10.082168,4.2580262 10.144807,8.3158136 6.4232808,10.43443 Z M 6.8462562,6.8130954 8.7813157,6.7677387 8.7706367,5.8329147 6.8691435,5.8464429 6.8464172,3.8297583 H 6.056717 v 2.023411 l -2.023145,0.03136 0.007,0.9036997 h 1.9568998 l 0.027921,2.0658486 H 6.837382 Z M 0.67352179,9.2997827 V 3.2685818 L 1.9996945,2.359523 2.3961452,2.9840092 1.4985266,3.6821998 1.4774873,8.8900214 2.4737885,9.6061737 2.0688848,10.285141 Z M 10.707185,9.6640276 11.78273,8.8112409 11.749516,3.7539575 10.677971,3.068666 l 0.401157,-0.6844988 1.336245,0.8779437 0.02499,4.4251035 -0.0086,1.5973292 -1.314543,0.9592514 z M 4.7737921,0.81946097 6.4602291,0.02568723 8.0529717,0.77561785 7.6556212,1.4131259 6.4446758,0.89202139 5.1397493,1.4558524 Z"
       id="path1"
       sodipodi:nodetypes="ccccccccccccccccccccccccccccccccccccccccccccccccccccccc" /></g></svg>
