<svg xmlns="http://www.w3.org/2000/svg" xmlns:svg="http://www.w3.org/2000/svg" id="svg1" width="48" height="48" version="1.1" viewBox="0 0 12.7 12.7" xml:space="preserve"><g id="layer1"><path style="fill:#24fefb;fill-opacity:1;stroke-width:.213264" id="path6" d="M 5.7914286,10.31459 C 5.57649,10.221671 5.3229512,9.7686999 5.3229512,9.4776108 c 0,-0.1047935 0.050784,-0.3381387 0.112852,-0.5185444 C 5.5026122,8.764883 5.5486555,8.4841011 5.5486555,8.2708715 5.5486555,8.022041 5.5137665,7.8422992 5.4358032,7.6894787 5.3703841,7.5612459 5.3224307,7.3546729 5.3217119,7.1979984 5.3203535,6.8997074 5.1759574,6.5321168 4.9980353,6.3739593 4.8224769,6.2179027 4.5590549,6.2342181 4.3949286,6.4113134 4.3186519,6.4936175 4.2321237,6.5609568 4.2026432,6.5609568 c -0.02948,0 -0.086172,0.082523 -0.1259813,0.1833849 -0.039809,0.1008615 -0.082492,0.2024152 -0.094851,0.2256748 -0.012359,0.023262 0.024076,0.059321 0.080968,0.080136 0.056891,0.020814 0.1752134,0.097004 0.2629389,0.1693082 0.1538033,0.1267655 0.432973,0.1811605 0.432973,0.084362 0,-0.025904 -0.076175,-0.1149713 -0.1692785,-0.1979265 C 4.3746441,6.9145376 4.3535922,6.6139633 4.5455409,6.4795173 4.7188716,6.3581119 4.7777336,6.3679063 4.9734347,6.5507186 5.0934369,6.6628176 5.1549332,6.7847494 5.1817882,6.9638327 5.2153086,7.1873615 5.1994329,7.2479488 5.0497453,7.467799 4.9561663,7.6052402 4.7361774,7.8573468 4.5608814,8.0280353 4.1804707,8.3984485 4.1206867,8.5038325 3.9636722,9.080768 3.8226376,9.5989835 3.7702807,9.6799983 3.6080952,9.6309684 3.3657397,9.5577021 3.2351855,9.3773538 3.2351855,9.1158288 c 0,-0.2343065 0.3284671,-1.4787623 0.4504919,-1.7067676 0.07198,-0.1344959 0.073433,-0.2274176 0.00356,-0.2274176 -0.086797,0 -0.2839867,0.489659 -0.4658283,1.1567357 C 3.1303496,8.6797573 3.0283419,8.9908059 2.9967244,9.029599 2.9123229,9.1331535 2.7025039,9.1155865 2.5502172,8.9922146 2.4383962,8.9016257 2.4188961,8.8386998 2.42877,8.6003158 2.43524,8.4441258 2.479675,8.1652788 2.527515,7.9806549 2.575356,7.7960317 2.614498,7.4899431 2.614498,7.3004578 c 0,-0.3276476 -0.00675,-0.3445185 -0.1377353,-0.3445185 -0.075754,0 -0.1522208,-0.023438 -0.1699253,-0.052085 C 2.2891325,6.8752078 2.1985021,6.8350454 2.1054358,6.8146048 1.9179419,6.773424 1.7505495,6.635014 1.7971161,6.5596677 1.813642,6.5329287 1.9411463,6.4939581 2.0804592,6.4730668 2.3569713,6.4316013 2.4513202,6.3557042 2.2990105,6.2972574 2.2432617,6.2758645 2.1028461,6.3126996 1.9685376,6.3839505 1.5092649,6.6275939 1.3929272,6.6124941 0.8315611,6.2363824 0.55528497,6.0512786 0.27210935,5.8699484 0.20228202,5.8334255 0.13245467,5.796903 0.07532337,5.7359925 0.07532337,5.6980693 c 0,-0.1533813 2.00128463,-2.6355311 2.12495163,-2.6355311 0.038291,0 0.2247856,0.09094 0.4144323,0.2020887 0.1896466,0.1111488 0.5782314,0.3046332 0.8635215,0.4299662 0.28529,0.1253325 0.5407773,0.2481682 0.5677496,0.2729688 0.026973,0.024801 0.071157,0.2820195 0.098189,0.5715972 0.075822,0.8122548 0.2703504,1.0638089 0.8207206,1.0613147 0.3847207,-0.00174 0.7251915,-0.17589 1.1002346,-0.562755 l 0.322651,-0.3328216 0.7016069,0.3562764 c 1.0356515,0.5259041 2.1827738,1.2988779 2.3365709,1.5744691 0.044534,0.079801 0.069233,0.4052233 0.070533,0.9292947 l 0.002,0.8064895 L 9.236847,8.6511401 C 8.8949766,9.0166267 8.8215626,9.0137118 8.820693,8.6346155 8.8201925,8.423351 8.779745,8.2679389 8.6796275,8.0928077 8.5118518,7.7993252 8.5024716,7.689478 8.645185,7.689478 c 0.1270777,0 0.25691,-0.1407423 0.2059282,-0.2232326 -0.020021,-0.032394 -0.1474649,-0.058898 -0.2832106,-0.058898 -0.222657,0 -0.2655813,-0.023467 -0.4386317,-0.2398106 C 7.8831941,6.8598981 7.6928504,6.5417659 7.6928504,6.4381218 c 0,-0.044715 -0.036378,-0.1305897 -0.080841,-0.190831 -0.064337,-0.08717 -0.095286,-0.095284 -0.1516032,-0.039745 -0.056639,0.055857 -0.047956,0.095275 0.043503,0.1974911 0.1469306,0.1642129 0.8872474,1.4812344 0.9681352,1.72231 0.033947,0.1011732 0.078556,0.3327558 0.099133,0.5146277 C 8.6078224,8.96587 8.6042724,8.9774289 8.3980716,9.2056691 8.1569779,9.4725314 8.0832049,9.4887481 7.9155878,9.3117288 7.7500087,9.1368612 7.3730622,8.3782486 7.2922161,8.0571799 7.2455524,7.8718603 7.1856953,7.7745113 7.0922269,7.7319244 7.018861,7.6984965 6.945084,7.6848962 6.9282786,7.7017018 6.9114727,7.7185076 7.0652465,8.0942159 7.2699969,8.5366097 7.4747476,8.9790037 7.6559967,9.4095914 7.6727728,9.4934712 7.7185339,9.7222767 7.5052057,9.9315637 7.1799851,9.9769238 6.852276,10.022631 6.7620634,9.9412201 6.7167854,9.5589171 6.6776202,9.2282269 6.5801022,9.0200777 6.3478645,8.7714664 6.1810526,8.5928938 6.0564932,8.5407923 6.0564932,8.6495899 c 0,0.031512 0.092621,0.1967912 0.2058242,0.3672877 0.3085843,0.4647616 0.3381141,1.0588814 0.061304,1.2333994 -0.2067897,0.130373 -0.341675,0.146673 -0.5321902,0.06431 z M 3.333931,6.9362515 C 3.1865178,6.8040668 3.065907,6.6569303 3.065907,6.6092803 c 0,-0.1721676 0.5478908,-0.320365 0.8124848,-0.2197668 0.1980345,0.075293 0.2717519,0.022575 0.1217792,-0.087088 -0.0665,-0.048626 -0.2461406,-0.080026 -0.4578307,-0.080026 -0.3250505,0 -0.367797,0.015788 -0.6381155,0.2356818 -0.1593498,0.1296253 -0.2897267,0.2562435 -0.2897267,0.2813734 0,0.02513 0.082523,0.083646 0.1833847,0.130034 0.1008618,0.046388 0.2718601,0.1356002 0.3799962,0.1982485 0.1081361,0.062648 0.2477905,0.1127684 0.3103434,0.1113776 0.090984,-0.00203 0.060124,-0.050599 -0.1542914,-0.2428633 z M 4.4060259,10.224134 C 4.25673,10.137177 4.1380031,9.866192 4.1380031,9.6123934 c 0,-0.2616144 0.2897357,-1.0983296 0.436474,-1.2604732 0.054619,-0.060354 0.1691946,-0.1458739 0.2546127,-0.1900453 0.1006583,-0.052052 0.1553047,-0.1256425 0.1553047,-0.2091427 0,-0.3256625 0.3023111,-0.4229398 0.3479529,-0.1119637 C 5.3827807,8.1843936 5.2767058,9.0998969 5.1580613,9.3449842 5.0065679,9.6579276 5.0102389,9.7322416 5.1876031,9.9430273 5.4101197,10.207473 5.3413868,10.2854 4.8874199,10.283364 4.676964,10.282411 4.4603368,10.255767 4.4060259,10.224134 Z M 1.7648111,7.9181048 C 1.2882818,7.7735063 1.2085931,7.6192762 1.406671,7.2249568 1.4887898,7.0614801 1.564508,6.9182579 1.5749332,6.9066857 1.6092303,6.8686142 2.3596755,7.0887203 2.4000605,7.1486961 2.4441596,7.2141882 2.3975806,7.6489674 2.3254998,7.8446507 2.2755755,7.9801854 2.0617267,8.008201 1.7648111,7.9181048 Z M 9.8907557,7.1957504 C 9.8865638,6.5196313 9.8411246,6.4597368 8.8210845,5.785841 8.3402089,5.4681475 7.6959061,5.0745754 7.3893001,4.9112362 7.0826941,4.747897 6.736828,4.5317328 6.6207089,4.4308713 6.5045893,4.3300097 6.3815725,4.2474866 6.3473378,4.2474866 c -0.034234,0 -0.1037003,0.080167 -0.154369,0.1781487 C 6.0715076,4.6605151 5.6206032,5.1393797 5.4262754,5.2398706 5.2054491,5.3540639 4.7958987,5.343412 4.6944733,5.2208366 4.5510757,5.0475368 4.4750576,4.7269354 4.4704212,4.2759121 4.4663532,3.8803001 4.4818436,3.8144387 4.6281934,3.6050572 4.7174486,3.4773606 4.9131524,3.2903583 5.0630906,3.1894967 5.3994869,2.9632066 5.6526566,2.952249 6.2048951,3.1400775 6.7695555,3.3321308 8.3763529,4.2802268 9.214834,4.9161018 9.7431795,5.3167803 9.7556633,5.2174806 9.2444039,4.6809 9.0427695,4.4692792 8.8777962,4.2605619 8.8777962,4.2170828 c 0,-0.043479 0.3040924,-0.2589996 0.6757615,-0.4789348 0.3716691,-0.2199351 0.6905643,-0.4238335 0.7086563,-0.4531069 0.09639,-0.1559642 0.288224,0.00215 1.0137,0.8354862 1.270857,1.4598143 1.326005,1.5267879 1.326005,1.6103467 0,0.076037 -0.64638,0.5583985 -1.777422,1.3264009 -0.279309,0.1896573 -0.571314,0.3962298 -0.6489,0.4590499 C 9.9303445,7.7149017 9.8937177,7.67368 9.8907557,7.1957501 Z M 5.1550957,4.8674478 C 5.5435461,4.6692753 5.7160851,4.227794 5.5063237,3.9687492 5.369391,3.7996442 5.1690971,3.8397359 5.2640921,4.0172355 5.3475939,4.1732601 5.3370238,4.395156 5.2368631,4.5888451 5.1609916,4.7355643 5.1208124,4.7553216 4.8983065,4.7553216 c -0.1727731,0 -0.2524684,0.02375 -0.2524684,0.075235 0,0.1849702 0.1917686,0.1988622 0.5092576,0.036891 z"/></g></svg>