<svg xmlns="http://www.w3.org/2000/svg" xmlns:svg="http://www.w3.org/2000/svg" id="svg1" width="48" height="48" version="1.1" viewBox="0 0 12.7 12.7" xml:space="preserve"><g id="layer1"><path style="fill:#24fefb;fill-opacity:1;stroke-width:.258288" id="path1" d="M 3.880307,12.516833 0.07996924,8.7992537 0.08634752,3.7531106 3.7760762,0.09812804 8.8521962,0.09137448 12.646825,3.8411831 12.658572,8.8435988 8.850314,12.53341 Z M 8.5707627,11.756332 11.871693,8.610196 11.862117,4.1004548 8.5971073,0.8244499 4.0911246,0.84661793 0.83241055,4.0591044 0.84422792,8.4615493 4.2549378,11.770578 Z m -3.7746171,-2.4378617 0.00527,-0.9366422 4.5518112,-0.015622 0.00151,0.9620448 z M 4.7925034,7.4786582 4.78358,6.5265444 9.3809394,6.5208383 9.3774085,7.4856932 Z M 3.0646198,5.6587008 3.0469147,4.7009366 4.0787618,4.6858852 4.0776286,5.6581615 Z m 1.7182038,-0.00774 -0.01991,-0.9765124 4.6383035,-0.00707 0.00126,0.9769688 -4.6196624,0.00662 z m -1.6756198,1.829561 -0.017705,-0.9577643 1.0318471,-0.015051 -0.00113,0.9722764 z m -0.01045,1.8411343 -0.017705,-0.9577643 1.0318469,-0.015051 -0.00113,0.9722765 z M 3.0676212,3.928222 3.0499161,2.9704578 4.0817631,2.9554064 4.08063,3.9276828 Z m 1.8448512,-0.00774 -0.01991,-0.9765124 1.0130238,-0.00707 0.00126,0.9769688 -0.9943828,0.00662 z m 1.7874679,-0.011083 -0.01991,-0.9765124 1.0130238,-0.00707 0.00126,0.9769688 -0.9943828,0.00662 z m 1.7178101,-0.00617 -0.01991,-0.9765124 1.0130239,-0.00707 0.00126,0.9769688 -0.9943828,0.00662 z"/></g></svg>