<?xml version="1.0" encoding="UTF-8" standalone="no"?>
<!-- Created with Inkscape (http://www.inkscape.org/) -->

<svg
   width="48"
   height="48"
   viewBox="0 0 12.7 12.7"
   version="1.1"
   id="svg1"
   xml:space="preserve"
   inkscape:version="1.4 (86a8ad7, 2024-10-11)"
   sodipodi:docname="instances.svg"
   xmlns:inkscape="http://www.inkscape.org/namespaces/inkscape"
   xmlns:sodipodi="http://sodipodi.sourceforge.net/DTD/sodipodi-0.dtd"
   xmlns="http://www.w3.org/2000/svg"
   xmlns:svg="http://www.w3.org/2000/svg"><sodipodi:namedview
     id="namedview1"
     pagecolor="#313131"
     bordercolor="#eeeeee"
     borderopacity="1"
     inkscape:showpageshadow="0"
     inkscape:pageopacity="0"
     inkscape:pagecheckerboard="0"
     inkscape:deskcolor="#505050"
     inkscape:document-units="px"
     inkscape:zoom="8.2599887"
     inkscape:cx="-13.498808"
     inkscape:cy="3.8135646"
     inkscape:window-width="1920"
     inkscape:window-height="1009"
     inkscape:window-x="4472"
     inkscape:window-y="-8"
     inkscape:window-maximized="1"
     inkscape:current-layer="layer1"
     inkscape:lockguides="false"
     showgrid="true"><sodipodi:guide
       position="0,52.916666"
       orientation="0,200"
       id="guide4"
       inkscape:locked="false" /><sodipodi:guide
       position="52.916666,52.916666"
       orientation="200,0"
       id="guide5"
       inkscape:locked="false" /><sodipodi:guide
       position="52.916666,0"
       orientation="0,-200"
       id="guide6"
       inkscape:locked="false" /><sodipodi:guide
       position="0,0"
       orientation="-200,0"
       id="guide7"
       inkscape:locked="false" /><inkscape:grid
       id="grid7"
       units="px"
       originx="0"
       originy="0"
       spacingx="1.3229166"
       spacingy="1.3229166"
       empcolor="#0099e5"
       empopacity="0.30196078"
       color="#0099e5"
       opacity="0.14901961"
       empspacing="5"
       enabled="true"
       visible="true" /><inkscape:grid
       id="grid1"
       units="px"
       originx="0"
       originy="0"
       spacingx="0.26458333"
       spacingy="0.26458333"
       empcolor="#0099e5"
       empopacity="0.30196078"
       color="#0099e5"
       opacity="0.14901961"
       empspacing="5"
       enabled="true"
       visible="true" /></sodipodi:namedview><defs
     id="defs1"><inkscape:path-effect
       effect="fillet_chamfer"
       id="path-effect7"
       is_visible="true"
       lpeversion="1"
       nodesatellites_param="F,0,0,1,0,1.8590231,0,1 @ F,0,0,1,0,0,0,1 @ F,0,0,1,0,0,0,1 @ F,0,0,1,0,2.3762262,0,1 @ F,0,0,1,0,0,0,1 @ F,0,0,1,0,0.88098041,0,1 @ F,0,0,1,0,3.0367773,0,1 @ F,0,0,1,0,1.2213575,0,1 | F,0,0,1,0,0,0,1 @ F,0,0,1,0,0,0,1 @ F,0,1,1,0,3.9337271,0,1 @ F,0,0,1,0,3.8658831,0,1 @ F,0,0,1,0,0,0,1 @ F,0,0,1,0,1.7055069,0,1 @ F,0,0,1,0,0,0,1 @ F,0,0,1,0,0,0,1 @ F,0,0,1,0,0,0,1"
       radius="0"
       unit="px"
       method="auto"
       mode="F"
       chamfer_steps="1"
       flexible="false"
       use_knot_distance="true"
       apply_no_radius="true"
       apply_with_radius="true"
       only_selected="false"
       hide_knots="false" /></defs><g
     inkscape:label="Layer 1"
     inkscape:groupmode="layer"
     id="layer1"><path
       style="fill:#24fefb;fill-opacity:1;stroke:none;stroke-width:0.0518589"
       d="m 5.2880165,11.901467 0.5331629,-0.529952 0.7965865,0.536156 0.7974228,-0.534841 0.5221169,0.528975 -1.3213775,0.796944 z M 6.4720783,10.244501 C 6.1982605,10.222453 6.0006302,10.035554 5.8445572,9.8230313 5.7454889,9.5003305 5.7200471,9.0967952 6.016755,8.860676 6.2773045,8.593099 6.1560942,8.208905 6.192866,7.8742452 L 6.170216,4.0570578 C 6.1261013,3.8280102 5.8878963,3.7532384 5.7897596,3.56752 5.6970425,3.2496408 5.6925861,2.8404483 5.9982247,2.6340695 6.2883102,2.3486902 6.8126376,2.3642765 7.1226552,2.6065052 7.4951849,2.9200974 7.4406234,3.51922 7.1083355,3.8431531 6.9157792,4.0817644 7.036815,4.4190168 6.9916034,4.7019453 7.0040041,6.0185088 6.9793336,7.3363589 7.0151496,8.6521095 7.1557101,8.937202 7.4386346,9.1918529 7.3737767,9.5430667 7.361441,9.8844556 7.092561,10.196454 6.7481976,10.243159 c -0.089716,0.02024 -0.1868561,0.03149 -0.2761197,0.0013 z M 6.7432649,9.7839938 C 7.0576788,9.6013993 6.8976486,8.9888661 6.5009806,9.0823855 6.1252461,9.1529037 6.1617408,9.8379658 6.5681251,9.81519 6.6224491,9.826947 6.6935559,9.80737 6.7432649,9.7839938 Z m -0.07233,-6.2570911 c 0.3428946,-0.083249 0.2636929,-0.69862 -0.1027914,-0.6567171 -0.3849956,-0.042485 -0.4412029,0.6382425 -0.058999,0.67422 0.052707,0.016013 0.1105433,-0.00309 0.1617904,-0.017503 z M 10.307035,9.2595783 11.120057,8.471134 11.109385,3.436804 10.317635,2.6449773 10.844084,2.1151075 11.911733,3.165 11.91045,8.7328905 10.848652,9.7988297 Z M 0.81641367,8.7405 0.80487652,3.1840041 1.8581967,2.1252808 2.3992289,2.6448963 1.5891493,3.4365611 1.5819293,8.4716766 2.3895237,9.2597442 1.8566024,9.8024352 Z M 4.7992881,8.6944117 C 4.5014561,8.6729807 4.2877692,8.3955104 4.1818781,8.1432485 4.1344878,7.8559129 4.1506818,7.5302217 4.3917709,7.329856 4.6656278,7.0226994 4.56813,6.5724898 4.6109222,6.1996145 4.6038499,5.9129089 4.6661551,5.5607611 4.4408269,5.3346469 4.3118984,5.1441856 4.1329626,4.9898252 4.1666645,4.7358744 4.1684497,4.4691241 4.2846841,4.2643216 4.4661249,4.1436166 4.7284368,3.9391985 5.0209507,3.9100559 5.328042,4.02806 5.6467118,4.107474 5.8366677,4.4632658 5.7899152,4.7608563 5.7602091,5.1531437 5.5549035,5.2236458 5.3851115,5.4172254 c -0.107043,0.2490482 -0.041834,0.5830569 -0.07003,0.8504403 0.036375,0.3163536 -0.01312,0.7196073 0.1701025,1.00011 0.1970651,0.1237025 0.3153639,0.3158558 0.2871276,0.4981408 0.041589,0.3088429 -0.057082,0.6581671 -0.33159,0.8289854 -0.1933654,0.097557 -0.4271376,0.1436634 -0.6414335,0.09951 z M 5.114131,8.2152322 C 5.4615768,8.106808 5.3497504,7.5448919 4.9976004,7.5490358 4.6019595,7.5009453 4.5151052,8.1725531 4.9078972,8.2329542 4.9763701,8.2265156 5.0520815,8.2532969 5.114131,8.2152322 Z M 5.1102937,5.0871387 C 5.4554563,4.9939417 5.3605229,4.4019648 4.9986933,4.4414182 4.6222623,4.3796772 4.5404515,5.0184731 4.892486,5.0981865 4.960512,5.1091135 5.0440744,5.1170985 5.1102937,5.0871387 Z M 7.9062188,8.6602629 C 7.6571141,8.6157258 7.4984124,8.4441762 7.4078279,8.2154001 7.3580805,8.1007777 7.2739606,7.8026473 7.4896593,7.4191932 7.794779,7.1660657 7.7299541,6.9073261 7.740415,6.6543648 7.7239557,6.2514259 7.7582,5.821425 7.6425545,5.4306043 7.5583054,5.3263886 7.3604463,5.1614042 7.3346294,4.9296091 7.3035359,4.7485491 7.2942437,4.3599993 7.5886814,4.1100997 7.9182323,3.8587744 8.3732013,3.8785055 8.6934355,4.1445697 8.9901431,4.4272504 8.962273,4.9109226 8.7743913,5.2469918 8.6083339,5.3836739 8.4092826,5.5153831 8.4387819,5.74944 c 0.012734,0.439963 -0.03516,0.9049298 0.013096,1.3403569 0.082305,0.2165361 0.317575,0.2804136 0.3915403,0.5634372 0.096463,0.362566 -0.012757,0.777313 -0.3923827,0.9580665 -0.1637002,0.077943 -0.3682436,0.095629 -0.5448172,0.048962 z M 8.3113501,8.2004842 c 0.3314332,-0.1685205 0.092968,-0.7572876 -0.2671426,-0.658172 -0.3719643,0.066747 -0.3103158,0.7650775 0.096054,0.7038019 0.064275,8.5e-4 0.1218854,0.00263 0.1710886,-0.04563 z m -0.05212,-3.148708 C 8.5975446,4.9438857 8.4904692,4.411334 8.1559233,4.3932212 7.7795559,4.3239671 7.6448746,4.8987174 7.960128,5.0648557 8.058533,5.0951537 8.1654287,5.1041397 8.25923,5.0517777 Z M 3.1237498,7.1040034 C 2.7102954,7.0542227 2.4206304,6.3626241 2.6998219,5.9465407 2.8707081,5.5801433 3.3963754,5.4345337 3.7846666,5.5922946 4.0684955,5.7374661 4.1309198,5.9610979 4.1936146,6.2045139 4.1922052,6.3419465 4.2387902,6.5383201 4.1199692,6.7458 4.0141394,6.9834029 3.8374315,7.0988037 3.5810108,7.1587843 3.4148547,7.1852807 3.2561927,7.1739953 3.1237498,7.1040034 Z M 3.5786047,6.6500414 C 3.9380581,6.4893845 3.6646989,5.8696652 3.3035183,6.0056503 c -0.3200574,0.091438 -0.312283,0.6654031 0.053824,0.68536 0.073742,0.00925 0.1571766,3.28e-5 0.2212624,-0.040969 z m 6.0561725,0.464241 C 9.4928055,7.1216688 9.1168964,7.0400981 9.0010631,6.7616724 8.8545943,6.5484519 8.8297667,6.2211572 8.9564667,5.9953496 9.09484,5.7216382 9.3143436,5.5522302 9.6113045,5.5103545 9.99613,5.4823439 10.384716,5.7192736 10.489968,6.1827459 10.522859,6.4418076 10.379152,6.8998866 10.01192,7.0467475 9.893461,7.0830745 9.759454,7.1356275 9.6347772,7.1142824 Z M 9.8204927,6.6355088 C 10.165267,6.5079876 10.021731,5.9366153 9.6680262,5.957418 c -0.41335,-0.011383 -0.4195825,0.7599933 0.0084,0.7092446 0.051039,-0.00197 0.1003258,-4.129e-4 0.1440705,-0.031154 z M 5.8226482,1.327272 5.2914469,0.80779555 6.6407014,0.02993161 7.9380079,0.81310517 7.4149108,1.3211073 6.6169858,0.81154257 Z"
       id="path13"
       sodipodi:nodetypes="ccccccccccccccccccccccccccsccsccccccccccccccccccscccccccccccccsscssssssccccccccccccscsccscccsccccccccccccccccccccccccccccccc" /></g></svg>
