<svg xmlns="http://www.w3.org/2000/svg" xmlns:svg="http://www.w3.org/2000/svg" id="svg1" width="48" height="48" version="1.1" viewBox="0 0 12.7 12.7" xml:space="preserve"><g id="layer1" style="display:inline"><path style="display:inline;fill:none;fill-opacity:.19457;stroke:#24fefb;stroke-width:.290688;stroke-linejoin:bevel;stroke-miterlimit:1.9;stroke-dasharray:none;stroke-opacity:.847619" id="path1" d="M 12.48746,6.3589477 A 6.1277528,5.8530169 0 0 1 6.3581562,12.209989 6.1277528,5.8530169 0 0 1 0.23195466,6.3559845 6.1277528,5.8530169 0 0 1 6.3602244,0.50395539 6.1277528,5.8530169 0 0 1 12.48746,6.3569722"/><path style="display:inline;fill:none;fill-opacity:.19457;stroke:#24fefb;stroke-width:.276759;stroke-linejoin:bevel;stroke-miterlimit:1.9;stroke-dasharray:none;stroke-opacity:.853968" id="path1-2" d="M 2.7218596,-8.1659802 A 5.795579,5.5188069 0 0 1 -3.0751861,-2.6490361 5.795579,5.5188069 0 0 1 -8.8692979,-8.1687742 5.795579,5.5188069 0 0 1 -3.07323,-13.68665 5.795579,5.5188069 0 0 1 2.7218599,-8.1678429" transform="rotate(155.45285)"/><ellipse style="display:inline;fill:none;fill-opacity:.19457;stroke:#24fefb;stroke-width:.193794;stroke-linejoin:bevel;stroke-miterlimit:1.9;stroke-dasharray:none;stroke-opacity:.699095" id="path2" cx="1.014" cy="6.331" rx="2.995" ry="2.535" transform="matrix(0.80197248,-0.59736098,0.60189997,0.79857149,0,0)"/><ellipse style="display:inline;fill:none;fill-opacity:.19457;stroke:#24fefb;stroke-width:.193793;stroke-linejoin:bevel;stroke-miterlimit:1.9;stroke-dasharray:none;stroke-opacity:.850679" id="path3" cx=".53" cy="7.555" rx="5.125" ry="4.425" transform="matrix(0.7355049,-0.6775194,0.67588712,0.73700515,0,0)"/><ellipse style="display:inline;fill:none;fill-opacity:.19457;stroke:#24fefb;stroke-width:.145346;stroke-linejoin:bevel;stroke-miterlimit:1.9;stroke-dasharray:none;stroke-opacity:.748869" id="path4" cx="2.232" cy="8.738" rx=".868" ry="5.831" transform="matrix(0.84581237,-0.53348049,0.53690052,0.84364556,0,0)"/><ellipse style="fill:none;fill-opacity:.19457;stroke:#24fefb;stroke-width:.0971255;stroke-linejoin:bevel;stroke-miterlimit:1.9;stroke-dasharray:none;stroke-opacity:.746606" id="path6" cx="6.218" cy="6.193" rx="2.456" ry="5.763" transform="matrix(0.99980504,0.01974565,0.07728851,0.99700877,0,0)"/><path style="fill:none;fill-opacity:.19457;stroke:#24fefb;stroke-width:.145345;stroke-linejoin:bevel;stroke-miterlimit:1.9;stroke-dasharray:none;stroke-opacity:.748869" id="path7" d="M 12.252763,2.4722361 A 3.3379152,5.9189372 0 0 1 8.9140034,8.3891755 3.3379152,5.9189372 0 0 1 5.5769332,2.4692396 3.3379152,5.9189372 0 0 1 8.91513,-3.4486987 3.3379152,5.9189372 0 0 1 12.252764,2.4702384" transform="rotate(28.555625)"/><path style="fill:none;fill-opacity:.19457;stroke:#24fefb;stroke-width:.0978633;stroke-linejoin:bevel;stroke-miterlimit:1.9;stroke-dasharray:none;stroke-opacity:.746606" id="path8" d="M 10.779527,-2.8829573 A 2.6599715,5.9697394 0 0 1 8.1188822,3.0847672 2.6599715,5.9697394 0 0 1 5.459584,-2.8859795 a 2.6599715,5.9697394 0 0 1 2.6601959,-5.968732 2.6599715,5.9697394 0 0 1 2.6597471,5.9697394" transform="matrix(0.45978345,0.88803107,-0.89077086,0.45445271,0,0)"/><path style="fill:none;fill-opacity:.19457;stroke:#24fefb;stroke-width:.145345;stroke-linejoin:bevel;stroke-miterlimit:1.9;stroke-dasharray:none;stroke-opacity:.748869" id="path9" d="M 8.3734552,-6.5146328 A 2.341469,6.1497941 0 0 1 6.0313935,-0.36691447 2.341469,6.1497941 0 0 1 3.6905172,-6.5177462 2.341469,6.1497941 0 0 1 6.0321838,-12.666502 2.341469,6.1497941 0 0 1 8.3734553,-6.5167084" transform="rotate(90.90721)"/><path style="fill:none;fill-opacity:.19457;stroke:#24fefb;stroke-width:.0968964;stroke-linejoin:bevel;stroke-miterlimit:1.9;stroke-dasharray:none;stroke-opacity:.746606" id="path10" d="M 2.4006885,-8.8865265 A 0.71970028,5.9666147 0 0 1 1.6808061,-2.9219257 0.71970028,5.9666147 0 0 1 0.96128805,-8.8895471 0.71970028,5.9666147 0 0 1 1.681049,-14.855155 0.71970028,5.9666147 0 0 1 2.4006886,-8.8885403" transform="rotate(122.22635)"/><path style="fill:#24fefb;fill-opacity:1;stroke:none;stroke-width:.143481;stroke-linejoin:bevel;stroke-miterlimit:1.9;stroke-dasharray:none;stroke-opacity:.847619" id="path11" d="M 4.4500305,3.9353514 A 0.15543808,0.15543808 0 0 1 4.294553,4.090737 0.15543808,0.15543808 0 0 1 4.1391543,3.9352727 0.15543808,0.15543808 0 0 1 4.2946055,3.7798608 0.15543808,0.15543808 0 0 1 4.4500305,3.9352989"/></g></svg>