<svg xmlns="http://www.w3.org/2000/svg" xmlns:svg="http://www.w3.org/2000/svg" id="svg8" width="48" height="48" version="1.1" viewBox="0 0 48 48" xml:space="preserve"><metadata id="metadata5"/><g id="layer25"><path style="display:inline;fill:#24fefb;fill-opacity:1;stroke:none;stroke-width:.270445px;stroke-linecap:butt;stroke-linejoin:miter;stroke-opacity:1" id="path358" d="M 11.138442,16.356252 V 1.4478918 H 47.81774 V 35.287504 l -5.459637,5.459635 H 24.762182 V 36.60593 l -4.090504,-4.056697 v -2.772077 l 2.65509,-1.250608 2.68623,0.0338 2.763046,1.342918 2.713494,0.0338 2.635292,-1.318654 2.672217,-0.0338 2.778946,1.385901 0.03151,9.373681 1.956164,0.0338 4.6652,-4.699008 L 46.39789,2.8001197 H 12.456869 V 16.322446 Z"/><path style="fill:#24fefb;fill-opacity:1;stroke:none;stroke-width:.295649px;stroke-linecap:butt;stroke-linejoin:miter;stroke-opacity:1" id="path359" d="m -0.0512796,46.406462 22.2104136,0.03696 -0.03696,-8.943296 -2.901028,-2.827114 -3.196674,-0.03696 -2.743965,1.41356 H 8.7811478 L 6.0455183,34.717451 H 2.979093 l -2.9989126,2.85109 z"/><path style="fill:#24fefb;fill-opacity:1;stroke:none;stroke-width:.285067;stroke-linejoin:bevel;stroke-miterlimit:1.9" id="path360" d="m 18.508105,25.858251 a 7.6063061,7.6063061 0 0 1 -7.608231,7.603739 7.6063061,7.6063061 0 0 1 -7.6043808,-7.607589 7.6063061,7.6063061 0 0 1 7.6069478,-7.605023 7.6063061,7.6063061 0 0 1 7.605664,7.606306"/><path style="fill:#24fefb;fill-opacity:1;stroke:none;stroke-width:.258461;stroke-linejoin:bevel;stroke-miterlimit:1.9" id="path360-2" d="m 36.999881,19.874383 a 6.8963847,6.8963847 0 0 1 -6.89813,6.894057 6.8963847,6.8963847 0 0 1 -6.894639,-6.897549 6.8963847,6.8963847 0 0 1 6.896966,-6.895221 6.8963847,6.8963847 0 0 1 6.895803,6.896385"/></g></svg>