<svg xmlns="http://www.w3.org/2000/svg" xmlns:svg="http://www.w3.org/2000/svg" id="svg8" width="48" height="48" version="1.1" viewBox="0 0 48 48" xml:space="preserve"><metadata id="metadata5"/><g id="layer25"><g style="display:inline;fill:#ff007f;fill-opacity:.298643" id="g3986" transform="matrix(0.30662423,2.2817048,-2.2817048,0.30662423,43.247476,-2.1458877)"><path id="path4137" d="M 1.4513137,13.271702 1.378746,19.110128 3.1404809,17.33415 C 5.0139392,19.210082 7.3487815,19.997528 10,20 16.614541,20.428778 21.397843,13.575523 20.261721,8.4378557 L 17.113349,8.6942701 C 17.820454,13.284541 13.794511,17.342632 10,17 8.1439885,16.998684 6.7336534,16.4694 5.4219132,15.156343 l 1.8117762,-1.792517 z" style="opacity:1;fill:#24fefb;fill-opacity:1;fill-rule:nonzero;stroke:none;stroke-width:6;stroke-linecap:butt;stroke-linejoin:miter;stroke-miterlimit:4;stroke-dasharray:none;stroke-dashoffset:120;stroke-opacity:1;paint-order:normal"/><path id="rect4142" d="M 10.369541,-0.50058496 C 1.5164658,0.0988215 -0.92894666,7.4316729 -0.05483438,11.829889 l 2.86783218,-0.5587 C 1.8817633,8.0513491 4.6757864,2.8243929 10.047699,2.7258579 c 1.856012,0.00132 3.60153,0.4921946 4.91327,1.8052516 l -1.659923,1.6174218 5.772713,0.4755898 -0.156087,-5.9932063 -1.822091,1.7604014 c -1.873458,-1.87593155 -4.074822,-2.88942898 -6.72604,-2.89190116 z" style="opacity:1;fill:#24fefb;fill-opacity:1;fill-rule:nonzero;stroke:none;stroke-width:6;stroke-linecap:butt;stroke-linejoin:miter;stroke-miterlimit:4;stroke-dasharray:none;stroke-dashoffset:120;stroke-opacity:1;paint-order:normal"/></g></g></svg>