<svg xmlns="http://www.w3.org/2000/svg" xmlns:svg="http://www.w3.org/2000/svg" id="svg1" width="48" height="48" version="1.1" viewBox="0 0 12.7 12.7" xml:space="preserve"><g id="layer1"><path style="fill:#24fdfb;fill-opacity:1;stroke:none;stroke-width:.055997" id="path13" d="m 6.4523907,12.654497 -1.3595647,-0.337195 -0.00195,-0.69051 1.3589879,0.341726 1.3693068,-0.336283 -0.010775,0.676007 z M 6.2889625,10.277072 3.0357686,8.5558255 3.035564,4.5083708 6.271903,2.7581576 c 0.099893,-0.032442 0.2098955,-0.048031 0.3560181,-0.00342 l 3.2227954,1.7292079 -0.00895,4.0746833 -3.2157547,1.7184892 c -0.091698,0.01031 -0.1310967,0.04677 -0.3370455,-4.5e-5 z M 6.4506602,9.6001763 C 6.6816878,9.5295304 6.8372988,9.4050154 6.9600332,9.2570171 L 6.9614999,7.9094864 8.1607327,7.2168025 8.149919,4.8347995 7.1366604,4.1339166 l 4.888e-4,2.055151 -1.3632212,0.0014 -0.00327,-2.0577257 -1.022715,0.699321 0.00218,2.3653044 1.1954289,0.6890029 0.00556,1.352821 c 0.1438024,0.1430395 0.2806995,0.2929895 0.499543,0.3609927 z m 4.7604948,0.3392817 -0.0046,-1.0364954 0.680126,-0.00595 0.01071,0.655316 z M 0.99601614,9.496219 0.99338815,8.9077156 1.697226,8.9027056 1.692393,9.936159 Z m 0.00352,-4.9879262 -0.005007,-1.3755207 5.12306865,-3.09313931 0.6666311,0.0166152 5.1067041,3.07721851 0.0061,1.3626482 -0.690927,-0.00223 -0.0042,-0.9986402 L 6.7833315,0.73086722 6.1166302,0.73849344 1.6969455,3.4766578 1.6853408,4.5050303 Z"/></g></svg>