<?xml version="1.0" encoding="UTF-8" standalone="no"?>
<!-- Created with Inkscape (http://www.inkscape.org/) -->

<svg
   width="48"
   height="48"
   viewBox="0 0 12.7 12.7"
   version="1.1"
   id="svg1"
   xml:space="preserve"
   inkscape:version="1.4 (86a8ad7, 2024-10-11)"
   sodipodi:docname="update.svg"
   xmlns:inkscape="http://www.inkscape.org/namespaces/inkscape"
   xmlns:sodipodi="http://sodipodi.sourceforge.net/DTD/sodipodi-0.dtd"
   xmlns="http://www.w3.org/2000/svg"
   xmlns:svg="http://www.w3.org/2000/svg"><sodipodi:namedview
     id="namedview1"
     pagecolor="#313131"
     bordercolor="#eeeeee"
     borderopacity="1"
     inkscape:showpageshadow="0"
     inkscape:pageopacity="0"
     inkscape:pagecheckerboard="0"
     inkscape:deskcolor="#505050"
     inkscape:document-units="px"
     inkscape:zoom="16.519978"
     inkscape:cx="31.446774"
     inkscape:cy="24.667104"
     inkscape:window-width="1920"
     inkscape:window-height="1009"
     inkscape:window-x="4472"
     inkscape:window-y="-8"
     inkscape:window-maximized="1"
     inkscape:current-layer="layer1" /><defs
     id="defs1" /><g
     inkscape:label="Layer 1"
     inkscape:groupmode="layer"
     id="layer1"><path
       id="path2"
       style="fill:#fdd849;fill-opacity:1;stroke:none;stroke-width:0.0526781;stroke-dasharray:none"
       d="M 6.4208877,0.05496382 C 5.7035806,0.09463346 5.1529414,0.62408505 4.5240003,0.9099546 3.6165211,1.4359813 2.7185772,1.9823085 1.8363583,2.5529978 1.3353506,2.740862 0.85838853,3.1191323 0.85343944,3.7011579 c 0.00131,1.6533676 -0.0270266,3.3078586 -0.007177,4.9605242 0.0475705,0.4651339 0.0721006,1.0995058 0.57957586,1.3005001 1.5238734,0.8042178 2.9638162,1.7563358 4.4973551,2.5415508 0.4040257,0.246104 0.8846694,0.126523 1.243361,-0.137056 1.056458,-0.59483 2.1096681,-1.198181 3.1451366,-1.825987 0.441379,-0.311776 1.016916,-0.459999 1.360503,-0.8899682 C 12.072373,8.8777525 11.879288,7.9843067 11.92757,7.1512558 11.90914,5.9466745 11.95362,4.7359858 11.87806,3.5350856 11.785667,2.8243475 11.020606,2.6311637 10.513669,2.2825197 9.3436196,1.5674251 8.1657978,0.86115273 6.9617643,0.20382072 6.7968873,0.10093463 6.6066395,0.09163752 6.4208877,0.05496382 Z M 6.1719337,0.7870745 C 6.4570609,0.7759255 6.738728,0.7949645 6.9799681,0.96693255 8.3082016,1.8065415 9.7270957,2.498205 11.053259,3.3364876 c 0.259563,0.1587063 0.360299,0.435521 0.312799,0.7222472 0,1.6010508 0,3.2021014 0,4.8031521 C 11.18538,9.5274294 10.43511,9.6929812 9.9181558,10.016576 9.3683396,10.293642 8.8809152,10.676616 8.3465553,10.973724 7.8426867,10.998965 8.0576913,10.174466 7.9998056,9.8471028 7.9780365,9.2866016 8.0369553,8.7129019 7.9521035,8.1596161 7.6224753,7.618202 7.7129025,6.9647919 7.6995315,6.3596897 7.6442786,5.7870301 8.1754444,5.9308192 8.2569458,6.3664145 8.6567898,7.106836 9.1294962,7.8057388 9.5534323,8.5293395 9.6766481,8.7121221 9.6555205,9.0740316 9.914462,9.1236008 10.156013,9.1955209 10.313773,8.8901606 10.288238,8.6816986 10.375811,8.1682321 9.8187496,7.8756698 9.6260605,7.4610294 9.1101204,6.4640517 8.5066617,5.5015799 8.1614762,4.4266677 7.9891908,3.7768418 7.0362012,4.0648331 6.8281566,3.4387323 6.8087238,3.1353249 6.890259,2.8508738 6.9779554,2.565644 7.038465,2.2581463 7.0726852,1.8390025 6.7391358,1.6719115 6.5176488,1.4523098 6.1718817,1.5222386 5.9834516,1.7488777 5.6424117,2.0977935 5.805782,2.6646134 5.9717847,3.0637295 6.0537809,3.3723084 5.9174568,3.7282766 5.5847693,3.8248272 4.9636687,3.866232 4.5711559,4.3324172 4.4663138,4.9164418 4.1446467,5.6387717 3.7370678,6.3228804 3.381096,7.0306822 3.1544701,7.5456143 2.6963036,7.9232466 2.5044606,8.4505549 2.4259083,8.6982645 2.4598158,9.1038246 2.7666115,9.160382 3.0596384,9.1739509 3.0944428,8.7686647 3.2441169,8.5902756 3.5507027,8.0644088 3.7889114,7.5003964 4.1740557,7.0223704 4.403872,6.6845231 4.5307978,6.1276557 4.9283793,5.9772431 5.2105692,6.0038536 5.059199,6.4286804 5.100943,6.6119642 5.0621647,6.9801882 5.1333307,7.3738611 5.0354893,7.7303807 4.8950034,7.978038 4.7962366,8.2416947 4.8391789,8.5294032 4.8232863,9.2995969 4.92886,10.076804 4.8587231,10.841613 4.6639838,11.195204 4.3013392,10.806077 4.0784229,10.693806 3.3361451,10.258907 2.5644412,9.873793 1.8178656,9.4499404 1.2995058,9.0149917 1.4766067,8.3052146 1.4424113,7.714944 1.4481496,6.3572545 1.4134382,4.9980918 1.4658354,3.6416059 1.739348,3.1654226 2.3276256,2.995721 2.7684347,2.7086439 3.8175093,2.0861211 4.8763971,1.4788882 5.9312619,0.86785815 6.0092963,0.83446153 6.0912846,0.81273296 6.1719349,0.7870739 Z m 0.2526042,8.3622428 c 0.5338344,0.273411 0.3872655,1.0336337 0.5634527,1.5305287 0.3086277,0.546515 0.00481,1.464837 -0.7418437,1.243706 C 5.7518391,11.846889 5.7965171,11.32715 5.8707031,10.967303 5.9726921,10.36357 5.9507958,9.6730075 6.3561254,9.1762597 Z" /></g></svg>
