<svg xmlns="http://www.w3.org/2000/svg" xmlns:svg="http://www.w3.org/2000/svg" id="svg8" width="48" height="48" version="1.1" viewBox="0 0 48 48"><metadata id="metadata5"/><g id="layer25"><path style="display:inline;opacity:1;fill:#f6d849;fill-opacity:1;fill-rule:nonzero;stroke:none;stroke-width:9.55317;stroke-linecap:butt;stroke-linejoin:miter;stroke-miterlimit:4;stroke-dasharray:none;stroke-dashoffset:1.9394;stroke-opacity:1;paint-order:markers stroke fill" id="path3872-6" d="m 23.993755,0.11871914 c -13.190169,0 -23.88291306,10.69274486 -23.88291306,23.88291386 0,13.190171 10.69274406,23.882916 23.88291306,23.882916 13.190171,0 23.882916,-10.692745 23.882916,-23.882916 0,-13.190169 -10.692745,-23.88291386 -23.882916,-23.88291386 z m 0,4.34093376 c 9.892629,0 19.522462,9.6493541 19.522462,19.5419801 0,9.892629 -9.629833,19.541979 -19.522462,19.541979 -9.892627,0 -19.5712571,-9.64935 -19.5712571,-19.541979 0,-9.892626 9.6786301,-19.5419801 19.5712571,-19.5419801 z"/><path style="display:inline;opacity:1;fill:#007e7e;fill-opacity:0;fill-rule:nonzero;stroke:none;stroke-width:4;stroke-linecap:butt;stroke-linejoin:miter;stroke-miterlimit:4;stroke-dasharray:none;stroke-dashoffset:1.9394;stroke-opacity:1;paint-order:markers stroke fill" id="path3872" d="m 10,2 c -4.418278,0 -8,3.581722 -8,8 0,4.418278 3.581722,8 8,8 4.418278,0 8,-3.581722 8,-8 0,-4.418278 -3.581722,-8 -8,-8 z"/></g></svg>