<svg xmlns="http://www.w3.org/2000/svg" xmlns:svg="http://www.w3.org/2000/svg" id="svg8" width="48" height="48" version="1.1" viewBox="0 0 48 48"><metadata id="metadata5"/><g id="layer25"><path style="display:inline;opacity:1;fill:#f6d849;stroke-width:9.54151;stroke-dashoffset:1.9394;paint-order:markers stroke fill" id="path3" d="m 23.964998,0.11914062 c -13.174079,0 -23.85366988,10.67959138 -23.85366988,23.85367138 0,13.17408 10.67959088,23.85367 23.85366988,23.85367 13.174082,0 23.853672,-10.67959 23.853672,-23.85367 0,-13.17408 -10.67959,-23.85367138 -23.853672,-23.85367138 z m 0,4.33575758 c 9.880561,0 19.49877,9.6373538 19.49877,19.5179138 0,9.880559 -9.618209,19.518381 -19.49877,19.518379 -9.880558,0 -19.5473278,-9.63782 -19.5473278,-19.518379 0,-9.88056 9.6667698,-19.5179138 19.5473278,-19.5179138 z"/><path style="fill:#f6d849;stroke-width:.288445;stroke-linejoin:bevel;stroke-miterlimit:1.9" id="path4" d="M 21.06192,8.2301191 V 32.356693 h 5.397287 l 0.374735,-3.744171 V 8.2301191 Z m 0.02168,14.6732149 1.317198,9.440689 H 21.07837 Z m -0.106197,11.796755 h 5.941781 V 40.3019 h -5.94178 z"/></g></svg>