<?xml version="1.0" encoding="UTF-8" standalone="no"?>
<!-- Created with Inkscape (http://www.inkscape.org/) -->

<svg
   width="48"
   height="48"
   viewBox="0 0 48 48"
   version="1.1"
   id="svg8"
   inkscape:export-filename="D:\Bethesda Game Modding\Mod Organizer 2\stylesheets\Paper\Dark\dots.png"
   inkscape:export-xdpi="307.20001"
   inkscape:export-ydpi="307.20001"
   inkscape:version="1.4 (86a8ad7, 2024-10-11)"
   sodipodi:docname="on.svg"
   xmlns:inkscape="http://www.inkscape.org/namespaces/inkscape"
   xmlns:sodipodi="http://sodipodi.sourceforge.net/DTD/sodipodi-0.dtd"
   xmlns="http://www.w3.org/2000/svg"
   xmlns:svg="http://www.w3.org/2000/svg"
   xmlns:rdf="http://www.w3.org/1999/02/22-rdf-syntax-ns#"
   xmlns:cc="http://creativecommons.org/ns#"
   xmlns:dc="http://purl.org/dc/elements/1.1/">
  <defs
     id="defs2" />
  <sodipodi:namedview
     id="base"
     pagecolor="#505050"
     bordercolor="#666666"
     borderopacity="1.0"
     inkscape:pageopacity="0"
     inkscape:pageshadow="2"
     inkscape:zoom="5.6568542"
     inkscape:cx="26.604893"
     inkscape:cy="68.677746"
     inkscape:document-units="px"
     inkscape:current-layer="layer25"
     showgrid="false"
     units="px"
     borderlayer="true"
     inkscape:showpageshadow="false"
     inkscape:snap-page="true"
     inkscape:snap-bbox="true"
     inkscape:bbox-nodes="true"
     inkscape:snap-bbox-edge-midpoints="true"
     inkscape:snap-bbox-midpoints="true"
     showguides="true"
     inkscape:guide-bbox="true"
     inkscape:window-width="1920"
     inkscape:window-height="1009"
     inkscape:window-x="4472"
     inkscape:window-y="-8"
     inkscape:window-maximized="1"
     inkscape:snap-center="true"
     inkscape:snap-object-midpoints="true"
     inkscape:measure-start="18.8975,12.498"
     inkscape:measure-end="20,12.498"
     inkscape:snap-intersection-paths="true"
     inkscape:object-paths="true"
     inkscape:snap-smooth-nodes="true"
     inkscape:snap-midpoints="true"
     inkscape:snap-global="true"
     inkscape:pagecheckerboard="0"
     inkscape:deskcolor="#505050">
    <sodipodi:guide
       position="10,10"
       orientation="1,0"
       id="guide4039"
       inkscape:locked="false" />
    <sodipodi:guide
       position="10,10"
       orientation="0,1"
       id="guide3935"
       inkscape:locked="false" />
  </sodipodi:namedview>
  <metadata
     id="metadata5">
    <rdf:RDF>
      <cc:Work
         rdf:about="">
        <dc:format>image/svg+xml</dc:format>
        <dc:type
           rdf:resource="http://purl.org/dc/dcmitype/StillImage" />
      </cc:Work>
    </rdf:RDF>
  </metadata>
  <g
     inkscape:groupmode="layer"
     id="layer25"
     inkscape:label="Content">
    <path
       d="m 23.996131,0.11914062 c -13.191274,0 -23.88480288,10.69352938 -23.88480288,23.88480238 0,13.191274 10.69352888,23.884804 23.88480288,23.884804 13.191274,0 23.884804,-10.69353 23.884804,-23.884804 0,-13.191273 -10.69353,-23.88480238 -23.884804,-23.88480238 z m 0,4.34141638 c 9.893457,0 19.524218,9.649932 19.524218,19.543386 0,9.893457 -9.630761,19.543856 -19.524218,19.543854 -9.893455,0 -19.5728404,-9.650397 -19.5728404,-19.543854 0,-9.893454 9.6793854,-19.543386 19.5728404,-19.543386 z"
       style="display:inline;opacity:1;fill:#fed849;fill-opacity:1;stroke-width:9.55397;stroke-dashoffset:1.9394;paint-order:markers stroke fill"
       id="path186" />
    <path
       d="m 23.766577,4.4974913 c -3.315681,0.052308 -6.651092,1.1473773 -9.805355,3.2399327 -3.9877271,2.645482 -7.1187663,6.622629 -8.5762371,10.894683 -1.1383561,3.336683 -1.2298659,6.587546 -0.2786434,9.87455 1.2768884,4.412358 4.2935342,8.544868 8.3223725,11.400541 2.871603,2.035413 6.111308,3.282985 9.234977,3.555979 3.928448,0.343326 8.126998,-0.903891 11.833469,-3.515305 1.500837,-1.057419 3.443294,-2.880216 4.551801,-4.271288 2.785956,-3.496111 4.296702,-7.320656 4.425103,-11.202781 C 43.614269,20.234804 41.973685,15.867501 38.800239,12.030218 38.109417,11.194888 36.738637,9.8278289 35.885236,9.1231616 33.191817,6.89916 30.141539,5.4013019 27.068223,4.7943684 25.9748,4.5784334 24.871806,4.4800552 23.766577,4.4974913 Z m -2.72145,3.7387796 h 2.918745 2.918278 V 18.513356 28.79091 l -0.158024,1.595654 c -0.08709,0.877702 -0.172027,1.697432 -0.188878,1.82147 l -0.03086,0.225345 H 23.774993 21.045127 V 20.334825 Z m -0.05283,26.4790871 h 2.998224 2.997756 v 2.838798 2.839266 h -2.997756 -2.998224 v -2.839266 z"
       style="fill:#fed849;fill-opacity:1;stroke-width:0.0504646;stroke-linejoin:bevel;stroke-miterlimit:1.9"
       id="path185" />
    <path
       style="fill:#fed849;fill-opacity:1;stroke:none;stroke-width:0.0504646;stroke-linejoin:bevel;stroke-miterlimit:1.9"
       d="m 21.15931,27.989379 c 0.0044,-2.415107 0.01786,-4.331406 0.02997,-4.258442 0.01211,0.07296 0.290236,2.04896 0.618056,4.391104 l 0.596036,4.258441 h -0.626007 -0.626006 z"
       id="path12" />
    <path
       style="fill:#fed849;fill-opacity:1;stroke:none;stroke-width:0.00111512;stroke-linejoin:bevel;stroke-miterlimit:1.9"
       d="m 21.107775,29.824385 c 0,-0.299133 3.59e-4,-0.794869 7.89e-4,-1.101634 l 7.9e-4,-0.557755 h 0.02443 0.02443 l -2.6e-5,0.120484 c -1.5e-5,0.06626 -7.91e-4,0.509102 -0.0017,0.984082 -9.33e-4,0.47498 -0.0017,0.9165 -0.0017,0.981151 l -2.8e-5,0.117551 h -0.02345 -0.02345 z"
       id="path13" />
    <path
       style="fill:#fed849;fill-opacity:1;stroke:none;stroke-width:0.00111512;stroke-linejoin:bevel;stroke-miterlimit:1.9"
       d="m 21.045628,29.26663 v -1.101634 h 0.02169 0.02169 v 1.101634 1.101634 h -0.02169 -0.02169 z"
       id="path14" />
    <path
       style="fill:#fed849;fill-opacity:1;stroke:none;stroke-width:0.000889228;stroke-linejoin:bevel;stroke-miterlimit:1.9"
       d="m 21.156299,29.286484 c 2e-6,-0.0072 1.48e-4,-0.01005 3.36e-4,-0.0063 1.78e-4,0.0038 1.77e-4,0.0096 -3e-6,0.01309 -1.8e-4,0.0035 -3.35e-4,4.78e-4 -3.35e-4,-0.0068 z"
       id="path15" />
    <path
       style="fill:#fed849;fill-opacity:1;stroke:none;stroke-width:0.000889228;stroke-linejoin:bevel;stroke-miterlimit:1.9"
       d="m 21.157242,29.287887 c 0,-0.008 1.43e-4,-0.01123 3.1e-4,-0.0072 1.76e-4,0.004 1.76e-4,0.0105 0,0.01448 -1.74e-4,0.004 -3.1e-4,7.18e-4 -3.1e-4,-0.0072 z"
       id="path16" />
    <path
       style="fill:#fed849;fill-opacity:1;stroke:none;stroke-width:0.000889228;stroke-linejoin:bevel;stroke-miterlimit:1.9"
       d="m 21.108244,29.736864 c 0,-0.229282 2.87e-4,-0.624595 6.22e-4,-0.878475 l 6.22e-4,-0.461602 h 0.02429 0.02429 l -5.99e-4,0.14657 c -3.35e-4,0.08061 -10e-4,0.451416 -0.0015,0.824008 -5.27e-4,0.372591 -0.0012,0.70195 -0.0015,0.731907 l -5.5e-4,0.05447 h -0.0228 -0.0228 z"
       id="path17" />
    <path
       style="fill:#fed849;fill-opacity:1;stroke:none;stroke-width:0.000889228;stroke-linejoin:bevel;stroke-miterlimit:1.9"
       d="m 21.10847,29.567698 c 1.32e-4,-0.322322 3.58e-4,-0.717634 4.78e-4,-0.878475 l 2.4e-4,-0.292436 h 0.02437 0.02437 l -5.27e-4,0.212956 c -0.001,0.412093 -0.0014,0.650666 -0.0019,1.047487 -2.64e-4,0.220365 -7.43e-4,0.42223 -0.001,0.448587 l -5.51e-4,0.04792 h -0.02281 -0.02281 z"
       id="path18" />
    <path
       style="fill:#fed849;fill-opacity:1;stroke:none;stroke-width:0.000889228;stroke-linejoin:bevel;stroke-miterlimit:1.9"
       d="m 21.155952,30.082442 c 1.2e-5,-0.03921 6.23e-4,-0.381405 0.0014,-0.760426 7.42e-4,-0.379022 0.0013,-0.742251 0.0014,-0.80718 l 2.1e-5,-0.118052 0.343338,2.36e-4 0.343338,2.36e-4 0.122256,0.873331 c 0.06725,0.480333 0.122542,0.875543 0.122891,0.878243 l 6.23e-4,0.0049 H 21.62363 21.156 Z"
       id="path19" />
    <path
       style="fill:#fed849;fill-opacity:1;stroke:none;stroke-width:0.000889228;stroke-linejoin:bevel;stroke-miterlimit:1.9"
       d="m 21.157275,29.304717 c 0,-0.01415 1.3e-4,-0.01994 2.88e-4,-0.01285 1.59e-4,0.0071 1.59e-4,0.01865 0,0.02571 -1.59e-4,0.0071 -2.88e-4,0.0012 -2.88e-4,-0.01285 z"
       id="path20" />
    <path
       style="fill:#fed849;fill-opacity:1;stroke:none;stroke-width:0.000889228;stroke-linejoin:bevel;stroke-miterlimit:1.9"
       d="m 19.438252,29.275264 v -0.878477 h 0.803204 0.803204 v 0.878477 0.878475 h -0.803204 -0.803204 z"
       id="path21" />
    <path
       style="fill:#fed849;fill-opacity:1;stroke:none;stroke-width:0.000889228;stroke-linejoin:bevel;stroke-miterlimit:1.9"
       d="m 21.04653,29.275264 v -0.878477 h 0.02104 0.02104 v 0.878477 0.878475 h -0.02104 -0.02104 z"
       id="path22" />
    <path
       style="fill:#fed849;fill-opacity:1;stroke:none;stroke-width:0.000889228;stroke-linejoin:bevel;stroke-miterlimit:1.9"
       d="m 21.04653,29.275264 v -0.878477 h 0.02104 0.02104 v 0.878477 0.878475 h -0.02104 -0.02104 z"
       id="path23" />
    <path
       style="fill:#fed849;fill-opacity:1;stroke:none;stroke-width:0.000889228;stroke-linejoin:bevel;stroke-miterlimit:1.9"
       d="m 21.04606,29.275264 c 0,-0.48342 1.07e-4,-0.681041 2.37e-4,-0.439161 1.3e-4,0.241881 1.3e-4,0.637404 0,0.878942 -1.3e-4,0.241538 -2.37e-4,0.04364 -2.37e-4,-0.439781 z"
       id="path24" />
    <path
       style="fill:#fed849;fill-opacity:1;stroke:none;stroke-width:0.000889228;stroke-linejoin:bevel;stroke-miterlimit:1.9"
       d="m 21.045595,29.275264 v -0.878477 h 0.02151 0.02151 v 0.878477 0.878475 h -0.02151 -0.02151 z"
       id="path25" />
    <path
       style="fill:#fed849;fill-opacity:1;stroke:none;stroke-width:0.000889228;stroke-linejoin:bevel;stroke-miterlimit:1.9"
       d="m 21.045125,29.275264 c 0,-0.48342 1.07e-4,-0.681041 2.37e-4,-0.439161 1.29e-4,0.241881 1.29e-4,0.637404 0,0.878942 -1.3e-4,0.241538 -2.37e-4,0.04364 -2.37e-4,-0.439781 z"
       id="path26" />
    <path
       style="fill:#fed849;fill-opacity:1;stroke:none;stroke-width:0.000889228;stroke-linejoin:bevel;stroke-miterlimit:1.9"
       d="m 21.045118,29.275731 c 0,-0.102084 1.1e-4,-0.143846 2.4e-4,-0.0928 1.34e-4,0.05105 1.34e-4,0.134565 0,0.185606 -1.34e-4,0.05105 -2.4e-4,0.0093 -2.4e-4,-0.0928 z"
       id="path27" />
    <path
       style="fill:#fed849;fill-opacity:1;stroke:none;stroke-width:0.000889228;stroke-linejoin:bevel;stroke-miterlimit:1.9"
       d="m 19.438252,29.275264 v -0.878477 h 0.803204 0.803204 v 0.878477 0.878475 h -0.803204 -0.803204 z"
       id="path28" />
    <path
       style="fill:#fed849;fill-opacity:1;stroke:none;stroke-width:0.000889228;stroke-linejoin:bevel;stroke-miterlimit:1.9"
       d="m 19.438252,29.275264 v -0.878477 h 0.803204 0.803204 v 0.878477 0.878475 h -0.803204 -0.803204 z"
       id="path29" />
    <path
       style="fill:#fed849;fill-opacity:1;stroke:none;stroke-width:0.000889228;stroke-linejoin:bevel;stroke-miterlimit:1.9"
       d="m 21.045595,29.275264 v -0.878477 h 0.02151 0.02151 v 0.878477 0.878475 h -0.02151 -0.02151 z"
       id="path30" />
    <path
       style="fill:#fed849;fill-opacity:1;stroke:none;stroke-width:0.000889228;stroke-linejoin:bevel;stroke-miterlimit:1.9"
       d="m 21.045595,29.275264 v -0.878477 h 0.02151 0.02151 v 0.878477 0.878475 h -0.02151 -0.02151 z"
       id="path31" />
    <path
       style="fill:#fed849;fill-opacity:1;stroke:none;stroke-width:0.000889228;stroke-linejoin:bevel;stroke-miterlimit:1.9"
       d="m 21.045595,29.275264 v -0.878477 h 0.02151 0.02151 v 0.878477 0.878475 h -0.02151 -0.02151 z"
       id="path32" />
    <path
       style="fill:#fed849;fill-opacity:1;stroke:none;stroke-width:0.000889228;stroke-linejoin:bevel;stroke-miterlimit:1.9"
       d="m 21.045595,29.275264 v -0.878477 h 0.02151 0.02151 v 0.878477 0.878475 h -0.02151 -0.02151 z"
       id="path33" />
    <path
       style="fill:#fed849;fill-opacity:1;stroke:none;stroke-width:0.000889228;stroke-linejoin:bevel;stroke-miterlimit:1.9"
       d="m 21.045595,29.275264 v -0.878477 h 0.02151 0.02151 v 0.878477 0.878475 h -0.02151 -0.02151 z"
       id="path34" />
    <path
       style="fill:#fed849;fill-opacity:1;stroke:none;stroke-width:0.000889228;stroke-linejoin:bevel;stroke-miterlimit:1.9"
       d="m 19.438252,29.275264 v -0.878477 h 0.803204 0.803204 v 0.878477 0.878475 h -0.803204 -0.803204 z"
       id="path35" />
    <path
       style="fill:#fed849;fill-opacity:1;stroke:none;stroke-width:0.000889228;stroke-linejoin:bevel;stroke-miterlimit:1.9"
       d="m 19.438252,29.275264 v -0.878477 h 0.803204 0.803204 v 0.878477 0.878475 h -0.803204 -0.803204 z"
       id="path36" />
    <path
       style="fill:#fed849;fill-opacity:1;stroke:none;stroke-width:0.000889228;stroke-linejoin:bevel;stroke-miterlimit:1.9"
       d="m 21.045595,29.275264 v -0.878477 h 0.02151 0.02151 v 0.878477 0.878475 h -0.02151 -0.02151 z"
       id="path37" />
    <path
       style="fill:#fed849;fill-opacity:1;stroke:none;stroke-width:0.000889228;stroke-linejoin:bevel;stroke-miterlimit:1.9"
       d="m 21.045595,29.275264 v -0.878477 h 0.02151 0.02151 v 0.878477 0.878475 h -0.02151 -0.02151 z"
       id="path38" />
    <path
       style="fill:#fed849;fill-opacity:1;stroke:none;stroke-width:0.000889228;stroke-linejoin:bevel;stroke-miterlimit:1.9"
       d="m 21.045104,29.275731 c 0,-0.03832 1.16e-4,-0.05399 2.64e-4,-0.03484 1.41e-4,0.01915 1.41e-4,0.05051 0,0.06966 -1.42e-4,0.01915 -2.64e-4,0.0035 -2.64e-4,-0.03483 z"
       id="path39" />
    <path
       style="fill:#fed849;fill-opacity:1;stroke:none;stroke-width:0.000889228;stroke-linejoin:bevel;stroke-miterlimit:1.9"
       d="m 21.045595,29.275264 v -0.878477 h 0.02151 0.02151 v 0.878477 0.878475 h -0.02151 -0.02151 z"
       id="path40" />
    <path
       style="fill:#fed849;fill-opacity:1;stroke:none;stroke-width:0.000889228;stroke-linejoin:bevel;stroke-miterlimit:1.9"
       d="m 21.045595,29.275264 v -0.878477 h 0.02151 0.02151 v 0.878477 0.878475 h -0.02151 -0.02151 z"
       id="path41" />
    <path
       style="fill:#fed849;fill-opacity:1;stroke:none;stroke-width:0.000889228;stroke-linejoin:bevel;stroke-miterlimit:1.9"
       d="m 21.04505,29.297705 c 1e-6,-0.0097 1.39e-4,-0.01364 3.11e-4,-0.0086 1.68e-4,0.0051 1.67e-4,0.01304 -2e-6,0.01776 -1.69e-4,0.0048 -3.11e-4,7.18e-4 -3.11e-4,-0.0091 z"
       id="path42" />
    <path
       style="fill:#fed849;fill-opacity:1;stroke:none;stroke-width:0.000889228;stroke-linejoin:bevel;stroke-miterlimit:1.9"
       d="m 21.045595,29.275264 v -0.878477 h 0.02151 0.02151 v 0.878477 0.878475 h -0.02151 -0.02151 z"
       id="path43" />
    <path
       style="fill:#fed849;fill-opacity:1;stroke:none;stroke-width:0.000889228;stroke-linejoin:bevel;stroke-miterlimit:1.9"
       d="m 19.438252,29.275264 v -0.878477 h 0.825177 0.825178 v 0.878477 0.878475 h -0.02151 -0.02151 l -2.36e-4,-0.423343 -2.36e-4,-0.423341 -2.32e-4,0.423341 -2.34e-4,0.423343 h -0.803203 -0.803204 z"
       id="path44" />
    <path
       style="fill:#fed849;fill-opacity:1;stroke:none;stroke-width:0.000889228;stroke-linejoin:bevel;stroke-miterlimit:1.9"
       d="m 19.438252,29.275264 v -0.878477 h 0.825177 0.825178 v 0.878477 0.878475 h -0.02151 -0.02151 l -2.36e-4,-0.377525 -2.37e-4,-0.377525 -2.32e-4,0.377525 -2.33e-4,0.377525 h -0.803197 -0.803203 z"
       id="path45" />
    <path
       style="fill:#fed849;fill-opacity:1;stroke:none;stroke-width:0.000889228;stroke-linejoin:bevel;stroke-miterlimit:1.9"
       d="m 19.438252,29.275264 v -0.878477 h 0.825177 0.825178 v 0.878477 0.878475 h -0.02151 -0.02151 l -2.37e-4,-0.273267 -2.37e-4,-0.273269 -2.32e-4,0.273269 -2.33e-4,0.273267 h -0.803204 -0.803203 z m 1.607069,0.322834 c -2.23e-4,-0.0012 -4.07e-4,-4.8e-4 -4.3e-4,0.0017 -10e-6,0.0021 1.72e-4,0.003 4.07e-4,0.0021 2.33e-4,-9.58e-4 2.38e-4,-0.0025 1.8e-5,-0.0038 z m 0,-0.02339 c -2.23e-4,-0.0012 -4.07e-4,-4.79e-4 -4.3e-4,0.0016 -10e-6,0.0021 1.72e-4,0.003 4.07e-4,0.0021 2.33e-4,-9.57e-4 2.38e-4,-0.0025 1.8e-5,-0.0038 z"
       id="path46" />
    <path
       style="fill:#fed849;fill-opacity:1;stroke:none;stroke-width:0.000889228;stroke-linejoin:bevel;stroke-miterlimit:1.9"
       d="m 19.438252,29.275264 v -0.878477 h 0.825177 0.825178 v 0.878477 0.878475 h -0.0215 -0.0215 l -2.37e-4,-0.191918 -2.39e-4,-0.191919 -2.31e-4,0.191919 -2.31e-4,0.191918 H 20.241464 19.43826 Z m 1.607028,0.474301 c -2.64e-4,-7.18e-4 -4.8e-4,-1.17e-4 -4.8e-4,0.0012 0,0.0012 2.13e-4,0.0019 4.8e-4,0.0012 2.62e-4,-7.18e-4 2.62e-4,-0.0017 0,-0.0024 z"
       id="path47" />
    <path
       style="fill:#fed849;fill-opacity:1;stroke:none;stroke-width:0.000889228;stroke-linejoin:bevel;stroke-miterlimit:1.9"
       d="m 21.156297,29.804733 c 3.12e-4,-0.191955 7.9e-4,-0.419906 0.001,-0.506561 2.64e-4,-0.08665 7.42e-4,-0.324919 0.001,-0.529471 l 5.98e-4,-0.371917 0.343226,2.36e-4 0.343227,2.36e-4 0.01099,0.07854 c 0.0061,0.0432 0.03413,0.243907 0.06242,0.446016 0.02829,0.202112 0.07629,0.54504 0.106659,0.762063 0.03037,0.217025 0.05753,0.411016 0.06034,0.431098 0.0028,0.02009 0.0051,0.03702 0.0051,0.03764 0,9.57e-4 -0.103026,0.0012 -0.467625,0.0012 h -0.467625 z"
       id="path48" />
    <path
       style="fill:#fed849;fill-opacity:1;stroke:none;stroke-width:0.000889228;stroke-linejoin:bevel;stroke-miterlimit:1.9"
       d="m 21.108467,29.55227 c 1.34e-4,-0.330807 3.58e-4,-0.726122 4.78e-4,-0.878475 l 2.36e-4,-0.277008 h 0.02445 0.02445 l -6.22e-4,0.177893 c -3.35e-4,0.09784 -8.37e-4,0.367659 -0.0011,0.599598 -2.63e-4,0.231939 -6.95e-4,0.428437 -9.1e-4,0.436667 -2.31e-4,0.0082 -5.27e-4,0.124571 -6.46e-4,0.25854 -1.23e-4,0.133967 -3.59e-4,0.252731 -5.27e-4,0.263917 l -2.87e-4,0.02034 h -0.02288 -0.02289 z"
       id="path49" />
    <path
       style="fill:#fed849;fill-opacity:1;stroke:none;stroke-width:0.000889228;stroke-linejoin:bevel;stroke-miterlimit:1.9"
       d="m 21.108455,29.54105 c 1.21e-4,-0.33698 3.35e-4,-0.732293 5.02e-4,-0.878477 l 2.63e-4,-0.265786 h 0.02443 0.02443 l -6.22e-4,0.201737 c -3.35e-4,0.110954 -8.37e-4,0.384771 -0.0011,0.608481 -2.63e-4,0.22371 -6.94e-4,0.414949 -9.1e-4,0.424978 -2.32e-4,0.01005 -5.26e-4,0.123425 -6.45e-4,0.251993 -1.22e-4,0.128569 -3.6e-4,0.241861 -5.27e-4,0.251762 l -3.12e-4,0.01801 h -0.02288 -0.02288 z"
       id="path50" />
    <path
       style="fill:#fed849;fill-opacity:1;stroke:none;stroke-width:0.000889228;stroke-linejoin:bevel;stroke-miterlimit:1.9"
       d="m 21.108464,29.513935 c 1.36e-4,-0.351893 3.59e-4,-0.747209 5.02e-4,-0.878478 l 2.4e-4,-0.23867 h 0.02445 0.02445 l -6.22e-4,0.225112 c -3.35e-4,0.123813 -8.38e-4,0.40331 -0.0011,0.621105 -2.87e-4,0.217795 -6.94e-4,0.401041 -9.1e-4,0.407212 -2.26e-4,0.0062 -5.03e-4,0.115782 -6.23e-4,0.24358 -1.15e-4,0.127798 -3.59e-4,0.238565 -5.26e-4,0.24615 l -3.35e-4,0.01378 h -0.02288 -0.02288 z"
       id="path51" />
    <path
       style="fill:#fed849;fill-opacity:1;stroke:none;stroke-width:0.000889228;stroke-linejoin:bevel;stroke-miterlimit:1.9"
       d="m 21.108466,29.494766 c 1.35e-4,-0.362435 3.59e-4,-0.757751 4.79e-4,-0.878476 l 2.38e-4,-0.219503 h 0.02439 0.02439 l -5.52e-4,0.337787 c -3.1e-4,0.185781 -7.65e-4,0.392694 -0.001,0.459807 -2.62e-4,0.06711 -6.94e-4,0.299379 -9.57e-4,0.516145 -2.64e-4,0.216767 -7.42e-4,0.405167 -10e-4,0.418668 l -5.5e-4,0.02454 h -0.02282 -0.02282 z"
       id="path52" />
    <path
       style="fill:#fed849;fill-opacity:1;stroke:none;stroke-width:0.000889228;stroke-linejoin:bevel;stroke-miterlimit:1.9"
       d="m 21.156206,29.26451 c 4.3e-5,-0.01054 3.83e-4,-0.02147 7.43e-4,-0.02431 3.82e-4,-0.003 6.22e-4,0.0027 5.74e-4,0.01403 -4.2e-5,0.01054 -3.84e-4,0.0215 -7.43e-4,0.02431 -3.83e-4,0.003 -6.22e-4,-0.0026 -5.74e-4,-0.01403 z"
       id="path53" />
    <path
       style="fill:#fed849;fill-opacity:1;stroke:none;stroke-width:0.000889228;stroke-linejoin:bevel;stroke-miterlimit:1.9"
       d="m 21.108469,29.441934 c 1.33e-4,-0.39149 3.59e-4,-0.786805 4.79e-4,-0.878475 l 2.39e-4,-0.166672 h 0.0243 0.0243 l -2.5e-5,0.173583 c -1.5e-5,0.09547 1.94e-4,0.173805 4.54e-4,0.174075 4.07e-4,4.79e-4 7.18e-4,-0.20127 5.03e-4,-0.315166 l -6.7e-5,-0.03249 0.343405,2.36e-4 0.343405,2.36e-4 0.0021,0.01449 c 0.0011,0.008 0.0023,0.01639 0.0025,0.0187 2.63e-4,0.0024 0.0036,0.0263 0.0074,0.0533 0.0039,0.027 0.0072,0.0512 0.0076,0.05377 3.36e-4,0.0025 0.0014,0.01015 0.0023,0.01683 9.57e-4,0.0067 0.002,0.01426 0.0023,0.01683 3.35e-4,0.0025 0.0022,0.01625 0.0043,0.03039 0.002,0.01415 0.0066,0.04697 0.01026,0.07293 0.0037,0.02597 0.0074,0.05311 0.0084,0.06031 0.001,0.0072 0.002,0.01477 0.0023,0.01683 2.4e-4,0.0021 0.0017,0.01257 0.0032,0.02339 0.0015,0.0108 0.003,0.02133 0.0032,0.02339 2.4e-4,0.0021 0.01329,0.09526 0.02899,0.207112 0.01569,0.111856 0.02875,0.205266 0.029,0.20758 2.39e-4,0.0024 6.46e-4,0.0053 9.09e-4,0.0065 5.99e-4,0.0031 0.0052,0.03565 0.0056,0.04 1.98e-4,0.0019 5.98e-4,0.0048 8.6e-4,0.0063 2.88e-4,0.0014 0.0035,0.02406 0.0071,0.05003 0.0037,0.02596 0.0068,0.04865 0.0071,0.05041 0.0012,0.0081 0.03609,0.25776 0.03645,0.260791 2.26e-4,0.0019 0.0017,0.01228 0.0032,0.02307 0.0015,0.01079 0.003,0.02133 0.0032,0.02339 2.39e-4,0.0021 0.0017,0.01257 0.0032,0.02339 0.0015,0.0108 0.003,0.02133 0.0032,0.02339 2.39e-4,0.0021 0.0047,0.03362 0.0098,0.07013 0.0052,0.03651 0.0095,0.06828 0.0098,0.0706 2.4e-4,0.0024 6.47e-4,0.0053 9.1e-4,0.0065 2.39e-4,0.0012 0.0017,0.01158 0.0033,0.02291 0.0016,0.01132 0.003,0.02183 0.0032,0.02339 4.55e-4,0.0032 0.0069,0.04913 0.0075,0.0533 5.51e-4,0.004 0.0056,0.0396 0.0094,0.06733 0.0018,0.01285 0.0035,0.02463 0.0037,0.02618 2.11e-4,0.0014 0.0027,0.01963 0.0057,0.04021 0.0029,0.02056 0.0055,0.03909 0.0057,0.04114 2.39e-4,0.0021 6.69e-4,0.0055 9.57e-4,0.0077 l 5.02e-4,0.004 -0.467768,1e-5 -0.467769,10e-6 6.23e-4,-0.310205 c 7.65e-4,-0.370896 8.13e-4,-0.554825 1.47e-4,-0.555481 -2.63e-4,-2.39e-4 -4.54e-4,0.04051 -4.3e-4,0.0906 3e-5,0.0501 -1.81e-4,0.178188 -4.79e-4,0.284644 -2.87e-4,0.106456 -5.27e-4,0.255618 -5.27e-4,0.331473 -6e-6,0.07585 -2.87e-4,0.142652 -5.98e-4,0.148438 l -5.99e-4,0.01054 h -0.02278 -0.02278 z m 0.04935,-0.439206 c 1.7e-5,-0.130272 -1.91e-4,-0.237082 -4.54e-4,-0.237352 -4.32e-4,-4.79e-4 -6.7e-4,0.162069 -5.51e-4,0.35467 2e-5,0.02983 3.9e-5,0.06913 4.3e-5,0.08735 3e-6,0.01822 2.14e-4,0.03291 4.78e-4,0.03265 2.64e-4,-2.4e-4 4.79e-4,-0.107047 5.04e-4,-0.23732 z m -3.11e-4,-0.241955 c -2.37e-4,-9.57e-4 -4.55e-4,-4.79e-4 -4.55e-4,0.0012 -1.9e-5,0.0014 1.75e-4,0.0024 4.31e-4,0.0017 2.63e-4,-7.19e-4 2.63e-4,-0.0019 3.5e-5,-0.0028 z m -2.9e-5,-0.0052 c -2.62e-4,-7.17e-4 -4.79e-4,-1.16e-4 -4.79e-4,0.0012 0,0.0012 2.12e-4,0.0019 4.79e-4,0.0012 2.63e-4,-7.18e-4 2.63e-4,-0.0017 0,-0.0024 z"
       id="path54" />
    <path
       style="fill:#fed849;fill-opacity:1;stroke:none;stroke-width:0.000889228;stroke-linejoin:bevel;stroke-miterlimit:1.9"
       d="m 21.108471,29.452689 c 1.32e-4,-0.38558 3.59e-4,-0.780893 4.79e-4,-0.878477 l 2.39e-4,-0.177425 h 0.0243 0.0243 l 2.39e-4,0.166672 2.39e-4,0.166673 2.3e-4,-0.166673 2.32e-4,-0.166675 0.343383,2.36e-4 0.343384,2.36e-4 0.0058,0.04161 c 0.0032,0.02288 0.0085,0.06118 0.01192,0.08509 0.0033,0.02391 0.01684,0.120269 0.02997,0.214124 0.01313,0.09386 0.02638,0.18853 0.02945,0.210386 0.003,0.02185 0.01737,0.124105 0.03179,0.227217 0.01442,0.103111 0.02915,0.208303 0.03272,0.233761 0.0036,0.02546 0.01662,0.118658 0.02899,0.207114 0.04396,0.314253 0.04781,0.341803 0.05423,0.387576 0.01789,0.127533 0.02056,0.146795 0.02056,0.148145 0,0.0014 -0.04433,0.0014 -0.467618,0.0014 h -0.467617 l 6.7e-4,-0.429888 c 3.82e-4,-0.23644 4.54e-4,-0.429677 1.98e-4,-0.429421 -2.63e-4,2.39e-4 -7.42e-4,0.1875 -0.001,0.416095 -3.11e-4,0.228595 -8.38e-4,0.421835 -0.0011,0.429421 l -5.51e-4,0.01378 h -0.02281 -0.02281 z m 0.0491,-0.560561 c -1.33e-4,-0.06287 -2.4e-4,-0.01144 -2.4e-4,0.11431 0,0.12574 1.09e-4,0.177178 2.4e-4,0.11431 1.33e-4,-0.06287 1.33e-4,-0.165749 0,-0.22862 z"
       id="path55" />
    <path
       style="fill:#fed849;fill-opacity:1;stroke:none;stroke-width:0.000889228;stroke-linejoin:bevel;stroke-miterlimit:1.9"
       d="m 21.108468,29.429779 c 1.34e-4,-0.398176 3.59e-4,-0.793492 4.79e-4,-0.878476 l 2.39e-4,-0.154516 h 0.0243 0.0243 l 2.39e-4,0.133478 2.4e-4,0.133479 2.3e-4,-0.133479 2.31e-4,-0.133478 h 0.343191 c 0.273716,0 0.343272,2.37e-4 0.343592,0.0012 2.21e-4,7.18e-4 0.0074,0.05124 0.01592,0.112438 0.0085,0.0612 0.01758,0.125998 0.02012,0.143998 0.0065,0.04597 0.01762,0.125656 0.02657,0.189813 0.0056,0.04007 0.03578,0.255742 0.0426,0.304358 0.0036,0.02546 0.02251,0.160733 0.04207,0.300618 0.01957,0.139882 0.0385,0.27516 0.04207,0.300617 0.02778,0.197891 0.05611,0.401015 0.05611,0.40234 0,0.0014 -0.02701,0.0017 -0.467522,0.0017 h -0.467523 v -0.204931 c 0,-0.112713 -2.09e-4,-0.204723 -4.54e-4,-0.204469 -2.64e-4,2.39e-4 -5.27e-4,0.08984 -5.99e-4,0.199088 -7.5e-5,0.109242 -3.35e-4,0.201254 -5.5e-4,0.204466 l -4.07e-4,0.0059 h -0.02284 -0.02283 z m 0.04717,0.309033 c -2.35e-4,-9.58e-4 -4.31e-4,-1.65e-4 -4.31e-4,0.0017 0,0.0019 1.93e-4,0.0025 4.31e-4,0.0017 2.36e-4,-9.58e-4 2.36e-4,-0.0024 0,-0.0032 z m 9.33e-4,-0.0088 c -2.87e-4,-7.19e-4 -5.26e-4,-4.79e-4 -5.75e-4,4.78e-4 -3.9e-5,9.58e-4 1.81e-4,0.0014 5.04e-4,0.0012 3.1e-4,-2.39e-4 3.35e-4,-0.0012 7.3e-5,-0.0016 z m 6.3e-5,-0.310961 c -1.33e-4,-0.05593 -2.4e-4,-0.01017 -2.4e-4,0.101687 0,0.111854 1.09e-4,0.157612 2.4e-4,0.101685 1.33e-4,-0.05593 1.33e-4,-0.147445 0,-0.203372 z m 9.34e-4,-0.480147 c -1.36e-4,-0.03664 -2.4e-4,-0.0067 -2.4e-4,0.06663 0,0.07328 1.11e-4,0.103265 2.4e-4,0.06663 1.35e-4,-0.03664 1.35e-4,-0.0966 0,-0.133244 z"
       id="path56" />
    <path
       style="fill:#fed849;fill-opacity:1;stroke:none;stroke-width:0.000889228;stroke-linejoin:bevel;stroke-miterlimit:1.9"
       d="m 21.108459,29.401729 c 1.38e-4,-0.413608 3.58e-4,-0.80892 5.02e-4,-0.878477 l 2.4e-4,-0.126465 h 0.02429 0.02429 l 2.39e-4,0.102621 2.39e-4,0.102623 2.3e-4,-0.102623 2.3e-4,-0.102621 h 0.343191 c 0.273708,0 0.343274,2.37e-4 0.343604,0.0012 2.27e-4,7.18e-4 0.0055,0.03735 0.01162,0.08159 0.0097,0.06984 0.01873,0.134124 0.04401,0.314642 0.03543,0.253066 0.147246,1.052057 0.167417,1.196392 0.01028,0.07354 0.01952,0.139529 0.02054,0.146641 0.001,0.0071 0.0018,0.01374 0.0018,0.01472 0,0.0017 -0.0071,0.0019 -0.467524,0.0019 h -0.467522 l -2.19e-4,-0.190982 -2.21e-4,-0.190985 -5.02e-4,0.19075 c -2.87e-4,0.104911 -5.99e-4,0.190854 -7.18e-4,0.190982 -1.14e-4,1.3e-4 -0.01053,2.35e-4 -0.02313,2.35e-4 h -0.02293 z m 0.04817,0.05797 c -1.37e-4,-0.02995 -2.4e-4,-0.0055 -2.4e-4,0.05447 0,0.05991 1.12e-4,0.08442 2.4e-4,0.05447 1.37e-4,-0.02995 1.37e-4,-0.07898 0,-0.108932 z m 9.34e-4,-0.482415 c -1.43e-4,-0.01714 -2.64e-4,-0.0033 -2.64e-4,0.03055 0,0.03394 1.17e-4,0.04796 2.64e-4,0.03116 1.42e-4,-0.01681 1.42e-4,-0.04458 0,-0.06171 z m -6.3e-5,-0.0346 c -2.87e-4,-7.18e-4 -5.27e-4,-4.79e-4 -5.75e-4,4.79e-4 -4e-5,9.57e-4 1.81e-4,0.0014 5.03e-4,0.0012 3.11e-4,-2.4e-4 3.36e-4,-0.0012 7.4e-5,-0.0017 z"
       id="path57" />
    <path
       style="fill:#fed849;fill-opacity:1;stroke:none;stroke-width:0.000889228;stroke-linejoin:bevel;stroke-miterlimit:1.9"
       d="m 21.108466,29.392846 c 1.33e-4,-0.418493 3.59e-4,-0.813806 4.79e-4,-0.878477 l 2.4e-4,-0.117582 h 0.02429 0.0243 l 2.38e-4,0.07644 2.4e-4,0.07644 2.28e-4,-0.07644 2.29e-4,-0.07644 0.343395,2.36e-4 0.343396,2.36e-4 0.004,0.02758 c 0.0021,0.01517 0.0092,0.06525 0.01564,0.11127 0.01545,0.110576 0.04482,0.320507 0.05241,0.374488 0.0058,0.04099 0.05832,0.416666 0.12817,0.915876 0.01773,0.12677 0.03476,0.248583 0.03785,0.270696 0.003,0.02212 0.006,0.04303 0.0065,0.04647 5.04e-4,0.0035 9.34e-4,0.0071 9.34e-4,0.0082 v 0.0019 H 21.623434 21.155911 V 29.99093 c 0,-0.08957 -2.08e-4,-0.162645 -4.56e-4,-0.162391 -2.62e-4,2.39e-4 -5.25e-4,0.07133 -5.74e-4,0.157945 -6.8e-5,0.08661 -3.11e-4,0.159691 -5.75e-4,0.162391 l -4.3e-4,0.0049 h -0.02283 -0.02283 z m 0.04717,0.430646 c -2.87e-4,-7.18e-4 -5.27e-4,-4.78e-4 -5.74e-4,4.79e-4 -4.1e-5,9.57e-4 1.8e-4,0.0014 5.02e-4,0.0012 3.12e-4,-2.4e-4 3.35e-4,-0.0012 7.4e-5,-0.0017 z m 9.34e-4,-0.270229 c -2.87e-4,-7.18e-4 -5.27e-4,-4.78e-4 -5.75e-4,4.79e-4 -4e-5,9.57e-4 1.81e-4,0.0014 5.03e-4,0.0012 3.11e-4,-2.4e-4 3.35e-4,-0.0012 7.4e-5,-0.0017 z m 6.1e-5,-0.05844 c -1.51e-4,-0.0096 -2.87e-4,-0.0019 -2.87e-4,0.01699 0,0.01903 1.24e-4,0.02694 2.87e-4,0.01759 1.52e-4,-0.0093 1.53e-4,-0.02492 10e-7,-0.03459 z m -6.1e-5,-0.02011 c -2.87e-4,-7.17e-4 -5.27e-4,-4.79e-4 -5.75e-4,4.79e-4 -4e-5,9.57e-4 1.81e-4,0.0014 5.03e-4,0.0012 3.11e-4,-2.39e-4 3.35e-4,-0.0012 7.4e-5,-0.0017 z m 9.34e-4,-0.467523 c -2.88e-4,-7.19e-4 -5.27e-4,-4.79e-4 -5.75e-4,4.78e-4 -4e-5,9.58e-4 1.8e-4,0.0014 5.03e-4,0.0012 3.1e-4,-2.39e-4 3.35e-4,-0.0012 7.3e-5,-0.0016 z m 0,-0.0047 c -2.88e-4,-7.19e-4 -5.27e-4,-4.79e-4 -5.75e-4,4.79e-4 -4e-5,9.57e-4 1.8e-4,0.0014 5.03e-4,0.0012 3.1e-4,-2.4e-4 3.35e-4,-0.0012 7.3e-5,-0.0017 z"
       id="path58" />
    <path
       style="fill:#fed849;fill-opacity:1;stroke:none;stroke-width:0.000889228;stroke-linejoin:bevel;stroke-miterlimit:1.9"
       d="m 21.108469,29.379755 c 1.33e-4,-0.425692 3.59e-4,-0.821006 4.79e-4,-0.878475 l 2.39e-4,-0.104493 h 0.0243 0.0243 l 2.38e-4,0.0554 2.4e-4,0.0554 2.26e-4,-0.0554 2.27e-4,-0.0554 0.343374,2.36e-4 0.343373,2.36e-4 6.95e-4,0.0043 c 3.82e-4,0.0024 0.0097,0.0688 0.02079,0.147737 0.02085,0.148894 0.122258,0.873531 0.167955,1.200131 0.01439,0.102856 0.03038,0.217096 0.03553,0.253866 0.0163,0.116351 0.01953,0.139652 0.02016,0.145167 l 6.22e-4,0.0054 h -0.467652 -0.467652 l -2.21e-4,-0.15405 -2.21e-4,-0.154047 -5.03e-4,0.153816 c -2.87e-4,0.08459 -5.99e-4,0.153918 -7.19e-4,0.154047 -1.16e-4,1.29e-4 -0.01053,2.34e-4 -0.02313,2.34e-4 h -0.02292 z"
       id="path59" />
    <path
       style="fill:#fed849;fill-opacity:1;stroke:none;stroke-width:0.000889228;stroke-linejoin:bevel;stroke-miterlimit:1.9"
       d="m 21.108468,29.3676 c 1.29e-4,-0.432378 3.35e-4,-0.827692 4.78e-4,-0.878475 l 2.4e-4,-0.09234 h 0.02429 0.02429 l 2.64e-4,0.03764 2.62e-4,0.03764 2.24e-4,-0.03764 2.22e-4,-0.03764 h 0.34363 c 0.274277,0 0.343629,2.37e-4 0.343633,0.0012 2e-6,7.18e-4 0.0021,0.01611 0.0047,0.03436 0.0025,0.01826 0.05431,0.388115 0.115026,0.821904 0.06071,0.433792 0.113741,0.81271 0.117844,0.842042 0.0041,0.02933 0.0075,0.05426 0.0075,0.0554 v 0.0021 h -0.467523 -0.467523 l -2.2e-4,-0.132076 -2.19e-4,-0.132076 -5.03e-4,0.131841 c -2.88e-4,0.07251 -5.98e-4,0.131947 -7.18e-4,0.132076 -1.16e-4,1.29e-4 -0.01053,2.35e-4 -0.02312,2.35e-4 h -0.02292 z m 0.04717,0.519474 c -2.87e-4,-7.18e-4 -5.27e-4,-4.79e-4 -5.74e-4,4.79e-4 -4.1e-5,9.57e-4 1.8e-4,0.0014 5.02e-4,0.0012 3.12e-4,-2.39e-4 3.35e-4,-0.0012 7.4e-5,-0.0017 z"
       id="path60" />
    <path
       style="fill:#fed849;fill-opacity:1;stroke:none;stroke-width:0.00125755;stroke-linejoin:bevel;stroke-miterlimit:1.9"
       d="m 21.108787,27.706884 c 0,-0.251886 4.07e-4,-0.597318 8.86e-4,-0.767626 l 8.85e-4,-0.309651 h 0.02578 0.02578 l -8.86e-4,0.285297 c -4.78e-4,0.156915 -0.0012,0.500414 -0.0016,0.76333 -4.07e-4,0.262917 -10e-4,0.479965 -0.0014,0.48233 l -6.46e-4,0.0043 h -0.0244 -0.0244 z"
       id="path61" />
    <path
       style="fill:#fed849;fill-opacity:1;stroke:none;stroke-width:0.00125755;stroke-linejoin:bevel;stroke-miterlimit:1.9"
       d="m 21.045314,27.397233 v -0.767626 h 0.02181 0.02182 v 0.767626 0.767627 h -0.02182 -0.02181 z"
       id="path62" />
    <path
       style="fill:#fed849;fill-opacity:1;stroke:none;stroke-width:0.00125755;stroke-linejoin:bevel;stroke-miterlimit:1.9"
       d="m 21.110109,25.889089 v -0.740518 h 0.02985 0.02985 l -7.9e-4,0.06446 c -0.0013,0.106954 -0.006,1.09356 -0.006,1.265946 -8e-6,0.06515 -4.07e-4,0.125709 -8.86e-4,0.134549 l -8.62e-4,0.01609 h -0.02558 -0.02558 z"
       id="path63" />
    <path
       style="fill:#fed849;fill-opacity:1;stroke:none;stroke-width:0.00125755;stroke-linejoin:bevel;stroke-miterlimit:1.9"
       d="m 21.045314,25.889089 v -0.740518 h 0.02181 0.02182 v 0.740518 0.740518 h -0.02182 -0.02181 z"
       id="path64" />
    <path
       style="fill:#fed849;fill-opacity:1;stroke:none;stroke-width:0.00125755;stroke-linejoin:bevel;stroke-miterlimit:1.9"
       d="m 21.531416,26.148602 c -4.07e-4,-0.0019 -0.0344,-0.243447 -0.07555,-0.536548 -0.153559,-1.093897 -0.262218,-1.862186 -0.265915,-1.880186 -4.3e-4,-0.0021 -0.0012,-0.0032 -0.0019,-0.0026 -0.006,0.006 -0.01214,0.450433 -0.01795,1.289427 l -9.11e-4,0.129921 h -0.02977 -0.02977 l 8.86e-4,-0.402877 c 4.79e-4,-0.221584 8.86e-4,-0.554815 8.86e-4,-0.740519 v -0.337647 h 0.05091 c 0.03244,0 0.05091,4.79e-4 0.05091,0.0013 0,0.0019 0.345063,2.475575 0.345921,2.479769 l 7.42e-4,0.0037 h -0.01388 -0.01389 z"
       id="path65" />
    <path
       style="fill:#fed849;fill-opacity:1;stroke:none;stroke-width:0.00125755;stroke-linejoin:bevel;stroke-miterlimit:1.9"
       d="m 21.045314,24.408051 v -0.740517 h 0.02181 0.02182 v 0.740517 0.74052 h -0.02182 -0.02181 z"
       id="path66" />
    <path
       style="fill:#fed849;fill-opacity:1;stroke:none;stroke-width:0.00125755;stroke-linejoin:bevel;stroke-miterlimit:1.9"
       d="m 21.111585,23.3062 c 8.4e-5,-0.198733 3.83e-4,-0.36044 6.47e-4,-0.359349 2.63e-4,0.0011 0.02282,0.162352 0.0501,0.358357 0.02728,0.196007 0.04991,0.357714 0.05028,0.359351 l 6.94e-4,0.0029 h -0.05093 -0.05093 z"
       id="path67" />
    <path
       style="fill:#fed849;fill-opacity:1;stroke:none;stroke-width:0.00125755;stroke-linejoin:bevel;stroke-miterlimit:1.9"
       d="m 21.045314,22.927015 v -0.740518 h 0.02181 0.02182 v 0.740518 0.740519 h -0.02182 -0.02181 z"
       id="path68" />
    <path
       style="fill:#fed849;fill-opacity:1;stroke:none;stroke-width:0.00125755;stroke-linejoin:bevel;stroke-miterlimit:1.9"
       d="m 21.045314,21.393084 v -0.793412 h 0.02181 0.02182 v 0.793412 0.793413 h -0.02182 -0.02181 z"
       id="path69" />
    <path
       style="fill:#fed849;fill-opacity:1;stroke:none;stroke-width:0.00125755;stroke-linejoin:bevel;stroke-miterlimit:1.9"
       d="m 21.045314,19.806259 v -0.793412 h 0.02181 0.02182 v 0.793412 0.793413 h -0.02182 -0.02181 z"
       id="path70" />
    <path
       style="fill:#fed849;fill-opacity:1;stroke:none;stroke-width:0.00125755;stroke-linejoin:bevel;stroke-miterlimit:1.9"
       d="m 21.045314,18.007859 v -1.00499 h 0.02181 0.02182 v 1.00499 1.004988 h -0.02182 -0.02181 z"
       id="path71" />
    <path
       style="fill:#fed849;fill-opacity:1;stroke:none;stroke-width:0.00125755;stroke-linejoin:bevel;stroke-miterlimit:1.9"
       d="M 21.045314,16.050774 V 15.09868 h 0.02181 0.02182 v 0.952094 0.952095 h -0.02182 -0.02181 z"
       id="path72" />
    <path
       style="fill:#fed849;fill-opacity:1;stroke:none;stroke-width:0.00177846;stroke-linejoin:bevel;stroke-miterlimit:1.9"
       d="M 21.04653,10.256437 V 8.4994862 h 0.02058 0.02057 v 1.7569508 1.756951 h -0.02057 -0.02058 z"
       id="path73" />
    <path
       style="fill:#fed849;fill-opacity:1;stroke:none;stroke-width:0.00177846;stroke-linejoin:bevel;stroke-miterlimit:1.9"
       d="m 21.04653,12.920382 v -0.906994 h 0.02058 0.02057 v 0.906994 0.906993 h -0.02057 -0.02058 z"
       id="path74" />
    <path
       style="fill:#fed849;fill-opacity:1;stroke:none;stroke-width:0.00177846;stroke-linejoin:bevel;stroke-miterlimit:1.9"
       d="M 21.04653,8.3685798 V 8.2376734 l 1.047719,4.548e-4 1.047719,4.549e-4 -1.027149,4.787e-4 -1.027147,4.787e-4 v 0.1299697 0.1299695 h -0.02057 -0.02058 z"
       id="path75" />
    <path
       style="fill:#fed849;fill-opacity:1;stroke:none;stroke-width:0.00177846;stroke-linejoin:bevel;stroke-miterlimit:1.9"
       d="m 17.54946,5.7994749 c 0,-0.011719 7.18e-4,-0.017115 0.0023,-0.017764 0.0013,-5.028e-4 0.03179,-0.012921 0.06779,-0.027573 0.469306,-0.1910104 1.008568,-0.383043 1.506359,-0.5364178 1.298976,-0.4002288 2.597281,-0.6421575 3.889789,-0.7248309 0.0396,-0.00254 0.08402,-0.00519 0.09872,-0.0059 l 0.02673,-0.00129 -5.51e-4,0.016646 -5.5e-4,0.016645 -0.05517,0.0032 c -1.185293,0.068692 -2.397481,0.2766257 -3.583094,0.61463 -0.630604,0.1797777 -1.283958,0.4057355 -1.885052,0.6519309 -0.03446,0.014113 -0.0637,0.026085 -0.06498,0.026605 -0.0017,7.181e-4 -0.0023,-0.00317 -0.0023,-0.015885 z"
       id="path76" />
    <path
       style="fill:#fed849;fill-opacity:1;stroke:none;stroke-width:0.00251513;stroke-linejoin:bevel;stroke-miterlimit:1.9"
       d="M 26.982684,4.7768755 C 26.586518,4.6988641 26.085367,4.6247771 25.643138,4.578846 25.24978,4.5379906 24.906163,4.515227 24.454342,4.5000921 c -0.135976,-0.00456 -0.73551,-0.00458 -0.875398,-3.67e-5 -0.166134,0.0054 -0.392858,0.015004 -0.422492,0.017905 l -0.01521,0.00148 V 4.5025067 4.485571 l 0.0324,-0.00173 c 0.625786,-0.033334 1.244348,-0.028616 1.877081,0.014319 0.624243,0.042359 1.293531,0.128799 1.913186,0.2470914 0.04204,0.00803 0.07745,0.014592 0.07869,0.014592 0.0012,0 0.0021,0.00655 0.0021,0.014546 0,0.008 -9.57e-4,0.014408 -0.0019,0.01424 -0.0012,-1.685e-4 -0.02817,-0.00546 -0.06017,-0.011763 z"
       id="path77" />
    <path
       style="fill:#fed849;fill-opacity:1;stroke:none;stroke-width:0.00503023;stroke-linejoin:bevel;stroke-miterlimit:1.9"
       d="M 36.277511,9.4566903 C 35.903071,9.1220823 35.361019,8.6878927 34.852012,8.3148497 33.552502,7.3624593 32.194468,6.5772269 30.787096,5.964464 29.607422,5.4508392 28.344203,5.0485119 27.173103,4.8134288 27.051129,4.7889444 27.044834,4.787095 27.044834,4.7757511 c 0,-0.00656 0.0021,-0.011931 0.0047,-0.011931 0.01005,0 0.275251,0.054993 0.42375,0.087852 1.636953,0.3622246 3.27077,0.9770138 4.845105,1.8231651 0.524768,0.2820445 1.082585,0.6137418 1.552443,0.9231354 0.06401,0.042144 0.14374,0.094594 0.177195,0.1165563 0.168302,0.1104803 0.495776,0.3385265 0.714072,0.4972632 0.496449,0.3609993 0.943095,0.7142139 1.422853,1.1252132 0.182866,0.156657 0.170428,0.1443416 0.168372,0.1667383 l -0.0016,0.019119 z"
       id="path78" />
    <path
       style="fill:#fed849;fill-opacity:1;stroke:none;stroke-width:0.0100605;stroke-linejoin:bevel;stroke-miterlimit:1.9"
       d="M 14.196842,14.357975 V 7.5893188 l 0.171906,-0.1092662 c 1.447814,-0.9202529 3.053918,-1.6815572 4.566734,-2.1646635 0.948772,-0.3029833 1.767365,-0.4926382 2.841094,-0.6582362 0.03491,-0.00538 0.05185,-0.010364 0.03764,-0.011066 -0.0669,-0.00331 -0.753659,0.1154242 -1.163827,0.2012141 -0.942648,0.197162 -2.050346,0.5356518 -2.935136,0.8969168 -0.142009,0.057982 -0.18768,0.070698 -0.158929,0.044249 0.02894,-0.02662 0.776943,-0.3050029 1.184124,-0.4406911 1.3737,-0.4577691 2.836757,-0.7538454 4.152192,-0.840271 0.096,-0.0063 0.190023,-0.012742 0.208933,-0.014298 0.0206,-0.0017 0.03438,0.00208 0.03438,0.00941 0,0.00812 -0.04002,0.014606 -0.119012,0.019279 -0.296934,0.017565 -0.960594,0.083311 -1.124001,0.1113523 -0.10496,0.018011 -0.0064,0.010755 0.195708,-0.014403 0.449881,-0.056012 0.982698,-0.096792 1.459879,-0.1117331 l 0.280339,-0.00878 -0.324584,0.00454 c -0.178522,0.0025 -0.332046,0.0074 -0.341167,0.010898 -0.01036,0.00398 -0.01659,5.984e-4 -0.01659,-0.00899 0,-0.012387 0.02914,-0.016668 0.150749,-0.02213 0.998575,-0.044867 2.043698,0.01115 3.049349,0.163443 0.242893,0.036782 0.684861,0.1140958 0.691777,0.1210111 0.01436,0.014374 -0.01721,0.012576 -0.115915,-0.0066 C 26.1526,4.610953 24.995808,4.4919606 24.374763,4.498432 c -0.146393,0.00153 -0.135146,0.00259 0.0994,0.00937 1.725408,0.049937 3.437636,0.3866793 5.199495,1.0225802 2.055406,0.7418477 4.076777,1.8913595 5.929437,3.3719433 0.617083,0.4931525 1.152624,0.9836971 1.930896,1.7686575 0.691516,0.697462 1.051067,1.095117 1.519472,1.680508 2.009637,2.511545 3.403675,5.315228 4.023876,8.092806 0.03553,0.159121 0.137226,0.657985 0.137226,0.673151 0,0.0052 -3.554163,0.0091 -8.16157,0.0091 h -8.161554 v -6.44775 -6.4477982 h -2.925048 -2.925048 v 6.4477982 6.447798 h -3.422251 -3.422253 z"
       id="path79" />
    <path
       style="fill:#fed849;fill-opacity:1;stroke:none;stroke-width:0.0100605;stroke-linejoin:bevel;stroke-miterlimit:1.9"
       d=""
       id="path80" />
    <path
       style="fill:#fed849;fill-opacity:1;stroke:none;stroke-width:0.000889228;stroke-linejoin:bevel;stroke-miterlimit:1.9"
       d="m 38.560348,11.748542 c -0.224779,-0.256333 -0.530689,-0.584727 -0.838143,-0.899754 -0.132921,-0.136193 -0.394645,-0.398794 -0.504169,-0.50586 l -0.03683,-0.036 0.034,-2.39e-4 0.034,-2.4e-4 0.03518,0.03438 c 0.08928,0.08722 0.285667,0.284159 0.382566,0.383644 0.305271,0.313417 0.597589,0.631219 0.884364,0.96146 l 0.02824,0.03252 v 0.02568 c 0,0.01413 -1.29e-4,0.02569 -2.4e-4,0.02569 -1.55e-4,0 -0.0086,-0.0095 -0.01893,-0.02126 z"
       id="path81" />
    <path
       style="fill:#fed849;fill-opacity:1;stroke:none;stroke-width:0.000889228;stroke-linejoin:bevel;stroke-miterlimit:1.9"
       d="M 37.159703,10.286077 C 37.11063,10.237536 36.973115,10.104785 36.881516,10.017528 36.588227,9.7381452 36.31334,9.4876751 36.071967,9.279889 c -0.02173,-0.018712 -0.03932,-0.034223 -0.03908,-0.034467 9.57e-4,-8.857e-4 0.12852,0.1090642 0.198776,0.1712515 0.02977,0.026348 0.112663,0.1001058 0.117106,0.1041939 0.0014,0.00129 0.0027,0.00218 0.0029,0.00196 4.79e-4,-4.787e-4 0.0026,-0.02418 0.0026,-0.028939 5.5e-5,-0.010935 -0.01133,-0.021909 -0.114314,-0.1102708 -0.110454,-0.094763 -0.195641,-0.1670494 -0.274904,-0.2332726 -0.05125,-0.042815 -0.04674,-0.038869 -0.04433,-0.038869 0.0019,0 0.01005,0.00659 0.07893,0.064423 0.392484,0.3295027 0.770734,0.6695766 1.144029,1.028567 0.03856,0.03708 0.05591,0.05389 0.08577,0.08306 l 0.01939,0.01893 -0.03434,-1.7e-5 -0.03434,-1.7e-5 z"
       id="path82" />
    <path
       style="fill:#fed849;fill-opacity:1;stroke:none;stroke-width:0.000889228;stroke-linejoin:bevel;stroke-miterlimit:1.9"
       d="m 21.045595,30.770867 v -0.402069 h 0.02151 0.02151 v 0.402069 0.402071 h -0.02151 -0.02151 z"
       id="path83" />
    <path
       style="fill:#fed849;fill-opacity:1;stroke:none;stroke-width:0.000889228;stroke-linejoin:bevel;stroke-miterlimit:1.9"
       d="m 21.107308,30.770867 v -0.402069 h 0.02361 0.02361 l -2.04e-4,0.131609 c -1.12e-4,0.07238 -4.78e-4,0.253315 -8.14e-4,0.40207 l -6.23e-4,0.270461 h -0.0228 -0.0228 z"
       id="path84" />
    <path
       style="fill:#fed849;fill-opacity:1;stroke:none;stroke-width:0.000889228;stroke-linejoin:bevel;stroke-miterlimit:1.9"
       d="m 21.045595,31.733966 v -0.561028 h 0.02151 0.02151 v 0.561028 0.561027 h -0.02151 -0.02151 z"
       id="path85" />
    <path
       style="fill:#fed849;fill-opacity:1;stroke:none;stroke-width:0.000889228;stroke-linejoin:bevel;stroke-miterlimit:1.9"
       d="m 21.106373,31.973959 c 0,-0.176568 2.87e-4,-0.429031 6.22e-4,-0.561026 l 6.22e-4,-0.239995 h 0.02289 0.02289 l -5.98e-4,0.227449 c -3.35e-4,0.125098 -8.62e-4,0.377561 -0.0012,0.561027 L 21.151,32.294993 h -0.02231 -0.02231 z"
       id="path86" />
    <path
       style="fill:#fed849;fill-opacity:1;stroke:none;stroke-width:0.000889228;stroke-linejoin:bevel;stroke-miterlimit:1.9"
       d="m 21.045595,32.364185 v -0.06919 h 0.02151 0.02151 v 0.0519 0.0519 h 0.706428 0.706426 v 0.01731 0.01731 H 21.773534 21.0456 Z"
       id="path87" />
    <path
       style="fill:#fed849;fill-opacity:1;stroke:none;stroke-width:0.000889228;stroke-linejoin:bevel;stroke-miterlimit:1.9"
       d="m 21.106373,32.340341 v -0.04535 h 0.02244 0.02244 v 0.04302 0.04301 h 0.626013 0.626013 v -0.0021 c 0,-0.0012 -0.02483,-0.179565 -0.05517,-0.396345 -0.03034,-0.216782 -0.05517,-0.394829 -0.05517,-0.395665 0,-0.0014 0.0016,-0.0014 0.0124,-0.0014 h 0.0124 l 0.05548,0.398095 c 0.03051,0.218953 0.05569,0.399042 0.05596,0.400201 l 4.79e-4,0.0021 H 21.76803 21.106383 Z"
       id="path88" />
    <path
       id="path89"
       style="fill:#fed849;fill-opacity:1;stroke:none;stroke-width:0.000889228;stroke-linejoin:bevel;stroke-miterlimit:1.9"
       d="m 26.575455,31.585294 -4.79e-4,0.0043 c -2.39e-4,0.0024 -0.01838,0.183712 -0.04021,0.402537 -0.02185,0.218824 -0.03997,0.399628 -0.04021,0.40207 l -4.78e-4,0.0047 H 25.61982 24.745554 23.623499 22.501443 v 0.01731 0.01731 h 1.122056 1.122055 0.878941 0.879411 l 0.01448,-0.109401 c 0.0081,-0.06004 0.01611,-0.116727 0.01731,-0.126229 0.008,-0.0622 0.02827,-0.250065 0.05563,-0.511937 l 0.01075,-0.100518 h -0.01355 z" />
    <path
       style="fill:#fed849;fill-opacity:1;stroke:none;stroke-width:0.000889228;stroke-linejoin:bevel;stroke-miterlimit:1.9"
       d="m 26.57585,31.580851 c 2.39e-4,-0.0024 0.02875,-0.286568 0.06319,-0.631388 0.03444,-0.344822 0.06287,-0.628947 0.06319,-0.63139 l 4.78e-4,-0.0045 h 0.01394 c 0.0076,0 0.01394,4.78e-4 0.01394,7.17e-4 0,0.0066 -0.08185,0.818047 -0.113635,1.126541 -0.0079,0.07722 -0.01445,0.141289 -0.01445,0.142361 0,0.0019 -4.78e-4,0.0019 -0.01364,0.0019 h -0.01364 z"
       id="path90" />
    <path
       style="fill:#fed849;fill-opacity:1;stroke:none;stroke-width:0.000889228;stroke-linejoin:bevel;stroke-miterlimit:1.9"
       d="m 26.703016,30.309189 c 2.39e-4,-0.0024 0.03211,-0.320229 0.07067,-0.706192 0.03855,-0.385965 0.07035,-0.70375 0.07067,-0.706193 l 4.78e-4,-0.0045 h 0.01355 0.01355 l -4.78e-4,0.0045 c -2.39e-4,0.0024 -0.0319,0.320439 -0.07019,0.70666 -0.03829,0.386222 -0.06985,0.704007 -0.07017,0.706192 l -4.79e-4,0.004 h -0.01405 -0.01405 z"
       id="path91" />
    <path
       style="fill:#fed849;fill-opacity:1;stroke:none;stroke-width:0.000889228;stroke-linejoin:bevel;stroke-miterlimit:1.9"
       d="m 26.845141,28.88792 c 2.39e-4,-0.0024 0.0058,-0.05713 0.01223,-0.121515 l 0.01168,-0.117071 v -0.364709 -0.36471 h 0.0065 0.0065 v 0.4343 0.434299 l -0.0052,0.05165 c -0.0028,0.02841 -0.0052,0.05178 -0.0052,0.05193 0,1.49e-4 -0.0061,2.4e-4 -0.01364,2.4e-4 h -0.01364 z"
       id="path92" />
    <path
       style="fill:#fed849;fill-opacity:1;stroke:none;stroke-width:0.000889228;stroke-linejoin:bevel;stroke-miterlimit:1.9"
       d="M 26.869059,27.246683 V 26.57345 h 0.0065 0.0065 v 0.673233 0.673232 h -0.0065 -0.0065 z"
       id="path93" />
    <path
       style="fill:#fed849;fill-opacity:1;stroke:none;stroke-width:0.000889228;stroke-linejoin:bevel;stroke-miterlimit:1.9"
       d="m 26.869059,25.975021 v -0.598429 h 0.0065 0.0065 v 0.598429 0.598429 h -0.0065 -0.0065 z"
       id="path94" />
    <path
       style="fill:#fed849;fill-opacity:1;stroke:none;stroke-width:0.000889228;stroke-linejoin:bevel;stroke-miterlimit:1.9"
       d="m 26.869059,24.778163 v -0.598429 h 0.0065 0.0065 v 0.598429 0.598429 h -0.0065 -0.0065 z"
       id="path95" />
    <path
       style="fill:#fed849;fill-opacity:1;stroke:none;stroke-width:0.000889228;stroke-linejoin:bevel;stroke-miterlimit:1.9"
       d="m 26.869059,23.543902 v -0.635831 h 0.0065 0.0065 v 0.635831 0.635832 h -0.0065 -0.0065 z"
       id="path96" />
    <path
       style="fill:#fed849;fill-opacity:1;stroke:none;stroke-width:0.000889228;stroke-linejoin:bevel;stroke-miterlimit:1.9"
       d="m 26.869059,22.27224 v -0.635832 h 0.0065 0.0065 v 0.635832 0.635831 h -0.0065 -0.0065 z"
       id="path97" />
    <path
       style="fill:#fed849;fill-opacity:1;stroke:none;stroke-width:0.000889228;stroke-linejoin:bevel;stroke-miterlimit:1.9"
       d="m 26.869059,20.963176 v -0.673233 h 0.0065 0.0065 v 0.673233 0.673232 h -0.0065 -0.0065 z"
       id="path98" />
    <path
       style="fill:#fed849;fill-opacity:1;stroke:none;stroke-width:0.000889228;stroke-linejoin:bevel;stroke-miterlimit:1.9"
       d="m 26.869059,19.654112 v -0.635831 h 0.0065 0.0065 v 0.635831 0.635831 h -0.0065 -0.0065 z"
       id="path99" />
    <path
       style="fill:#fed849;fill-opacity:1;stroke:none;stroke-width:0.000889228;stroke-linejoin:bevel;stroke-miterlimit:1.9"
       d="m 26.869059,18.457254 v -0.561028 h 0.0065 0.0065 v 0.561028 0.561027 h -0.0065 -0.0065 z"
       id="path100" />
    <path
       style="fill:#fed849;fill-opacity:1;stroke:none;stroke-width:0.000889228;stroke-linejoin:bevel;stroke-miterlimit:1.9"
       d="m 26.869059,17.260395 v -0.63583 h 0.0065 0.0065 v 0.63583 0.635831 h -0.0065 -0.0065 z"
       id="path101" />
    <path
       style="fill:#fed849;fill-opacity:1;stroke:none;stroke-width:0.000889228;stroke-linejoin:bevel;stroke-miterlimit:1.9"
       d="m 26.869059,15.988734 v -0.635831 h 0.0065 0.0065 v 0.635831 0.635831 h -0.0065 -0.0065 z"
       id="path102" />
    <path
       style="fill:#fed849;fill-opacity:1;stroke:none;stroke-width:0.000889228;stroke-linejoin:bevel;stroke-miterlimit:1.9"
       d="M 26.869059,14.717072 V 14.08124 h 0.0065 0.0065 v 0.635832 0.635831 h -0.0065 -0.0065 z"
       id="path103" />
    <path
       style="fill:#fed849;fill-opacity:1;stroke:none;stroke-width:0.000889228;stroke-linejoin:bevel;stroke-miterlimit:1.9"
       d="m 26.869059,13.520214 v -0.561028 h 0.0065 0.0065 v 0.561028 0.561026 h -0.0065 -0.0065 z"
       id="path104" />
    <path
       style="fill:#fed849;fill-opacity:1;stroke:none;stroke-width:0.000889228;stroke-linejoin:bevel;stroke-miterlimit:1.9"
       d="m 26.869059,12.360757 v -0.598429 h 0.0065 0.0065 v 0.598429 0.598429 h -0.0065 -0.0065 z"
       id="path105" />
    <path
       style="fill:#fed849;fill-opacity:1;stroke:none;stroke-width:0.000889228;stroke-linejoin:bevel;stroke-miterlimit:1.9"
       d="m 26.869059,11.163898 v -0.598429 h 0.0065 0.0065 v 0.598429 0.59843 h -0.0065 -0.0065 z"
       id="path106" />
    <path
       style="fill:#fed849;fill-opacity:1;stroke:none;stroke-width:0.000889228;stroke-linejoin:bevel;stroke-miterlimit:1.9"
       d="M 26.869059,10.079246 V 9.5930221 h 0.0065 0.0065 v 0.4862239 0.486223 h -0.0065 -0.0065 z"
       id="path107" />
    <path
       style="fill:#fed849;fill-opacity:1;stroke:none;stroke-width:0.000889228;stroke-linejoin:bevel;stroke-miterlimit:1.9"
       d="M 26.869059,9.0693965 V 8.5457711 h 0.0065 0.0065 v 0.5236254 0.5236256 h -0.0065 -0.0065 z"
       id="path108" />
    <path
       style="fill:#fed849;fill-opacity:1;stroke:none;stroke-width:0.000889228;stroke-linejoin:bevel;stroke-miterlimit:1.9"
       d="m 26.869059,8.3928911 v -0.15288 h -0.888761 c -0.888139,0 -0.888761,-1.4e-6 -0.888761,-0.00187 0,-0.00187 7.19e-4,-0.00187 0.895305,-0.00187 h 0.895308 v 0.15475 0.1547502 h -0.0065 -0.0065 z"
       id="path109" />
    <path
       style="fill:#fed849;fill-opacity:1;stroke:none;stroke-width:0.000889228;stroke-linejoin:bevel;stroke-miterlimit:1.9"
       d="m 23.296249,8.2381409 c 0,-0.00187 5.75e-4,-0.00187 0.902553,-0.0017 0.496405,9.53e-5 0.900345,3.352e-4 0.897645,5.266e-4 -0.0064,4.549e-4 -0.0064,0.00192 0,0.00236 0.0027,1.889e-4 -0.40124,4.309e-4 -0.897645,5.267e-4 -0.901986,1.728e-4 -0.902553,1.719e-4 -0.902553,-0.0017 z"
       id="path110" />
    <path
       style="fill:#fed849;fill-opacity:1;stroke:none;stroke-width:0.000889228;stroke-linejoin:bevel;stroke-miterlimit:1.9"
       d="m 22.551486,8.2390762 0.535781,-4.788e-4 -0.457237,-3.59e-4 c -0.251481,-2.041e-4 -0.709489,-6.464e-4 -1.017797,-9.815e-4 -0.461813,-5.027e-4 -0.361996,-5.984e-4 0.566637,-6.224e-4 0.619959,-9e-6 1.124989,1.38e-4 1.122289,3.352e-4 -0.0027,1.889e-4 -0.0049,7.181e-4 -0.0049,0.00118 0,4.548e-4 0.0022,9.814e-4 0.0049,0.00118 0.0027,1.889e-4 -0.285423,3.113e-4 -0.640272,2.873e-4 l -0.645182,-5.96e-5 z"
       id="path111" />
    <path
       style="fill:#fed849;fill-opacity:1;stroke:none;stroke-width:0.000889228;stroke-linejoin:bevel;stroke-miterlimit:1.9"
       d="m 21.082365,8.23744 c 0.01996,-1.409e-4 0.05237,-1.407e-4 0.072,0 0.01963,1.41e-4 0.0032,2.633e-4 -0.0363,2.633e-4 -0.0396,0 -0.05566,-1.154e-4 -0.0357,-2.633e-4 z"
       id="path112" />
    <path
       style="fill:#fed849;fill-opacity:1;stroke:none;stroke-width:0.000889228;stroke-linejoin:bevel;stroke-miterlimit:1.9"
       d="M 21.04653,8.3685798 V 8.2381409 l 0.551911,2.332e-4 0.55191,2.328e-4 -0.531339,2.354e-4 -0.53134,2.353e-4 v 0.1299707 0.1299704 h -0.02057 -0.02058 z"
       id="path113" />
    <path
       style="fill:#fed849;fill-opacity:1;stroke:none;stroke-width:0.000889228;stroke-linejoin:bevel;stroke-miterlimit:1.9"
       d="M 21.04653,8.3685798 V 8.2381409 l 0.551911,2.332e-4 0.55191,2.328e-4 -0.531339,2.354e-4 -0.53134,2.353e-4 v 0.1299707 0.1299704 h -0.02057 -0.02058 z"
       id="path114" />
    <path
       style="fill:#fed849;fill-opacity:1;stroke:none;stroke-width:0.000889228;stroke-linejoin:bevel;stroke-miterlimit:1.9"
       d="M 21.04653,8.3685798 V 8.2381409 l 0.552379,2.332e-4 0.552377,2.328e-4 -0.531807,2.354e-4 -0.531807,2.353e-4 v 0.1299707 0.1299704 h -0.02057 -0.02058 z"
       id="path115" />
    <path
       style="fill:#fed849;fill-opacity:1;stroke:none;stroke-width:0.000889228;stroke-linejoin:bevel;stroke-miterlimit:1.9"
       d="m 21.045828,8.7461045 -2.33e-4,-0.5098336 0.152179,2.311e-4 0.152178,2.307e-4 -0.15171,2.393e-4 -0.15171,2.395e-4 -2.35e-4,0.5093632 -2.36e-4,0.509363 z"
       id="path116" />
    <path
       style="fill:#fed849;fill-opacity:1;stroke:none;stroke-width:0.000889228;stroke-linejoin:bevel;stroke-miterlimit:1.9"
       d="m 21.046528,8.3921897 c -10e-7,-0.058756 -2.87e-4,-0.1179008 -6.22e-4,-0.1314329 l -6.22e-4,-0.024604 0.01113,5.745e-4 c 0.0061,3.112e-4 0.254975,8.857e-4 0.552997,0.00122 l 0.54186,6.464e-4 -0.531808,2.297e-4 -0.531807,2.298e-4 v 0.1299712 0.1299714 h -0.02058 -0.02057 z"
       id="path117" />
    <path
       style="fill:#fed849;fill-opacity:1;stroke:none;stroke-width:0.000889228;stroke-linejoin:bevel;stroke-miterlimit:1.9"
       d="m 21.04652,8.4029428 c -6e-6,-0.052842 -2.87e-4,-0.1120288 -6.23e-4,-0.1315266 l -5.98e-4,-0.035451 0.01675,7.661e-4 c 0.0092,4.069e-4 0.258057,0.00103 0.552992,0.00136 l 0.536249,5.985e-4 -0.531807,1.91e-4 -0.531807,1.912e-4 v 0.1299711 0.1299714 h -0.02057 -0.02058 z"
       id="path118" />
    <path
       style="fill:#fed849;fill-opacity:1;stroke:none;stroke-width:0.000889228;stroke-linejoin:bevel;stroke-miterlimit:1.9"
       d="m 21.046527,8.4150983 c -3e-6,-0.046156 -2.87e-4,-0.1053422 -6.23e-4,-0.1315244 l -6.22e-4,-0.047605 0.01909,7.66e-4 c 0.0105,4.069e-4 0.259348,0.00103 0.553,0.00136 l 0.533911,6.224e-4 -0.531808,1.826e-4 -0.531807,1.829e-4 v 0.1299711 0.1299714 h -0.02057 -0.02058 z"
       id="path119" />
    <path
       style="fill:#fed849;fill-opacity:1;stroke:none;stroke-width:0.000889228;stroke-linejoin:bevel;stroke-miterlimit:1.9"
       d="m 21.046526,8.429124 c -2e-6,-0.038442 -2.87e-4,-0.097615 -6.22e-4,-0.1314963 l -6.22e-4,-0.061602 0.02891,7.181e-4 c 0.01589,4.07e-4 0.264747,0.00101 0.552999,0.00136 l 0.524093,6.224e-4 -0.531807,1.706e-4 -0.531807,1.707e-4 v 0.1299754 0.1299714 h -0.02058 -0.02057 z"
       id="path120" />
    <path
       style="fill:#fed849;fill-opacity:1;stroke:none;stroke-width:0.000889228;stroke-linejoin:bevel;stroke-miterlimit:1.9"
       d="m 21.046529,8.4398771 c 0,-0.032528 -2.87e-4,-0.091697 -6.22e-4,-0.1314873 l -6.22e-4,-0.072346 0.0476,7.181e-4 c 0.02619,3.83e-4 0.275035,0.00101 0.553001,0.00134 l 0.505392,6.463e-4 -0.531808,1.673e-4 -0.531807,1.674e-4 V 8.369054 8.4990253 h -0.02058 -0.02057 z"
       id="path121" />
    <path
       style="fill:#fed849;fill-opacity:1;stroke:none;stroke-width:0.000889228;stroke-linejoin:bevel;stroke-miterlimit:1.9"
       d="m 21.046529,8.4525002 c 0,-0.025586 -2.87e-4,-0.084772 -6.22e-4,-0.1315252 l -6.22e-4,-0.085007 0.04012,6.223e-4 c 0.02207,3.351e-4 0.27071,8.857e-4 0.552532,0.00122 0.281823,3.351e-4 0.512581,7.42e-4 0.512795,9.335e-4 2.14e-4,1.87e-4 -0.238888,3.351e-4 -0.531339,3.351e-4 h -0.531726 v 0.1299712 0.1299714 h -0.02057 -0.02058 z"
       id="path122" />
    <path
       style="fill:#fed849;fill-opacity:1;stroke:none;stroke-width:0.000889228;stroke-linejoin:bevel;stroke-miterlimit:1.9"
       d="m 21.046527,8.4632532 c -1e-6,-0.019671 -2.87e-4,-0.078786 -6.22e-4,-0.1313662 l -6.22e-4,-0.095601 0.09482,5.745e-4 c 0.05215,3.112e-4 0.301005,8.617e-4 0.552999,0.00125 l 0.458173,6.703e-4 -0.531808,1.587e-4 -0.531807,1.585e-4 v 0.129966 0.1299714 h -0.02058 -0.02057 z"
       id="path123" />
    <path
       style="fill:#fed849;fill-opacity:1;stroke:none;stroke-width:0.000889228;stroke-linejoin:bevel;stroke-miterlimit:1.9"
       d="M 19.630871,8.3769951 V 7.49852 h 1.397893 1.397893 V 7.8669279 8.235336 h -0.691154 c -0.380135,0 -0.69098,1.537e-4 -0.690765,3.351e-4 0.0011,0.00101 0.166572,0.00158 0.611599,0.00213 0.271708,3.351e-4 0.49419,7.66e-4 0.494404,9.335e-4 2.14e-4,1.861e-4 -0.238889,3.352e-4 -0.53134,3.352e-4 h -0.531729 v 0.1299711 0.1299714 h -0.02057 -0.02058 l -3e-6,-0.028753 c -5e-6,-0.052559 -0.0012,-0.2316512 -0.0015,-0.2320471 -1.85e-4,-2.143e-4 -3.35e-4,0.2285795 -3.35e-4,0.5084309 v 0.5088206 h -0.706893 -0.706895 z"
       id="path124" />
    <path
       style="fill:#fed849;fill-opacity:1;stroke:none;stroke-width:0.000889228;stroke-linejoin:bevel;stroke-miterlimit:1.9"
       d="m 21.092581,8.2355703 c 0.01375,-1.458e-4 0.03627,-1.458e-4 0.05003,0 0.01375,1.457e-4 0.0025,2.633e-4 -0.02501,2.633e-4 -0.02752,0 -0.03877,-1.192e-4 -0.02501,-2.633e-4 z"
       id="path125" />
    <path
       style="fill:#fed849;fill-opacity:1;stroke:none;stroke-width:0.00355692;stroke-linejoin:bevel;stroke-miterlimit:1.9"
       d="m 11.567038,9.5485456 v -0.023035 l 0.109401,-0.094821 c 1.635703,-1.4177182 3.439119,-2.5732992 5.328824,-3.41457 0.144401,-0.064286 0.47817,-0.2071012 0.537891,-0.2301575 0.0037,-0.00143 0.0047,0.00213 0.0038,0.014375 l -0.0012,0.01627 -0.03927,0.016356 c -0.793929,0.3306858 -1.558516,0.7079408 -2.317043,1.143253 -1.24746,0.7159057 -2.416547,1.5472859 -3.510161,2.4962031 -0.04835,0.041946 -0.09336,0.081416 -0.100051,0.087712 l -0.01216,0.011446 z"
       id="path126" />
    <path
       style="fill:#fed849;fill-opacity:1;stroke:none;stroke-width:0.000889228;stroke-linejoin:bevel;stroke-miterlimit:1.9"
       d="m 10.201001,10.826581 c 0.0059,-0.0061 0.0248,-0.02551 0.042,-0.04325 0.107252,-0.110595 0.311095,-0.315365 0.413767,-0.415652 0.297281,-0.290369 0.57076,-0.5444953 0.871655,-0.809971 0.03526,-0.031109 0.04322,-0.037845 0.03965,-0.033534 -7.42e-4,9.096e-4 -9.82e-4,0.00817 -8.14e-4,0.024533 l 2.39e-4,0.023248 -0.04909,0.043457 c -0.420422,0.3721829 -0.824108,0.75692 -1.215873,1.158803 l -0.06175,0.06335 h -0.02525 -0.02525 z"
       id="path127" />
    <path
       style="fill:#fed849;fill-opacity:1;stroke:none;stroke-width:0.000889228;stroke-linejoin:bevel;stroke-miterlimit:1.9"
       d="m 9.1789321,11.959172 c 0,-0.001 0.1088552,-0.128753 0.1761732,-0.206663 0.2615743,-0.302728 0.5622618,-0.632321 0.8217057,-0.900697 l 0.01379,-0.01428 0.025,2.4e-4 0.025,2.39e-4 -0.02801,0.02899 c -0.186787,0.19325 -0.4048752,0.428446 -0.5956528,0.642376 -0.1255964,0.140839 -0.270573,0.307502 -0.3674089,0.422368 l -0.023377,0.02773 -0.023609,6.4e-5 c -0.012986,3.5e-5 -0.02361,-1.39e-4 -0.02361,-3.83e-4 z"
       id="path128" />
    <path
       style="fill:#fed849;fill-opacity:1;stroke:none;stroke-width:0.000889228;stroke-linejoin:bevel;stroke-miterlimit:1.9"
       d="m 8.2930037,13.079167 c 9.096e-4,-0.0014 0.021421,-0.02905 0.045594,-0.06148 0.2579034,-0.346044 0.5354589,-0.696429 0.814994,-1.028844 l 0.024572,-0.02922 h 0.023815 0.023816 l -0.00969,0.01145 C 8.9410258,12.29597 8.6494112,12.662738 8.385661,13.015527 l -0.049449,0.06614 H 8.313788 8.291364 Z"
       id="path129" />
    <path
       style="fill:#fed849;fill-opacity:1;stroke:none;stroke-width:0.000889228;stroke-linejoin:bevel;stroke-miterlimit:1.9"
       d="M 7.4703071,14.270353 C 7.7371308,13.856214 8.0066733,13.465736 8.288741,13.084716 l 0.00225,-0.003 h 0.022767 0.022767 l -0.00689,0.0091 c -0.05436,0.07191 -0.2059451,0.281462 -0.3004895,0.415395 -0.171246,0.242589 -0.3764189,0.546542 -0.5094889,0.75478 l -0.011182,0.0175 -0.021719,3.5e-5 -0.021718,3.5e-5 z"
       id="path130" />
    <path
       style="fill:#fed849;fill-opacity:1;stroke:none;stroke-width:0.000889228;stroke-linejoin:bevel;stroke-miterlimit:1.9"
       d="m 6.7571135,15.463939 c 0.1935672,-0.348261 0.3669859,-0.642698 0.5679368,-0.964266 0.052205,-0.08354 0.136945,-0.21723 0.1394399,-0.219987 8.139e-4,-9.1e-4 0.00607,-0.0011 0.022272,-9.33e-4 l 0.021199,2.63e-4 -0.00993,0.01543 c -0.2123691,0.330241 -0.4281672,0.687941 -0.6213636,1.029953 -0.026652,0.04718 -0.066336,0.118046 -0.078926,0.140943 l -0.00552,0.01005 -0.020741,1.5e-5 -0.020742,1.4e-5 z"
       id="path131" />
    <path
       style="fill:#fed849;fill-opacity:1;stroke:none;stroke-width:0.000889228;stroke-linejoin:bevel;stroke-miterlimit:1.9"
       d="m 6.1404904,16.670417 c 0.0011,-0.0035 0.062203,-0.131923 0.09609,-0.202005 0.1176943,-0.243404 0.2395663,-0.483112 0.3684301,-0.724661 0.037598,-0.07047 0.090187,-0.16747 0.1300376,-0.239839 l 0.015447,-0.02806 0.020633,-2.64e-4 c 0.011349,-1.38e-4 0.020633,-1.1e-4 0.020633,6.4e-5 0,1.72e-4 -0.00741,0.01375 -0.016474,0.03018 -0.2055105,0.372496 -0.3975002,0.747109 -0.5750239,1.121991 l -0.020811,0.04395 -0.01978,2.63e-4 c -0.019417,2.4e-4 -0.019768,2.2e-4 -0.019183,-0.0016 z"
       id="path132" />
    <path
       style="fill:#fed849;fill-opacity:1;stroke:none;stroke-width:0.000889228;stroke-linejoin:bevel;stroke-miterlimit:1.9"
       d="m 5.5683012,18.016633 c 0.00122,-0.004 0.042195,-0.110326 0.061694,-0.160146 0.1523956,-0.389354 0.314865,-0.767733 0.4983518,-1.160625 l 0.011025,-0.02361 h 0.019921 0.019921 l -0.00472,0.01005 c -0.2075159,0.44228 -0.3922507,0.876071 -0.5611638,1.317714 l -0.00697,0.01823 -0.019355,2.63e-4 -0.019355,2.64e-4 z"
       id="path133" />
    <path
       style="fill:#fed849;fill-opacity:1;stroke:none;stroke-width:0.000889228;stroke-linejoin:bevel;stroke-miterlimit:1.9"
       d="m 5.1138379,19.361209 c 7.181e-4,-0.0021 0.00704,-0.02333 0.014056,-0.04699 0.1188692,-0.400958 0.2692566,-0.845992 0.4240834,-1.254965 l 0.015272,-0.04034 0.019554,-1.46e-4 c 0.018485,-1.38e-4 0.019518,-5.4e-5 0.018879,0.0015 -0.00663,0.01651 -0.048709,0.128769 -0.072664,0.193834 -0.112462,0.305475 -0.2176751,0.616267 -0.3157506,0.932708 -0.024347,0.07855 -0.065579,0.215129 -0.065579,0.217221 0,8.13e-4 -0.00507,0.0011 -0.019578,0.0011 h -0.019578 z"
       id="path134" />
    <path
       style="fill:#fed849;fill-opacity:1;stroke:none;stroke-width:0.000889228;stroke-linejoin:bevel;stroke-miterlimit:1.9"
       d="m 4.7729975,20.71066 c 0,-5.5e-4 4.069e-4,-0.0027 9.336e-4,-0.0049 5.026e-4,-0.0021 0.00558,-0.0258 0.011274,-0.05254 0.087151,-0.409553 0.1956807,-0.837739 0.3197727,-1.26161 l 0.00773,-0.02641 h 0.019026 c 0.010463,0 0.019026,2.87e-4 0.019026,6.22e-4 0,3.35e-4 -0.00355,0.01265 -0.00789,0.02736 -0.1242334,0.420844 -0.2438649,0.891346 -0.3288155,1.293214 -0.00256,0.01211 -0.00487,0.02275 -0.00515,0.02365 -4.549e-4,0.0015 -0.00215,0.0016 -0.018199,0.0016 -0.011818,0 -0.017704,-3.35e-4 -0.017704,-9.81e-4 z"
       id="path135" />
    <path
       style="fill:#fed849;fill-opacity:1;stroke:none;stroke-width:0.000889228;stroke-linejoin:bevel;stroke-miterlimit:1.9"
       d="m 4.5467166,22.05739 c 0,-0.0012 0.011853,-0.09257 0.016888,-0.130182 0.052709,-0.39377 0.1209957,-0.792824 0.2031276,-1.18704 l 0.00585,-0.02806 0.017977,-2.64e-4 c 0.00989,-1.4e-4 0.017977,-3e-5 0.017977,2.4e-4 0,2.63e-4 -8.138e-4,0.0042 -0.00182,0.0086 -0.0038,0.01709 -0.022868,0.109561 -0.033705,0.163388 -0.075903,0.377003 -0.1382537,0.75375 -0.1870055,1.129951 -0.0031,0.02388 -0.00562,0.04356 -0.00562,0.04372 0,1.58e-4 -0.00757,2.88e-4 -0.01683,2.88e-4 -0.00926,0 -0.01683,-3.35e-4 -0.01683,-7.18e-4 z"
       id="path136" />
    <path
       style="fill:#fed849;fill-opacity:1;stroke:none;stroke-width:0.000889228;stroke-linejoin:bevel;stroke-miterlimit:1.9"
       d="m 4.4666823,23.460916 c 0.00618,-0.177171 0.018723,-0.402881 0.032853,-0.591183 0.027149,-0.36183 0.064481,-0.704389 0.1164042,-1.068145 0.00615,-0.04312 0.011191,-0.07857 0.011191,-0.07878 0,-2.07e-4 0.4256095,-3.83e-4 0.9457985,-3.83e-4 h 0.9457987 v 0.878476 0.878475 H 5.4923826 4.4660376 Z"
       id="path137" />
    <path
       style="fill:#fed849;fill-opacity:1;stroke:none;stroke-width:0.000889228;stroke-linejoin:bevel;stroke-miterlimit:1.9"
       d="m 4.4330012,23.469799 c 2.873e-4,-0.0053 7.659e-4,-0.01631 0.00106,-0.02454 0.012297,-0.362322 0.044049,-0.789106 0.087484,-1.17582 0.00748,-0.06662 0.023379,-0.20046 0.02474,-0.208281 l 5.267e-4,-0.003 h 0.016871 0.016871 l -5.506e-4,0.0036 c -0.00106,0.0066 -0.010731,0.08573 -0.016851,0.137685 -0.049525,0.420457 -0.081523,0.835422 -0.097393,1.263013 l -6.223e-4,0.01706 H 4.4488096 4.432485 Z"
       id="path138" />
    <path
       style="fill:#fed849;fill-opacity:1;stroke:none;stroke-width:0.000889228;stroke-linejoin:bevel;stroke-miterlimit:1.9"
       d="m 4.4382513,24.672231 c 0,-0.0021 -6.223e-4,-0.01872 -0.00139,-0.0367 -0.00731,-0.172831 -0.011444,-0.346694 -0.012488,-0.525224 -0.00122,-0.209539 0.00108,-0.404665 0.00688,-0.583236 7.659e-4,-0.0234 0.00139,-0.0437 0.00139,-0.04512 l 1.5e-6,-0.0025 h 0.016433 0.016433 l -5.506e-4,0.0082 c -3.111e-4,0.0045 -0.00118,0.02964 -0.00192,0.05587 -7.421e-4,0.02623 -0.00158,0.05505 -0.00187,0.06405 -0.0024,0.07632 -0.00424,0.191968 -0.00505,0.314643 -0.0016,0.244734 0.00234,0.487677 0.011619,0.715311 7.66e-4,0.0185 0.00136,0.03482 0.00136,0.03624 l 3.1e-6,0.0025 h -0.015427 -0.015427 z"
       id="path139" />
    <path
       style="fill:#fed849;fill-opacity:1;stroke:none;stroke-width:0.000889228;stroke-linejoin:bevel;stroke-miterlimit:1.9"
       d="m 4.5749969,26.1646 c -5.744e-4,-0.0043 -0.00379,-0.02791 -0.00714,-0.0526 -0.054746,-0.403287 -0.093659,-0.802697 -0.1174245,-1.205272 -0.00338,-0.05734 -0.00785,-0.14229 -0.0098,-0.186542 -7.9e-4,-0.01774 -0.00162,-0.03489 -0.00187,-0.0381 l -4.549e-4,-0.0059 h 0.015313 0.015313 l 5.266e-4,0.0068 c 2.872e-4,0.0038 7.66e-4,0.01267 0.00103,0.01986 0.00539,0.138498 0.019248,0.364395 0.033227,0.541392 0.02337,0.295901 0.058936,0.624235 0.097722,0.9021 0.00178,0.01274 0.00323,0.02379 0.00323,0.02454 0,0.0012 -0.00227,0.0014 -0.014322,0.0014 h -0.014324 z"
       id="path140" />
    <path
       style="fill:#fed849;fill-opacity:1;stroke:none;stroke-width:0.000889228;stroke-linejoin:bevel;stroke-miterlimit:1.9"
       d="M 4.832514,27.569506 C 4.7470071,27.192487 4.67676,26.827225 4.6177561,26.452828 c -0.01515,-0.09612 -0.04193,-0.278167 -0.041046,-0.279009 2.171e-4,-2.06e-4 0.00667,-4.79e-4 0.014331,-7.18e-4 l 0.013938,-2.39e-4 0.0077,0.05377 c 0.055881,0.390207 0.1250274,0.773893 0.2090361,1.159923 0.013367,0.06142 0.045031,0.202594 0.046192,0.205944 3.111e-4,9.57e-4 -0.00303,0.0012 -0.014765,0.0012 h -0.015169 z"
       id="path141" />
    <path
       style="fill:#fed849;fill-opacity:1;stroke:none;stroke-width:0.000889228;stroke-linejoin:bevel;stroke-miterlimit:1.9"
       d="M 5.2135924,28.97301 C 5.0829044,28.558674 4.970171,28.151412 4.8721333,27.739451 c -0.017558,-0.07377 -0.033874,-0.14413 -0.033502,-0.144442 1.575e-4,-1.31e-4 0.00688,-4.78e-4 0.014941,-7.18e-4 l 0.014654,-4.79e-4 0.00251,0.01091 c 0.08196,0.355905 0.1885124,0.75427 0.2997872,1.120802 0.02762,0.09098 0.068391,0.22175 0.086802,0.278412 l 0.00357,0.01098 h -0.017052 -0.017053 z"
       id="path142" />
    <path
       style="fill:#fed849;fill-opacity:1;stroke:none;stroke-width:0.000889228;stroke-linejoin:bevel;stroke-miterlimit:1.9"
       d="M 5.7347212,30.413448 C 5.6633193,30.237583 5.6101614,30.102393 5.5528174,29.950833 5.4507659,29.681109 5.3544317,29.407476 5.2654356,29.134538 c -0.017615,-0.05402 -0.038006,-0.117437 -0.038006,-0.118195 0,-2.39e-4 0.0076,-4.79e-4 0.016899,-2.39e-4 l 0.016899,2.39e-4 0.016351,0.0505 c 0.1404313,0.433635 0.3102018,0.896917 0.4860126,1.326267 0.00956,0.02333 0.017383,0.0426 0.017383,0.04278 0,1.82e-4 -0.00833,2.39e-4 -0.018525,2.39e-4 h -0.018525 z"
       id="path143" />
    <path
       style="fill:#fed849;fill-opacity:1;stroke:none;stroke-width:0.000889228;stroke-linejoin:bevel;stroke-miterlimit:1.9"
       d="M 6.3520326,31.774405 C 6.1366861,31.342562 5.9471081,30.927108 5.7693018,30.497367 c -0.012979,-0.03138 -0.023897,-0.05798 -0.024259,-0.05915 l -6.702e-4,-0.0021 0.01853,2.6e-5 0.018529,2.5e-5 0.011607,0.02826 c 0.070434,0.1715 0.1668726,0.394357 0.2541991,0.587417 0.1100934,0.243396 0.2145411,0.462811 0.3369097,0.707756 0.026699,0.05344 0.048544,0.09731 0.048544,0.09747 0,1.7e-4 -0.00884,2.4e-4 -0.019645,2.4e-4 h -0.019645 z"
       id="path144" />
    <path
       style="fill:#fed849;fill-opacity:1;stroke:none;stroke-width:0.000889228;stroke-linejoin:bevel;stroke-miterlimit:1.9"
       d="m 7.1813662,33.275155 c -0.00122,-0.0019 -0.014403,-0.0237 -0.029316,-0.04839 -0.2081186,-0.344506 -0.4159101,-0.712504 -0.600576,-1.063614 -0.010413,-0.01979 -0.021153,-0.04021 -0.023865,-0.04535 -0.034363,-0.06515 -0.1332426,-0.257942 -0.1332426,-0.259785 0,-2.4e-4 0.00873,-7.18e-4 0.019401,-7.18e-4 l 0.019401,1.1e-5 0.013464,0.0264 c 0.2220038,0.435389 0.4374186,0.825342 0.6873698,1.244302 0.02432,0.04076 0.079388,0.132119 0.087081,0.144463 0.00129,0.0021 0.00264,0.0043 0.00302,0.0049 5.506e-4,9.58e-4 -0.00368,0.0012 -0.019923,0.0012 h -0.020615 z"
       id="path145" />
    <path
       style="fill:#fed849;fill-opacity:1;stroke:none;stroke-width:0.000889228;stroke-linejoin:bevel;stroke-miterlimit:1.9"
       d="M 8.122725,34.695919 C 8.1123602,34.681748 8.0255446,34.559884 7.9996765,34.523205 7.716322,34.121437 7.4549834,33.723615 7.2005308,33.306711 l -0.016835,-0.02758 0.020263,-4.79e-4 c 0.011145,-2.4e-4 0.020318,-4.79e-4 0.020388,-4.79e-4 6.88e-5,0 0.011186,0.0181 0.024702,0.04021 0.2794496,0.457166 0.5900556,0.924206 0.9058358,1.362052 0.0073,0.01015 0.013266,0.01865 0.013266,0.01893 0,2.39e-4 -0.00957,4.79e-4 -0.021273,4.79e-4 l -0.021273,-3.6e-5 z"
       id="path146" />
    <path
       style="fill:#fed849;fill-opacity:1;stroke:none;stroke-width:0.000889228;stroke-linejoin:bevel;stroke-miterlimit:1.9"
       d="M 9.198741,36.072696 C 8.8422422,35.651251 8.5034909,35.219765 8.1815738,34.777071 c -0.032407,-0.04457 -0.053763,-0.07412 -0.054898,-0.07597 -5.745e-4,-9.58e-4 0.00382,-0.0012 0.02076,-0.0012 h 0.021477 l 0.013355,0.01848 c 0.3305325,0.457077 0.698977,0.926628 1.0639407,1.355904 0.019825,0.02331 0.036818,0.04341 0.037761,0.04465 l 0.00173,0.0021 h -0.022958 -0.022958 z"
       id="path147" />
    <path
       style="fill:#fed849;fill-opacity:1;stroke:none;stroke-width:0.000889228;stroke-linejoin:bevel;stroke-miterlimit:1.9"
       d="m 10.417774,37.402914 c -0.08607,-0.0871 -0.111026,-0.112513 -0.165452,-0.168545 -0.3036839,-0.312641 -0.5925219,-0.627328 -0.8776837,-0.956228 -0.046301,-0.0534 -0.1339931,-0.155768 -0.1339931,-0.156414 0,-2.39e-4 0.010204,-4.79e-4 0.022676,-4.79e-4 l 0.022676,1.7e-5 0.03787,0.04415 c 0.248908,0.290203 0.5083734,0.577475 0.7742178,0.857189 0.12749,0.134142 0.23914,0.248725 0.402951,0.413535 l 0.03136,0.03156 h -0.02531 -0.02532 z"
       id="path148" />
    <path
       style="fill:#fed849;fill-opacity:1;stroke:none;stroke-width:0.000889228;stroke-linejoin:bevel;stroke-miterlimit:1.9"
       d="m 12.024744,38.87565 c -0.473759,-0.395205 -0.915599,-0.793397 -1.336653,-1.204611 -0.02569,-0.02509 -0.196548,-0.193542 -0.201454,-0.198614 l -0.0037,-0.0039 h 0.02558 0.02558 l 0.052,0.05166 c 0.188009,0.186794 0.409329,0.397812 0.619816,0.590963 0.276335,0.253577 0.562488,0.503548 0.843141,0.736533 0.02623,0.02178 0.04809,0.03995 0.04858,0.04038 4.79e-4,4.79e-4 -0.01208,7.19e-4 -0.02806,7.19e-4 l -0.02894,-1.2e-5 z"
       id="path149" />
    <path
       style="fill:#fed849;fill-opacity:1;stroke:none;stroke-width:0.000889228;stroke-linejoin:bevel;stroke-miterlimit:1.9"
       d="m 13.39926,39.932243 c -0.003,-0.0021 -0.03063,-0.0218 -0.06123,-0.04363 -0.415755,-0.296655 -0.827849,-0.612882 -1.225863,-0.94068 -0.02915,-0.02401 -0.06848,-0.05652 -0.07099,-0.05867 -2.14e-4,-1.84e-4 0.01263,-2.4e-4 0.02853,-2.4e-4 h 0.02892 l 0.01542,0.01276 c 0.191799,0.158761 0.437033,0.3536 0.653119,0.518907 0.217705,0.166545 0.473689,0.354936 0.675104,0.496837 0.01337,0.0094 0.02471,0.0175 0.0252,0.01793 5.03e-4,4.79e-4 -0.01297,7.17e-4 -0.03086,7.17e-4 h -0.03174 z"
       id="path150" />
    <path
       style="fill:#fed849;fill-opacity:1;stroke:none;stroke-width:0.000889228;stroke-linejoin:bevel;stroke-miterlimit:1.9"
       d="m 15.089822,41.016973 c -0.5758,-0.333151 -1.13,-0.6882 -1.665958,-1.067301 l -0.0184,-0.01302 0.03168,-2.39e-4 0.03169,-2.4e-4 0.0096,0.0068 c 0.167087,0.118877 0.445616,0.307516 0.661361,0.447919 0.314471,0.204652 0.664456,0.419279 0.970803,0.595347 l 0.01052,0.006 7e-6,0.02128 c 4e-6,0.0117 -9.7e-5,0.02125 -2.25e-4,0.02125 -1.29e-4,-9e-6 -0.01412,-0.008 -0.03109,-0.01788 z"
       id="path151" />
    <path
       style="fill:#fed849;fill-opacity:1;stroke:none;stroke-width:0.000889228;stroke-linejoin:bevel;stroke-miterlimit:1.9"
       d="m 16.744386,41.875771 c -0.01157,-0.0054 -0.04207,-0.01965 -0.06779,-0.03163 -0.512563,-0.238979 -1.049256,-0.517887 -1.540485,-0.800554 l -0.01449,-0.0083 -2.39e-4,-0.02123 c -1.38e-4,-0.01168 -9e-5,-0.02123 1.07e-4,-0.02123 1.97e-4,0 0.01546,0.0086 0.03391,0.01926 0.47198,0.270964 0.963313,0.527586 1.454824,0.75985 0.03787,0.0179 0.12888,0.06042 0.145634,0.06806 l 0.01098,0.005 v 0.02039 c 0,0.01123 -3.1e-4,0.02037 -6.94e-4,0.02032 -3.83e-4,-4.3e-5 -0.01017,-0.0045 -0.02174,-0.0099 z"
       id="path152" />
    <path
       style="fill:#fed849;fill-opacity:1;stroke:none;stroke-width:0.000889228;stroke-linejoin:bevel;stroke-miterlimit:1.9"
       d="m 18.239056,42.492986 c -0.01183,-0.0044 -0.03875,-0.01426 -0.05985,-0.02203 -0.454377,-0.167084 -0.903983,-0.352738 -1.376592,-0.568429 l -0.03574,-0.0163 -2.9e-5,-0.02034 c -1.6e-5,-0.01118 1.91e-4,-0.02035 4.55e-4,-0.02035 2.63e-4,0 0.0083,0.0037 0.018,0.008 0.426351,0.196237 0.84145,0.370222 1.27475,0.534299 0.07212,0.02731 0.200281,0.07477 0.201907,0.07477 5.74e-4,0 9.33e-4,0.0071 9.33e-4,0.01917 0,0.01475 -2.63e-4,0.01915 -0.0012,0.01912 -6.46e-4,-2.9e-5 -0.01084,-0.0037 -0.02267,-0.008 z"
       id="path153" />
    <path
       style="fill:#fed849;fill-opacity:1;stroke:none;stroke-width:0.000889228;stroke-linejoin:bevel;stroke-miterlimit:1.9"
       d="m 19.728583,42.965631 c -0.517785,-0.141613 -0.946274,-0.276949 -1.441606,-0.455323 l -0.02408,-0.0086 v -0.019 c 0,-0.01046 2.12e-4,-0.01901 4.79e-4,-0.01901 2.63e-4,0 0.01152,0.0041 0.02501,0.0089 0.228354,0.08342 0.508693,0.178724 0.752941,0.255972 0.227985,0.07211 0.487165,0.148518 0.688661,0.203035 0.0126,0.0033 0.02428,0.0066 0.02594,0.0072 l 0.003,9.57e-4 v 0.01676 c 0,0.01537 -1.36e-4,0.01676 -0.0016,0.01669 -9.09e-4,-4.6e-5 -0.01384,-0.0035 -0.02876,-0.0075 z"
       id="path154" />
    <path
       style="fill:#fed849;fill-opacity:1;stroke:none;stroke-width:0.000889228;stroke-linejoin:bevel;stroke-miterlimit:1.9"
       d="m 21.311148,43.315336 c -0.0085,-0.0014 -0.04278,-0.0075 -0.07621,-0.01343 -0.471123,-0.08295 -0.946263,-0.18771 -1.415191,-0.312032 -0.0234,-0.0062 -0.04665,-0.01235 -0.05166,-0.01369 l -0.0091,-0.0024 v -0.01718 c 0,-0.01595 1.19e-4,-0.01714 0.0016,-0.01666 0.0088,0.0027 0.143766,0.03855 0.210152,0.05572 0.432513,0.111882 0.894124,0.212258 1.3114,0.285161 0.02083,0.0037 0.04007,0.0071 0.04277,0.0076 l 0.0049,9.58e-4 v 0.01443 c 0,0.01314 -1.45e-4,0.01441 -0.0016,0.01434 -9.1e-4,-4.9e-5 -0.0086,-0.0012 -0.01706,-0.0028 z"
       id="path155" />
    <path
       style="fill:#fed849;fill-opacity:1;stroke:none;stroke-width:0.000889228;stroke-linejoin:bevel;stroke-miterlimit:1.9"
       d="m 23.171889,43.525255 c -0.124901,-0.0072 -0.188425,-0.01116 -0.273969,-0.01723 -0.453313,-0.03226 -0.913235,-0.08495 -1.366568,-0.156572 -0.0772,-0.01221 -0.19626,-0.03176 -0.199867,-0.03284 -0.0014,-4.78e-4 -0.0016,-0.0019 -0.0016,-0.01498 v -0.0145 l 0.0025,4.79e-4 c 0.0014,2.4e-4 0.01856,0.0032 0.0381,0.0066 0.57813,0.09854 1.149921,0.164735 1.704121,0.197302 0.0306,0.0019 0.06826,0.0039 0.08369,0.0047 0.01543,7.18e-4 0.0311,0.0017 0.03483,0.0019 l 0.0068,4.78e-4 v 0.013 0.013 l -0.003,-1.22e-4 c -0.0017,-6.7e-5 -0.01292,-7.17e-4 -0.02501,-0.0014 z"
       id="path156" />
    <path
       id="path157"
       style="fill:#fed849;fill-opacity:1;stroke:none;stroke-width:0.000889228;stroke-linejoin:bevel;stroke-miterlimit:1.9"
       d="m 26.640909,43.287386 -0.0028,4.8e-4 c -0.0079,0.0017 -0.137399,0.02293 -0.184203,0.03039 -0.447039,0.07127 -0.910011,0.125559 -1.338519,0.157089 -0.02162,0.0017 -0.0404,0.003 -0.04207,0.0032 l -0.0032,4.78e-4 v 0.01542 0.01542 l 0.0052,-4.79e-4 c 0.0029,-2.38e-4 0.0233,-0.0019 0.04489,-0.0032 0.400102,-0.02856 0.83608,-0.07775 1.252493,-0.141194 0.08031,-0.01223 0.230545,-0.03625 0.259943,-0.04161 l 0.0084,-0.0014 v -0.01731 z m -1.570877,0.207115 c 0,-0.01517 4.3e-5,-0.01542 -0.0019,-0.01542 -0.0012,0 -0.01702,0.0012 -0.03507,0.0024 -0.267387,0.01903 -0.530214,0.03016 -0.838267,0.036 -0.08141,0.0014 -0.401056,0.0014 -0.481549,0 -0.188157,-0.0037 -0.362724,-0.0091 -0.490899,-0.0159 -0.0095,-4.79e-4 -0.01869,-9.58e-4 -0.0201,-9.58e-4 h -0.0023 v 0.01309 0.01262 l 0.0098,9.58e-4 c 0.0374,0.0021 0.16938,0.0078 0.251527,0.01075 0.120361,0.0043 0.273966,0.0079 0.391784,0.0088 v -4.79e-4 c 0.01234,2.4e-4 0.07041,2.4e-4 0.129036,4.79e-4 0.340682,7.18e-4 0.690246,-0.01051 1.036966,-0.03366 0.02681,-0.0019 0.04954,-0.0032 0.05002,-0.0032 7.18e-4,0 9.58e-4,-0.0046 9.58e-4,-0.01542 z" />
    <path
       style="fill:#fed849;fill-opacity:1;stroke:none;stroke-width:0.000889228;stroke-linejoin:bevel;stroke-miterlimit:1.9"
       d="m 26.640909,43.304722 c 0,-0.01718 1.4e-5,-0.01731 0.0021,-0.01776 0.0012,-2.39e-4 0.0096,-0.0017 0.01893,-0.0033 0.396908,-0.06767 0.837728,-0.160892 1.255064,-0.265397 l 0.07036,-0.01762 v 0.0184 0.01841 l -0.05868,0.01465 c -0.419563,0.104718 -0.862997,0.198066 -1.255533,0.264302 -0.01544,0.0026 -0.029,0.005 -0.03016,0.0052 l -0.0021,4.79e-4 z"
       id="path158" />
    <path
       style="fill:#fed849;fill-opacity:1;stroke:none;stroke-width:0.000889228;stroke-linejoin:bevel;stroke-miterlimit:1.9"
       d="m 27.988307,43.018625 c 0,-0.01649 1.52e-4,-0.01822 0.0017,-0.01868 9.57e-4,-2.39e-4 0.02541,-0.0066 0.05447,-0.01415 0.602631,-0.155735 1.20179,-0.344336 1.798093,-0.565997 0.02906,-0.0108 0.06114,-0.02279 0.0713,-0.02662 l 0.01848,-0.007 -1.2e-5,0.0193 -1e-5,0.0193 -0.04324,0.01611 c -0.542567,0.202292 -1.05927,0.369384 -1.592138,0.514859 -0.09798,0.02675 -0.304215,0.08101 -0.307905,0.08101 -4.8e-4,0 -7.19e-4,-0.0082 -7.19e-4,-0.01817 z"
       id="path159" />
    <path
       style="fill:#fed849;fill-opacity:1;stroke:none;stroke-width:0.000889228;stroke-linejoin:bevel;stroke-miterlimit:1.9"
       d="m 29.933418,42.405046 2.39e-4,-0.0193 0.0159,-0.006 c 0.526911,-0.199743 1.041786,-0.420904 1.555448,-0.66813 0.154001,-0.07412 0.405228,-0.199467 0.510319,-0.254622 l 0.01147,-0.006 -2.39e-4,0.01984 -2.39e-4,0.01984 -0.03694,0.01901 c -0.605302,0.311569 -1.229569,0.593443 -1.853261,0.8368 -0.05234,0.02042 -0.125804,0.0487 -0.166438,0.06408 -0.01362,0.0052 -0.02742,0.01036 -0.03064,0.01161 l -0.0059,0.0021 z"
       id="path160" />
    <path
       style="fill:#fed849;fill-opacity:1;stroke:none;stroke-width:0.000889228;stroke-linejoin:bevel;stroke-miterlimit:1.9"
       d=""
       id="path161" />
    <path
       style="fill:#fed849;fill-opacity:1;stroke:none;stroke-width:0.000889228;stroke-linejoin:bevel;stroke-miterlimit:1.9"
       d="m 32.026984,41.470633 2.39e-4,-0.01977 0.02618,-0.0136 c 0.580071,-0.301464 1.150977,-0.633184 1.704548,-0.990415 l 0.03643,-0.02351 0.0309,2e-5 0.0309,1.8e-5 -0.0159,0.01041 c -0.06123,0.04011 -0.192393,0.124062 -0.279579,0.178926 -0.492773,0.310094 -1.008148,0.605306 -1.515494,0.868093 l -0.01848,0.0095 z"
       id="path162" />
    <path
       style="fill:#fed849;fill-opacity:1;stroke:none;stroke-width:0.000889228;stroke-linejoin:bevel;stroke-miterlimit:1.9"
       d="m 33.795019,40.422996 c 2.15e-4,-1.91e-4 0.0187,-0.01225 0.04107,-0.02681 0.290372,-0.188865 0.607906,-0.406808 0.851359,-0.584342 0.118259,-0.08624 0.24543,-0.181631 0.366719,-0.275082 0.02126,-0.01637 0.03885,-0.02977 0.0391,-0.02977 2.39e-4,0 4.78e-4,0.01063 4.78e-4,0.0236 l -1.6e-5,0.0236 -0.05445,0.04081 c -0.381827,0.286181 -0.76548,0.555341 -1.151136,0.8076 l -0.03167,0.02071 h -0.0309 c -0.01699,0 -0.03072,-1.55e-4 -0.03051,-2.39e-4 z"
       id="path163" />
    <path
       style="fill:#fed849;fill-opacity:1;stroke:none;stroke-width:0.000889228;stroke-linejoin:bevel;stroke-miterlimit:1.9"
       d="m 35.09372,39.530085 v -0.02389 l 0.02688,-0.02085 c 0.276799,-0.214584 0.60035,-0.480119 0.907228,-0.744544 0.146036,-0.125835 0.344348,-0.300564 0.45303,-0.399157 l 0.01403,-0.01271 0.04206,-4e-5 0.04205,-4.1e-5 -0.0027,0.0026 c -0.0056,0.0054 -0.09699,0.0868 -0.148188,0.132021 -0.418922,0.370038 -0.880629,0.747917 -1.308594,1.071002 -0.01285,0.0097 -0.02391,0.01805 -0.02454,0.01855 -9.57e-4,7.18e-4 -0.0012,-0.0041 -0.0012,-0.023 z"
       id="path164" />
    <path
       style="fill:#fed849;fill-opacity:1;stroke:none;stroke-width:0.000889228;stroke-linejoin:bevel;stroke-miterlimit:1.9"
       d="m 36.495431,38.328516 c 0.0014,-0.0012 0.0848,-0.07662 0.10137,-0.09173 0.254713,-0.232066 0.490169,-0.453994 0.732609,-0.69052 0.07739,-0.0755 0.241938,-0.238492 0.29115,-0.288397 l 0.05038,-0.05109 h 0.03507 0.03507 l -0.0041,0.0045 c -0.02171,0.02389 -0.179567,0.184531 -0.279525,0.284484 -0.282087,0.28207 -0.559835,0.545935 -0.852651,0.810028 l -0.02561,0.0231 h -0.0421 c -0.02314,0 -0.04193,-1.46e-4 -0.04171,-2.39e-4 z"
       id="path165" />
    <path
       style="fill:#fed849;fill-opacity:1;stroke:none;stroke-width:0.000889228;stroke-linejoin:bevel;stroke-miterlimit:1.9"
       d="m 37.691817,37.185983 c 0.437959,-0.443336 0.840446,-0.883638 1.176119,-1.286622 l 0.03252,-0.03904 h 0.02066 0.02065 l -0.0019,0.0021 c -9.57e-4,0.0012 -0.01195,0.01431 -0.02421,0.02922 -0.197146,0.239556 -0.434516,0.514649 -0.650695,0.754115 -0.164373,0.182075 -0.310473,0.339052 -0.482339,0.518249 l -0.04103,0.04277 h -0.03516 -0.03516 z"
       id="path166" />
    <path
       style="fill:#fed849;fill-opacity:1;stroke:none;stroke-width:0.000889228;stroke-linejoin:bevel;stroke-miterlimit:1.9"
       d="m 38.918249,35.838581 c 0.04407,-0.05333 0.110322,-0.135455 0.169148,-0.209685 0.28406,-0.358435 0.546402,-0.708819 0.80773,-1.078807 l 0.0256,-0.03624 h 0.02229 c 0.01225,0 0.02228,2.06e-4 0.02228,4.78e-4 0,0.0012 -0.102041,0.144763 -0.161166,0.226759 -0.257942,0.357717 -0.531032,0.713309 -0.813612,1.059406 -0.01699,0.02083 -0.03491,0.04278 -0.03978,0.04879 l -0.0088,0.01091 -0.0208,6.3e-5 -0.0208,6.2e-5 z"
       id="path167" />
    <path
       style="fill:#fed849;fill-opacity:1;stroke:none;stroke-width:0.000889228;stroke-linejoin:bevel;stroke-miterlimit:1.9"
       d="m 39.921358,34.513341 c 0,-2.39e-4 0.01214,-0.01785 0.02696,-0.03904 0.29317,-0.419039 0.572192,-0.847951 0.830555,-1.276746 l 0.01817,-0.03015 0.0208,-9e-6 c 0.01144,-5e-6 0.0208,2.01e-4 0.0208,4.78e-4 0,7.19e-4 -0.01039,0.01807 -0.0449,0.07527 -0.255565,0.423592 -0.508028,0.812306 -0.792677,1.220468 l -0.03505,0.05025 h -0.02233 c -0.01228,0 -0.02233,-2.32e-4 -0.02233,-4.79e-4 z"
       id="path168" />
    <path
       style="fill:#fed849;fill-opacity:1;stroke:none;stroke-width:0.000889228;stroke-linejoin:bevel;stroke-miterlimit:1.9"
       d="m 40.797497,33.167038 c 0,-1.91e-4 0.0095,-0.01628 0.02113,-0.03577 0.243432,-0.407695 0.473501,-0.823424 0.675226,-1.220118 0.01621,-0.03188 0.03315,-0.06512 0.03765,-0.07386 l 0.0081,-0.0159 0.01884,-2.4e-4 0.01884,-2.39e-4 -0.01158,0.0227 c -0.0064,0.01247 -0.02307,0.04541 -0.03709,0.07318 -0.157822,0.3126 -0.350183,0.667526 -0.537434,0.991616 -0.04121,0.07133 -0.124253,0.212803 -0.148052,0.252228 l -0.0041,0.0068 h -0.0208 c -0.01144,0 -0.0208,-1.57e-4 -0.0208,-2.38e-4 z"
       id="path169" />
    <path
       style="fill:#fed849;fill-opacity:1;stroke:none;stroke-width:0.000889228;stroke-linejoin:bevel;stroke-miterlimit:1.9"
       d="m 41.584771,31.730926 c 0.205153,-0.413065 0.38288,-0.802923 0.554245,-1.215793 l 0.01669,-0.04021 0.01704,-2.4e-4 c 0.0093,-1.41e-4 0.01704,-9.3e-5 0.01704,1.06e-4 0,1.96e-4 -0.0021,0.0056 -0.0048,0.01195 -0.184146,0.446252 -0.361396,0.83672 -0.583264,1.284882 l -0.02442,0.04932 h -0.01863 -0.01863 z"
       id="path170" />
    <path
       style="fill:#fed849;fill-opacity:1;stroke:none;stroke-width:0.000889228;stroke-linejoin:bevel;stroke-miterlimit:1.9"
       d="m 42.156118,30.474145 c 0,-1.96e-4 0.0074,-0.0184 0.01644,-0.04046 0.165064,-0.402425 0.321692,-0.828162 0.459888,-1.250054 l 0.01808,-0.05517 0.01685,-2.4e-4 0.01685,-2.38e-4 -0.0052,0.01616 c -0.01852,0.0581 -0.07902,0.238256 -0.111372,0.331728 -0.109328,0.315892 -0.234702,0.648561 -0.360853,0.957486 l -0.01662,0.04067 -0.01707,2.39e-4 c -0.0093,1.41e-4 -0.01706,9.6e-5 -0.01706,-10e-5 z"
       id="path171" />
    <path
       style="fill:#fed849;fill-opacity:1;stroke:none;stroke-width:0.00355692;stroke-linejoin:bevel;stroke-miterlimit:1.9"
       d="m 42.660917,29.100606 c 0.0047,-0.01503 0.02222,-0.0707 0.03896,-0.123719 0.207548,-0.657724 0.387158,-1.381181 0.511278,-2.059398 0.155395,-0.849109 0.241237,-1.663302 0.267215,-2.534385 0.0073,-0.243965 0.0036,-0.887852 -0.0058,-0.995823 l -0.0019,-0.02338 h 0.01658 0.01662 l 0.0021,0.03086 c 0.0012,0.01697 0.0039,0.08893 0.0059,0.159893 0.02053,0.722909 -0.0087,1.439297 -0.08806,2.158085 -0.120443,1.090843 -0.349036,2.168063 -0.691563,3.258907 -0.05352,0.170441 -0.04658,0.153793 -0.06467,0.155143 l -0.01519,0.0012 z"
       id="path172" />
    <path
       style="fill:#fed849;fill-opacity:1;stroke:none;stroke-width:0.00355692;stroke-linejoin:bevel;stroke-miterlimit:1.9"
       d="m 43.467539,23.263855 c -0.05004,-1.102958 -0.224071,-2.243038 -0.511109,-3.348398 -0.01951,-0.07508 -0.03545,-0.137779 -0.03544,-0.139321 3e-6,-0.0015 0.0058,-0.0028 0.01283,-0.0028 0.01535,0 0.01015,-0.01534 0.05796,0.170178 0.247156,0.958314 0.411338,1.943935 0.48254,2.896772 0.01271,0.169944 0.03007,0.462773 0.03013,0.507729 l 1.7e-5,0.0159 h -0.01618 -0.01618 z"
       id="path173" />
    <path
       style="fill:#fed849;fill-opacity:1;stroke:none;stroke-width:0.00355692;stroke-linejoin:bevel;stroke-miterlimit:1.9"
       d="m 42.906268,19.725586 c -0.0197,-0.07492 -0.09102,-0.325226 -0.125465,-0.44035 -0.490843,-1.640657 -1.230346,-3.2526 -2.2066,-4.809874 -0.02708,-0.0432 -0.0505,-0.08064 -0.05205,-0.08322 -0.0021,-0.0036 0.0021,-0.0047 0.01706,-0.0047 h 0.01986 l 0.01475,0.02338 c 0.467905,0.741516 0.907884,1.550659 1.274659,2.344159 0.443898,0.960349 0.807307,1.951028 1.074278,2.928563 0.01151,0.04218 0.02173,0.07935 0.02272,0.0826 0.0014,0.0047 -0.0014,0.0061 -0.01248,0.0065 l -0.01424,5.5e-4 z"
       id="path174" />
    <path
       style="fill:#fed849;fill-opacity:1;stroke:none;stroke-width:0.00355692;stroke-linejoin:bevel;stroke-miterlimit:1.9"
       d="m 40.497541,14.354669 c -0.140795,-0.225597 -0.426865,-0.651038 -0.628059,-0.934038 -0.397537,-0.559178 -0.890204,-1.192653 -1.244913,-1.600719 l -0.04219,-0.04855 v -0.02158 c 0,-0.01188 7.18e-4,-0.02159 0.0019,-0.02159 0.0024,0 0.128821,0.147842 0.230487,0.269294 0.611747,0.730819 1.17851,1.503264 1.686093,2.297984 0.03102,0.04858 0.0564,0.08915 0.0564,0.09015 0,0.001 -0.0088,0.0018 -0.01963,0.0017 l -0.01963,-7.3e-5 z"
       id="path175" />
    <path
       style="fill:#fed849;fill-opacity:1;stroke:none;stroke-width:0.00251513;stroke-linejoin:bevel;stroke-miterlimit:1.9"
       d="m 22.292293,31.581419 c 0,-0.0021 -0.04645,-0.335571 -0.103223,-0.741179 -0.05677,-0.405608 -0.17638,-1.26009 -0.265793,-1.898849 -0.08941,-0.638756 -0.162569,-1.162707 -0.162569,-1.164332 0,-0.0017 0.0049,-0.0029 0.01186,-0.0029 0.01015,0 0.01205,9.57e-4 0.01319,0.006 0.0015,0.0068 0.530341,3.797992 0.530341,3.802258 0,0.0017 -0.0053,0.0028 -0.01191,0.0028 -0.0084,0 -0.01191,-0.0012 -0.01191,-0.0038 z"
       id="path176" />
    <path
       style="fill:#fed849;fill-opacity:1;stroke:none;stroke-width:0.00251513;stroke-linejoin:bevel;stroke-miterlimit:1.9"
       d="m 21.759516,27.770799 c -5.74e-4,-0.0019 -0.02978,-0.209197 -0.06492,-0.460841 -0.03514,-0.251644 -0.08582,-0.613806 -0.112614,-0.804804 -0.0268,-0.190999 -0.04872,-0.348391 -0.04872,-0.349762 0,-0.0014 0.006,-0.0025 0.01323,-0.0025 0.0073,0 0.01322,0.0012 0.01322,0.0027 0,0.0014 0.05058,0.365147 0.1124,0.808135 0.06182,0.442992 0.1124,0.806547 0.1124,0.807904 0,0.0038 -0.0238,0.003 -0.02499,-9.58e-4 z"
       id="path177" />
    <rect
       style="fill:#fed849;fill-opacity:1;stroke:none;stroke-width:0.227643;stroke-linejoin:bevel;stroke-miterlimit:1.9"
       id="rect178"
       width="0.16397192"
       height="2.4437103"
       x="20.951426"
       y="23.022886" />
    <rect
       style="fill:#fed849;fill-opacity:1;stroke:none;stroke-width:0.227643;stroke-linejoin:bevel;stroke-miterlimit:1.9"
       id="rect179"
       width="0.17984015"
       height="1.6846792"
       x="21.022835"
       y="23.697287" />
    <rect
       style="fill:#fed849;fill-opacity:1;stroke:none;stroke-width:0.227643;stroke-linejoin:bevel;stroke-miterlimit:1.9"
       id="rect180"
       width="1.1001986"
       height="3.152492"
       x="20.37488"
       y="25.543291" />
    <rect
       style="fill:#fed849;fill-opacity:1;stroke:none;stroke-width:0.227643;stroke-linejoin:bevel;stroke-miterlimit:1.9"
       id="rect181"
       width="0.65588766"
       height="0.84630662"
       x="20.586456"
       y="25.014353" />
    <rect
       style="fill:#fed849;fill-opacity:1;stroke:none;stroke-width:0.227643;stroke-linejoin:bevel;stroke-miterlimit:1.9"
       id="rect182"
       width="0.97325259"
       height="2.9832308"
       x="20.459511"
       y="29.986403" />
    <rect
       style="fill:#fed849;fill-opacity:1;stroke:none;stroke-width:0.227643;stroke-linejoin:bevel;stroke-miterlimit:1.9"
       id="rect183"
       width="2.3061855"
       height="1.0367255"
       x="20.057514"
       y="32.038696" />
  </g>
</svg>
